<?xml version="1.0" encoding="UTF-8" standalone="no"?>
<!DOCTYPE svg PUBLIC "-//W3C//DTD SVG 1.1//EN" "http://www.w3.org/Graphics/SVG/1.1/DTD/svg11.dtd">
<!-- Created with Vectornator (http://vectornator.io/) -->
<svg height="100%" stroke-miterlimit="10" style="fill-rule:nonzero;clip-rule:evenodd;stroke-linecap:round;stroke-linejoin:round;" version="1.1" viewBox="0 0 1024 1024" width="100%" xml:space="preserve" xmlns="http://www.w3.org/2000/svg" xmlns:vectornator="http://vectornator.io" xmlns:xlink="http://www.w3.org/1999/xlink">
<defs/>
<g id="Ebene-7" vectornator:layerName="Ebene 7">
<path d="M144.381 357.253L879.619 357.253C906.929 357.253 929.068 379.392 929.068 406.702L929.068 618.143C929.068 645.453 906.929 667.592 879.619 667.592L144.381 667.592C117.071 667.592 94.9318 645.453 94.9318 618.143L94.9318 406.702C94.9318 379.392 117.071 357.253 144.381 357.253Z" fill="#b7b7b7" fill-rule="nonzero" opacity="1" stroke="none"/>
<path d="M144.381 155.409L879.619 155.409C906.929 155.409 929.068 177.548 929.068 204.858L929.068 260.921C929.068 288.231 906.929 310.37 879.619 310.37L144.381 310.37C117.071 310.37 94.9318 288.231 94.9318 260.921L94.9318 204.858C94.9318 177.548 117.071 155.409 144.381 155.409Z" fill="#dddddd" fill-rule="nonzero" opacity="1" stroke="none"/>
<path d="M144.381 357.253L879.619 357.253C906.929 357.253 929.068 379.392 929.068 406.702L929.068 462.766C929.068 490.076 906.929 512.215 879.619 512.215L144.381 512.215C117.071 512.215 94.9318 490.076 94.9318 462.766L94.9318 406.702C94.9318 379.392 117.071 357.253 144.381 357.253Z" fill="#dddddd" fill-rule="nonzero" opacity="1" stroke="none"/>
<path d="M144.381 713.63L879.619 713.63C906.929 713.63 929.068 735.769 929.068 763.079L929.068 819.142C929.068 846.452 906.929 868.591 879.619 868.591L144.381 868.591C117.071 868.591 94.9318 846.452 94.9318 819.142L94.9318 763.079C94.9318 735.769 117.071 713.63 144.381 713.63Z" fill="#dddddd" fill-rule="nonzero" opacity="1" stroke="none"/>
<path d="M807.346 210.384L840.31 252.602L856.122 230.51L870.476 210.457" fill="none" opacity="1" stroke="#000000" stroke-linecap="round" stroke-linejoin="round" stroke-width="20.5207"/>
<path d="M807.346 454.446L840.31 412.229L856.122 434.32L870.476 454.373" fill="none" opacity="1" stroke="#000000" stroke-linecap="round" stroke-linejoin="round" stroke-width="20.5207"/>
<path d="M807.346 768.605L840.31 810.822L856.122 788.731L870.476 768.678" fill="none" opacity="1" stroke="#000000" stroke-linecap="round" stroke-linejoin="round" stroke-width="20.5207"/>
<g fill="#000000" opacity="1" stroke="none">
<path d="M213.439 402.933L225.975 402.933L255.905 471.733L238.802 471.733L232.874 457.157L206.151 457.157L200.418 471.733L183.704 471.733L213.439 402.933ZM219.27 422.951L210.913 444.33L227.724 444.33L219.27 422.951Z"/>
<path d="M292.928 439.762C292.216 438.726 291.212 437.867 289.916 437.187C288.62 436.507 287.228 436.167 285.738 436.167C282.045 436.167 279.178 437.268 277.138 439.471C275.097 441.673 274.077 444.556 274.077 448.119C274.077 451.683 275.097 454.565 277.138 456.768C279.178 458.971 282.045 460.072 285.738 460.072C287.357 460.072 288.75 459.716 289.916 459.003C291.082 458.29 292.086 457.448 292.928 456.476L302.549 466.583C300.281 468.915 297.609 470.551 294.532 471.49C291.455 472.429 288.523 472.899 285.738 472.899C282.11 472.899 278.692 472.316 275.486 471.15C272.279 469.984 269.493 468.316 267.129 466.145C264.764 463.975 262.901 461.368 261.541 458.323C260.181 455.278 259.5 451.877 259.5 448.119C259.5 444.362 260.181 440.961 261.541 437.916C262.901 434.871 264.764 432.264 267.129 430.093C269.493 427.923 272.279 426.255 275.486 425.089C278.692 423.923 282.11 423.34 285.738 423.34C288.523 423.34 291.455 423.809 294.532 424.749C297.609 425.688 300.281 427.324 302.549 429.656L292.928 439.762Z"/>
<path d="M339.767 439.762C339.054 438.726 338.05 437.867 336.754 437.187C335.459 436.507 334.066 436.167 332.576 436.167C328.883 436.167 326.017 437.268 323.976 439.471C321.935 441.673 320.915 444.556 320.915 448.119C320.915 451.683 321.935 454.565 323.976 456.768C326.017 458.971 328.883 460.072 332.576 460.072C334.195 460.072 335.588 459.716 336.754 459.003C337.92 458.29 338.925 457.448 339.767 456.476L349.387 466.583C347.12 468.915 344.447 470.551 341.37 471.49C338.293 472.429 335.362 472.899 332.576 472.899C328.948 472.899 325.531 472.316 322.324 471.15C319.117 469.984 316.331 468.316 313.967 466.145C311.602 463.975 309.74 461.368 308.379 458.323C307.019 455.278 306.339 451.877 306.339 448.119C306.339 444.362 307.019 440.961 308.379 437.916C309.74 434.871 311.602 432.264 313.967 430.093C316.331 427.923 319.117 426.255 322.324 425.089C325.531 423.923 328.948 423.34 332.576 423.34C335.362 423.34 338.293 423.809 341.37 424.749C344.447 425.688 347.12 427.324 349.387 429.656L339.767 439.762Z"/>
<path d="M352.885 448.119C352.885 444.362 353.566 440.961 354.926 437.916C356.287 434.871 358.149 432.264 360.514 430.093C362.878 427.923 365.664 426.255 368.871 425.089C372.078 423.923 375.495 423.34 379.123 423.34C382.751 423.34 386.168 423.923 389.375 425.089C392.581 426.255 395.367 427.923 397.732 430.093C400.096 432.264 401.959 434.871 403.319 437.916C404.68 440.961 405.36 444.362 405.36 448.119C405.36 451.877 404.68 455.278 403.319 458.323C401.959 461.368 400.096 463.975 397.732 466.145C395.367 468.316 392.581 469.984 389.375 471.15C386.168 472.316 382.751 472.899 379.123 472.899C375.495 472.899 372.078 472.316 368.871 471.15C365.664 469.984 362.878 468.316 360.514 466.145C358.149 463.975 356.287 461.368 354.926 458.323C353.566 455.278 352.885 451.877 352.885 448.119ZM367.462 448.119C367.462 451.683 368.482 454.565 370.523 456.768C372.563 458.971 375.43 460.072 379.123 460.072C382.815 460.072 385.682 458.971 387.723 456.768C389.763 454.565 390.784 451.683 390.784 448.119C390.784 444.556 389.763 441.673 387.723 439.471C385.682 437.268 382.815 436.167 379.123 436.167C375.43 436.167 372.563 437.268 370.523 439.471C368.482 441.673 367.462 444.556 367.462 448.119Z"/>
<path d="M413.911 424.506L428.488 424.506L428.488 432.086L428.682 432.086C430.237 429.17 432.083 426.984 434.221 425.526C436.359 424.069 439.047 423.34 442.286 423.34C443.129 423.34 443.971 423.372 444.813 423.437C445.655 423.502 446.433 423.631 447.145 423.826L447.145 437.139C446.109 436.815 445.088 436.572 444.084 436.41C443.08 436.248 442.027 436.167 440.926 436.167C438.14 436.167 435.938 436.556 434.318 437.333C432.699 438.11 431.451 439.196 430.577 440.588C429.702 441.981 429.135 443.649 428.876 445.593C428.617 447.536 428.488 449.674 428.488 452.006L428.488 471.733L413.911 471.733L413.911 424.506Z"/>
<path d="M501.272 471.733L487.862 471.733L487.862 465.514L487.667 465.514C487.084 466.356 486.323 467.214 485.384 468.089C484.444 468.963 483.343 469.757 482.08 470.47C480.816 471.182 479.423 471.765 477.901 472.219C476.379 472.672 474.808 472.899 473.188 472.899C469.69 472.899 466.515 472.3 463.665 471.101C460.814 469.903 458.369 468.218 456.328 466.048C454.288 463.878 452.717 461.303 451.615 458.323C450.514 455.343 449.963 452.071 449.963 448.508C449.963 445.204 450.465 442.046 451.469 439.034C452.474 436.021 453.899 433.349 455.745 431.017C457.591 428.684 459.843 426.822 462.499 425.429C465.155 424.036 468.167 423.34 471.536 423.34C474.581 423.34 477.415 423.809 480.039 424.749C482.663 425.688 484.817 427.292 486.501 429.559L486.695 429.559L486.695 398.269L501.272 398.269L501.272 471.733ZM487.862 448.119C487.862 444.556 486.841 441.673 484.8 439.471C482.76 437.268 479.893 436.167 476.201 436.167C472.508 436.167 469.641 437.268 467.601 439.471C465.56 441.673 464.54 444.556 464.54 448.119C464.54 451.683 465.56 454.565 467.601 456.768C469.641 458.971 472.508 460.072 476.201 460.072C479.893 460.072 482.76 458.971 484.8 456.768C486.841 454.565 487.862 451.683 487.862 448.119Z"/>
<path d="M513.127 424.506L527.703 424.506L527.703 471.733L513.127 471.733L513.127 424.506ZM511.961 409.638C511.961 407.306 512.787 405.314 514.439 403.662C516.091 402.01 518.083 401.184 520.415 401.184C522.747 401.184 524.739 402.01 526.391 403.662C528.043 405.314 528.869 407.306 528.869 409.638C528.869 411.97 528.043 413.962 526.391 415.614C524.739 417.266 522.747 418.092 520.415 418.092C518.083 418.092 516.091 417.266 514.439 415.614C512.787 413.962 511.961 411.97 511.961 409.638Z"/>
<path d="M536.449 448.119C536.449 444.362 537.129 440.961 538.49 437.916C539.85 434.871 541.713 432.264 544.077 430.093C546.442 427.923 549.228 426.255 552.434 425.089C555.641 423.923 559.058 423.34 562.686 423.34C566.314 423.34 569.731 423.923 572.938 425.089C576.145 426.255 578.931 427.923 581.295 430.093C583.66 432.264 585.522 434.871 586.883 437.916C588.243 440.961 588.923 444.362 588.923 448.119C588.923 451.877 588.243 455.278 586.883 458.323C585.522 461.368 583.66 463.975 581.295 466.145C578.931 468.316 576.145 469.984 572.938 471.15C569.731 472.316 566.314 472.899 562.686 472.899C559.058 472.899 555.641 472.316 552.434 471.15C549.228 469.984 546.442 468.316 544.077 466.145C541.713 463.975 539.85 461.368 538.49 458.323C537.129 455.278 536.449 451.877 536.449 448.119ZM551.025 448.119C551.025 451.683 552.046 454.565 554.086 456.768C556.127 458.971 558.994 460.072 562.686 460.072C566.379 460.072 569.246 458.971 571.286 456.768C573.327 454.565 574.347 451.683 574.347 448.119C574.347 444.556 573.327 441.673 571.286 439.471C569.246 437.268 566.379 436.167 562.686 436.167C558.994 436.167 556.127 437.268 554.086 439.471C552.046 441.673 551.025 444.556 551.025 448.119Z"/>
<path d="M597.475 424.506L611.468 424.506L611.468 430.919L611.662 430.919C612.116 430.012 612.764 429.106 613.606 428.199C614.448 427.292 615.452 426.482 616.618 425.769C617.784 425.057 619.113 424.474 620.603 424.02C622.093 423.567 623.712 423.34 625.461 423.34C629.154 423.34 632.134 423.907 634.401 425.04C636.669 426.174 638.434 427.745 639.697 429.753C640.961 431.762 641.819 434.126 642.273 436.847C642.726 439.568 642.953 442.516 642.953 445.69L642.953 471.733L628.377 471.733L628.377 448.605C628.377 447.245 628.328 445.836 628.231 444.378C628.134 442.921 627.842 441.576 627.356 440.345C626.87 439.115 626.125 438.11 625.121 437.333C624.117 436.556 622.676 436.167 620.797 436.167C618.918 436.167 617.396 436.507 616.23 437.187C615.064 437.867 614.173 438.774 613.557 439.908C612.942 441.042 612.537 442.321 612.343 443.747C612.148 445.172 612.051 446.662 612.051 448.217L612.051 471.733L597.475 471.733L597.475 424.506Z"/>
</g>
<path d="M174.204 590.817L668.388 590.817" fill="#ffffff" fill-rule="nonzero" opacity="1" stroke="#000000" stroke-linecap="round" stroke-linejoin="round" stroke-width="46.1716"/>
<path d="M174.204 231.052L582.932 231.052" fill="#ffffff" fill-rule="nonzero" opacity="1" stroke="#000000" stroke-linecap="round" stroke-linejoin="round" stroke-width="46.1716"/>
<path d="M174.204 791.039L528.602 791.039" fill="#ffffff" fill-rule="nonzero" opacity="1" stroke="#000000" stroke-linecap="round" stroke-linejoin="round" stroke-width="46.1716"/>
</g>
</svg>
