<?xml version="1.0" encoding="UTF-8" standalone="no"?>
<!DOCTYPE svg PUBLIC "-//W3C//DTD SVG 1.1//EN" "http://www.w3.org/Graphics/SVG/1.1/DTD/svg11.dtd">
<!-- Created with Vectornator (http://vectornator.io/) -->
<svg height="100%" stroke-miterlimit="10" style="fill-rule:nonzero;clip-rule:evenodd;stroke-linecap:round;stroke-linejoin:round;" version="1.1" viewBox="0 0 1024 1024" width="100%" xml:space="preserve" xmlns="http://www.w3.org/2000/svg" xmlns:vectornator="http://vectornator.io" xmlns:xlink="http://www.w3.org/1999/xlink">
<defs>
<path d="M134.488 324.238L889.512 324.238C942.082 324.238 984.698 366.855 984.698 419.425L984.698 604.575C984.698 657.145 942.082 699.762 889.512 699.762L134.488 699.762C81.9182 699.762 39.3017 657.145 39.3017 604.575L39.3017 419.425C39.3017 366.855 81.9182 324.238 134.488 324.238Z" id="Fill"/>
</defs>
<g id="Button" vectornator:layerName="Button">
<g opacity="1">
<use fill="#dddddd" fill-rule="nonzero" stroke="none" xlink:href="#Fill"/>
<mask height="375.523" id="StrokeMask" maskUnits="userSpaceOnUse" width="945.397" x="39.3017" y="324.238">
<rect fill="#000000" height="375.523" stroke="none" width="945.397" x="39.3017" y="324.238"/>
<use fill="#ffffff" fill-rule="evenodd" stroke="none" xlink:href="#Fill"/>
</mask>
<use fill="none" mask="url(#StrokeMask)" stroke="#adadad" stroke-linecap="butt" stroke-linejoin="round" stroke-width="69.8185" xlink:href="#Fill"/>
</g>
<g fill="#000000" opacity="1" stroke="none">
<path d="M273.486 451.363L314.427 451.363C319.183 451.363 323.965 451.699 328.772 452.372C333.58 453.044 337.896 454.388 341.721 456.404C345.547 458.42 348.648 461.237 351.026 464.855C353.404 468.474 354.593 473.282 354.593 479.278C354.593 485.481 352.861 490.625 349.398 494.709C345.935 498.792 341.36 501.713 335.673 503.471L335.673 503.781C339.292 504.298 342.574 505.306 345.521 506.805C348.467 508.304 351 510.217 353.12 512.543C355.239 514.869 356.868 517.583 358.005 520.685C359.142 523.786 359.711 527.095 359.711 530.61C359.711 536.399 358.47 541.233 355.989 545.11C353.508 548.987 350.303 552.114 346.374 554.492C342.445 556.87 338.025 558.576 333.115 559.61C328.204 560.644 323.319 561.161 318.459 561.161L273.486 561.161L273.486 451.363ZM297.679 495.251L315.203 495.251C317.064 495.251 318.899 495.045 320.708 494.631C322.517 494.217 324.146 493.545 325.593 492.615C327.041 491.684 328.204 490.444 329.082 488.893C329.961 487.342 330.401 485.481 330.401 483.31C330.401 481.036 329.91 479.149 328.927 477.65C327.945 476.151 326.679 474.987 325.128 474.16C323.577 473.333 321.819 472.739 319.855 472.377C317.891 472.015 315.978 471.834 314.117 471.834L297.679 471.834L297.679 495.251ZM297.679 540.69L319.39 540.69C321.251 540.69 323.138 540.483 325.05 540.07C326.963 539.656 328.695 538.932 330.246 537.898C331.796 536.865 333.063 535.521 334.045 533.866C335.027 532.212 335.518 530.196 335.518 527.818C335.518 525.234 334.872 523.14 333.58 521.537C332.287 519.935 330.659 518.72 328.695 517.893C326.73 517.066 324.611 516.497 322.336 516.187C320.062 515.877 317.942 515.722 315.978 515.722L297.679 515.722L297.679 540.69Z"/>
<path d="M443.609 561.161L421.278 561.161L421.278 550.925L420.968 550.925C420.141 552.373 419.081 553.82 417.789 555.267C416.496 556.715 414.92 558.007 413.059 559.145C411.198 560.282 409.078 561.212 406.7 561.936C404.322 562.66 401.738 563.022 398.946 563.022C393.053 563.022 388.272 562.117 384.601 560.308C380.931 558.498 378.088 555.991 376.072 552.786C374.056 549.581 372.712 545.808 372.04 541.465C371.368 537.123 371.032 532.419 371.032 527.353L371.032 485.791L394.294 485.791L394.294 522.701C394.294 524.872 394.371 527.12 394.526 529.447C394.682 531.773 395.147 533.918 395.922 535.882C396.698 537.847 397.887 539.449 399.489 540.69C401.092 541.931 403.392 542.551 406.39 542.551C409.388 542.551 411.818 542.008 413.679 540.923C415.54 539.837 416.961 538.39 417.944 536.58C418.926 534.771 419.572 532.729 419.882 530.455C420.192 528.18 420.347 525.802 420.347 523.321L420.347 485.791L443.609 485.791L443.609 561.161Z"/>
<path d="M511.38 504.401L490.909 504.401L490.909 529.524C490.909 531.592 491.012 533.479 491.219 535.185C491.426 536.89 491.891 538.364 492.615 539.604C493.339 540.845 494.45 541.801 495.949 542.473C497.448 543.145 499.438 543.481 501.92 543.481C503.16 543.481 504.789 543.352 506.805 543.094C508.821 542.835 510.346 542.241 511.38 541.31L511.38 560.695C508.795 561.626 506.107 562.246 503.315 562.556C500.524 562.866 497.784 563.022 495.096 563.022C491.168 563.022 487.549 562.608 484.241 561.781C480.932 560.954 478.037 559.636 475.556 557.826C473.075 556.017 471.136 553.665 469.741 550.77C468.345 547.875 467.647 544.36 467.647 540.225L467.647 504.401L452.759 504.401L452.759 485.791L467.647 485.791L467.647 463.46L490.909 463.46L490.909 485.791L511.38 485.791L511.38 504.401Z"/>
<path d="M574.497 504.401L554.027 504.401L554.027 529.524C554.027 531.592 554.13 533.479 554.337 535.185C554.544 536.89 555.009 538.364 555.733 539.604C556.456 540.845 557.568 541.801 559.067 542.473C560.566 543.145 562.556 543.481 565.038 543.481C566.278 543.481 567.907 543.352 569.923 543.094C571.939 542.835 573.464 542.241 574.497 541.31L574.497 560.695C571.913 561.626 569.225 562.246 566.433 562.556C563.642 562.866 560.902 563.022 558.214 563.022C554.285 563.022 550.667 562.608 547.358 561.781C544.05 560.954 541.155 559.636 538.674 557.826C536.193 556.017 534.254 553.665 532.858 550.77C531.463 547.875 530.765 544.36 530.765 540.225L530.765 504.401L515.877 504.401L515.877 485.791L530.765 485.791L530.765 463.46L554.027 463.46L554.027 485.791L574.497 485.791L574.497 504.401Z"/>
<path d="M583.492 523.476C583.492 517.48 584.578 512.052 586.749 507.193C588.92 502.333 591.892 498.172 595.666 494.709C599.44 491.245 603.885 488.583 609.003 486.722C614.121 484.861 619.574 483.93 625.364 483.93C631.154 483.93 636.607 484.861 641.725 486.722C646.843 488.583 651.288 491.245 655.062 494.709C658.835 498.172 661.808 502.333 663.979 507.193C666.15 512.052 667.236 517.48 667.236 523.476C667.236 529.472 666.15 534.9 663.979 539.759C661.808 544.619 658.835 548.78 655.062 552.243C651.288 555.707 646.843 558.369 641.725 560.23C636.607 562.091 631.154 563.022 625.364 563.022C619.574 563.022 614.121 562.091 609.003 560.23C603.885 558.369 599.44 555.707 595.666 552.243C591.892 548.78 588.92 544.619 586.749 539.759C584.578 534.9 583.492 529.472 583.492 523.476ZM606.754 523.476C606.754 529.162 608.383 533.763 611.639 537.278C614.896 540.793 619.471 542.551 625.364 542.551C631.257 542.551 635.832 540.793 639.089 537.278C642.345 533.763 643.974 529.162 643.974 523.476C643.974 517.79 642.345 513.189 639.089 509.674C635.832 506.159 631.257 504.401 625.364 504.401C619.471 504.401 614.896 506.159 611.639 509.674C608.383 513.189 606.754 517.79 606.754 523.476Z"/>
<path d="M680.883 485.791L703.214 485.791L703.214 496.027L703.525 496.027C704.248 494.579 705.282 493.132 706.626 491.684C707.97 490.237 709.573 488.945 711.434 487.807C713.295 486.67 715.414 485.74 717.792 485.016C720.17 484.292 722.755 483.93 725.546 483.93C731.439 483.93 736.195 484.835 739.813 486.644C743.432 488.454 746.249 490.961 748.265 494.166C750.281 497.371 751.651 501.144 752.375 505.487C753.099 509.829 753.461 514.533 753.461 519.599L753.461 561.161L730.198 561.161L730.198 524.251C730.198 522.08 730.121 519.832 729.966 517.505C729.811 515.179 729.345 513.034 728.57 511.07C727.795 509.105 726.606 507.503 725.003 506.262C723.401 505.021 721.1 504.401 718.102 504.401C715.104 504.401 712.674 504.944 710.813 506.029C708.952 507.115 707.531 508.562 706.549 510.372C705.566 512.181 704.92 514.223 704.61 516.497C704.3 518.772 704.145 521.15 704.145 523.631L704.145 561.161L680.883 561.161L680.883 485.791Z"/>
</g>
<path d="M739.039 780.231L687.605 827.661C685.888 829.266 683.395 829.695 681.242 828.772C679.09 827.843 677.696 825.714 677.696 823.374L677.696 629.31C677.696 626.969 679.084 624.852 681.236 623.917C683.371 622.982 685.882 623.411 687.593 625.011L828.731 756.739C830.424 758.327 831.036 760.767 830.277 762.961C829.519 765.16 827.537 766.701 825.226 766.901L756.682 773.334C756.682 773.334 751.384 773.628 746.973 775.352C742.562 777.076 739.039 780.231 739.039 780.231Z" fill="#000000" fill-rule="nonzero" opacity="1" stroke="none" vectornator:layerName="path"/>
</g>
</svg>
