<?xml version="1.0" encoding="UTF-8" standalone="no"?>
<!DOCTYPE svg PUBLIC "-//W3C//DTD SVG 1.1//EN" "http://www.w3.org/Graphics/SVG/1.1/DTD/svg11.dtd">
<!-- Created with Vectornator (http://vectornator.io/) -->
<svg height="100%" stroke-miterlimit="10" style="fill-rule:nonzero;clip-rule:evenodd;stroke-linecap:round;stroke-linejoin:round;" version="1.1" viewBox="0 0 1024 1024" width="100%" xml:space="preserve" xmlns="http://www.w3.org/2000/svg" xmlns:vectornator="http://vectornator.io" xmlns:xlink="http://www.w3.org/1999/xlink">
<defs/>
<g id="Checkbox" vectornator:layerName="Checkbox">
<g opacity="1">
<path d="M248.253 126.286L775.747 126.286C843.107 126.286 897.714 180.893 897.714 248.253L897.714 775.747C897.714 843.107 843.107 897.714 775.747 897.714L248.253 897.714C180.893 897.714 126.286 843.107 126.286 775.747L126.286 248.253C126.286 180.893 180.893 126.286 248.253 126.286Z" fill="#dddddd" fill-rule="nonzero" opacity="1" stroke="none"/>
<path d="M268.079 174.08L755.921 174.08C807.835 174.08 849.92 216.165 849.92 268.079L849.92 755.921C849.92 807.835 807.835 849.92 755.921 849.92L268.079 849.92C216.165 849.92 174.08 807.835 174.08 755.921L174.08 268.079C174.08 216.165 216.165 174.08 268.079 174.08Z" fill="#8b8b8b" fill-rule="nonzero" opacity="1" stroke="none" vectornator:layerName="Rechteck"/>
<path d="M273.07 203.059L750.93 203.059C789.596 203.059 820.941 234.404 820.941 273.07L820.941 750.93C820.941 789.596 789.596 820.941 750.93 820.941L273.07 820.941C234.404 820.941 203.059 789.596 203.059 750.93L203.059 273.07C203.059 234.404 234.404 203.059 273.07 203.059Z" fill="#ffffff" fill-rule="nonzero" opacity="1" stroke="none"/>
<path d="M244.391 537.231L346.215 642.962L424.909 724.676L781.074 362.462L742.392 322.295L426.394 645.827L284.558 498.548L244.391 537.231Z" fill="#000000" fill-rule="nonzero" opacity="1" stroke="none"/>
</g>
</g>
</svg>
