<?xml version="1.0" encoding="UTF-8" standalone="no"?>
<!DOCTYPE svg PUBLIC "-//W3C//DTD SVG 1.1//EN" "http://www.w3.org/Graphics/SVG/1.1/DTD/svg11.dtd">
<!-- Created with Vectornator (http://vectornator.io/) -->
<svg height="100%" stroke-miterlimit="10" style="fill-rule:nonzero;clip-rule:evenodd;stroke-linecap:round;stroke-linejoin:round;" version="1.1" viewBox="0 0 1024 1024" width="100%" xml:space="preserve" xmlns="http://www.w3.org/2000/svg" xmlns:vectornator="http://vectornator.io" xmlns:xlink="http://www.w3.org/1999/xlink">
<defs/>
<g id="Combobox" vectornator:layerName="Combobox">
<path d="M151.256 163.334L872.744 163.334C906.27 163.334 933.448 190.512 933.448 224.038L933.448 799.962C933.448 833.488 906.27 860.666 872.744 860.666L151.256 860.666C117.73 860.666 90.5525 833.488 90.5525 799.962L90.5525 224.038C90.5525 190.512 117.73 163.334 151.256 163.334Z" fill="#dddddd" fill-rule="nonzero" opacity="1" stroke="none"/>
<path d="M151.256 163.334L872.744 163.334C906.27 163.334 933.448 190.512 933.448 224.038L933.448 354.222C933.448 387.748 906.27 414.926 872.744 414.926L151.256 414.926C117.73 414.926 90.5525 387.748 90.5525 354.222L90.5525 224.038C90.5525 190.512 117.73 163.334 151.256 163.334Z" fill="#adadad" fill-rule="nonzero" opacity="1" stroke="none"/>
<g opacity="1">
<path d="M180.982 758.947L628.699 758.947" fill="none" opacity="1" stroke="#000000" stroke-linecap="round" stroke-linejoin="round" stroke-width="59.0292"/>
<path d="M180.982 521.726L587.024 521.726" fill="none" opacity="1" stroke="#000000" stroke-linecap="round" stroke-linejoin="round" stroke-width="59.0292"/>
<path d="M180.982 640.336L730.899 640.336" fill="none" opacity="1" stroke="#000000" stroke-linecap="round" stroke-linejoin="round" stroke-width="59.0292"/>
</g>
<path d="M762.096 260.564L812.004 324.481L857.675 260.675" fill="none" opacity="1" stroke="#000000" stroke-linecap="round" stroke-linejoin="round" stroke-width="21.5079"/>
<g fill="#000000" opacity="1" stroke="none">
<path d="M207.722 270.505C206.142 268.582 204.202 267.106 201.902 266.076C199.601 265.046 196.94 264.531 193.919 264.531C190.897 264.531 188.099 265.115 185.524 266.282C182.949 267.449 180.717 269.08 178.828 271.175C176.94 273.269 175.463 275.759 174.399 278.643C173.335 281.527 172.802 284.651 172.802 288.016C172.802 291.45 173.335 294.592 174.399 297.442C175.463 300.291 176.923 302.764 178.777 304.858C180.631 306.952 182.811 308.583 185.318 309.751C187.824 310.918 190.52 311.502 193.404 311.502C196.7 311.502 199.618 310.815 202.159 309.442C204.7 308.068 206.795 306.146 208.443 303.673L221.834 313.665C218.743 317.991 214.829 321.185 210.091 323.245C205.353 325.305 200.477 326.335 195.464 326.335C189.764 326.335 184.511 325.442 179.704 323.657C174.897 321.871 170.742 319.313 167.24 315.983C163.738 312.652 161.008 308.618 159.051 303.879C157.094 299.141 156.115 293.853 156.115 288.016C156.115 282.179 157.094 276.892 159.051 272.153C161.008 267.415 163.738 263.381 167.24 260.05C170.742 256.719 174.897 254.161 179.704 252.376C184.511 250.591 189.764 249.698 195.464 249.698C197.524 249.698 199.67 249.887 201.902 250.264C204.134 250.642 206.331 251.243 208.494 252.067C210.657 252.891 212.735 253.99 214.726 255.363C216.718 256.737 218.503 258.419 220.082 260.411L207.722 270.505Z"/>
<path d="M226.778 299.45C226.778 295.467 227.499 291.862 228.941 288.634C230.383 285.407 232.357 282.643 234.864 280.342C237.37 278.042 240.323 276.274 243.723 275.038C247.122 273.801 250.744 273.183 254.59 273.183C258.435 273.183 262.058 273.801 265.457 275.038C268.856 276.274 271.809 278.042 274.316 280.342C276.822 282.643 278.796 285.407 280.238 288.634C281.681 291.862 282.402 295.467 282.402 299.45C282.402 303.433 281.681 307.038 280.238 310.266C278.796 313.493 276.822 316.257 274.316 318.558C271.809 320.858 268.856 322.627 265.457 323.863C262.058 325.099 258.435 325.717 254.59 325.717C250.744 325.717 247.122 325.099 243.723 323.863C240.323 322.627 237.37 320.858 234.864 318.558C232.357 316.257 230.383 313.493 228.941 310.266C227.499 307.038 226.778 303.433 226.778 299.45ZM242.229 299.45C242.229 303.227 243.311 306.283 245.474 308.618C247.637 310.953 250.676 312.12 254.59 312.12C258.504 312.12 261.543 310.953 263.706 308.618C265.869 306.283 266.951 303.227 266.951 299.45C266.951 295.673 265.869 292.617 263.706 290.283C261.543 287.948 258.504 286.78 254.59 286.78C250.676 286.78 247.637 287.948 245.474 290.283C243.311 292.617 242.229 295.673 242.229 299.45Z"/>
<path d="M291.466 274.419L306.299 274.419L306.299 281.218L306.505 281.218C306.986 280.257 307.673 279.295 308.565 278.334C309.458 277.372 310.523 276.514 311.759 275.759C312.995 275.003 314.402 274.385 315.982 273.904C317.561 273.424 319.278 273.183 321.132 273.183C324.634 273.183 327.742 273.904 330.454 275.347C333.167 276.789 335.21 279.055 336.583 282.145C338.369 278.917 340.532 276.617 343.073 275.244C345.614 273.87 348.738 273.183 352.446 273.183C355.811 273.183 358.644 273.75 360.944 274.883C363.245 276.016 365.065 277.561 366.404 279.518C367.743 281.475 368.704 283.776 369.288 286.42C369.872 289.064 370.163 291.896 370.163 294.918L370.163 324.481L354.712 324.481L354.712 295.33C354.712 292.995 354.215 290.986 353.219 289.304C352.223 287.622 350.455 286.78 347.914 286.78C346.129 286.78 344.635 287.072 343.433 287.656C342.231 288.24 341.27 289.046 340.549 290.077C339.828 291.107 339.313 292.308 339.004 293.682C338.695 295.055 338.54 296.497 338.54 298.008L338.54 324.481L323.089 324.481L323.089 298.008C323.089 297.115 323.055 296.017 322.986 294.712C322.918 293.407 322.677 292.171 322.265 291.004C321.853 289.836 321.184 288.84 320.257 288.016C319.33 287.192 317.973 286.78 316.188 286.78C314.196 286.78 312.583 287.141 311.347 287.862C310.11 288.583 309.166 289.544 308.514 290.746C307.861 291.948 307.432 293.304 307.226 294.815C307.02 296.326 306.917 297.905 306.917 299.553L306.917 324.481L291.466 324.481L291.466 274.419Z"/>
<path d="M382.524 246.608L397.975 246.608L397.975 279.776L398.181 279.776C399.967 277.372 402.25 275.673 405.031 274.677C407.812 273.681 410.817 273.183 414.044 273.183C417.615 273.183 420.809 273.922 423.624 275.398C426.44 276.874 428.826 278.849 430.783 281.321C432.74 283.793 434.251 286.626 435.315 289.819C436.38 293.012 436.912 296.36 436.912 299.862C436.912 303.639 436.328 307.107 435.161 310.266C433.993 313.425 432.328 316.154 430.165 318.455C428.002 320.755 425.409 322.541 422.388 323.811C419.366 325.082 416.002 325.717 412.293 325.717C410.508 325.717 408.825 325.477 407.246 324.996C405.666 324.515 404.207 323.897 402.868 323.142C401.529 322.386 400.362 321.545 399.366 320.618C398.37 319.691 397.563 318.781 396.945 317.888L396.739 317.888L396.739 324.481L382.524 324.481L382.524 246.608ZM396.739 299.45C396.739 303.227 397.821 306.283 399.984 308.618C402.147 310.953 405.186 312.12 409.1 312.12C413.014 312.12 416.053 310.953 418.216 308.618C420.379 306.283 421.461 303.227 421.461 299.45C421.461 295.673 420.379 292.617 418.216 290.283C416.053 287.948 413.014 286.78 409.1 286.78C405.186 286.78 402.147 287.948 399.984 290.283C397.821 292.617 396.739 295.673 396.739 299.45Z"/>
<path d="M444.122 299.45C444.122 295.467 444.843 291.862 446.286 288.634C447.728 285.407 449.702 282.643 452.208 280.342C454.715 278.042 457.668 276.274 461.067 275.038C464.466 273.801 468.089 273.183 471.934 273.183C475.78 273.183 479.402 273.801 482.801 275.038C486.201 276.274 489.154 278.042 491.66 280.342C494.167 282.643 496.141 285.407 497.583 288.634C499.025 291.862 499.746 295.467 499.746 299.45C499.746 303.433 499.025 307.038 497.583 310.266C496.141 313.493 494.167 316.257 491.66 318.558C489.154 320.858 486.201 322.627 482.801 323.863C479.402 325.099 475.78 325.717 471.934 325.717C468.089 325.717 464.466 325.099 461.067 323.863C457.668 322.627 454.715 320.858 452.208 318.558C449.702 316.257 447.728 313.493 446.286 310.266C444.843 307.038 444.122 303.433 444.122 299.45ZM459.573 299.45C459.573 303.227 460.655 306.283 462.818 308.618C464.981 310.953 468.02 312.12 471.934 312.12C475.848 312.12 478.887 310.953 481.05 308.618C483.213 306.283 484.295 303.227 484.295 299.45C484.295 295.673 483.213 292.617 481.05 290.283C478.887 287.948 475.848 286.78 471.934 286.78C468.02 286.78 464.981 287.948 462.818 290.283C460.655 292.617 459.573 295.673 459.573 299.45Z"/>
<path d="M510.253 246.608L525.704 246.608L525.704 279.776L525.91 279.776C527.695 277.372 529.979 275.673 532.76 274.677C535.541 273.681 538.545 273.183 541.773 273.183C545.344 273.183 548.537 273.922 551.353 275.398C554.168 276.874 556.554 278.849 558.511 281.321C560.469 283.793 561.979 286.626 563.044 289.819C564.108 293.012 564.64 296.36 564.64 299.862C564.64 303.639 564.057 307.107 562.889 310.266C561.722 313.425 560.057 316.154 557.893 318.455C555.73 320.755 553.138 322.541 550.116 323.811C547.095 325.082 543.73 325.717 540.022 325.717C538.236 325.717 536.554 325.477 534.974 324.996C533.395 324.515 531.936 323.897 530.597 323.142C529.258 322.386 528.09 321.545 527.094 320.618C526.099 319.691 525.292 318.781 524.674 317.888L524.468 317.888L524.468 324.481L510.253 324.481L510.253 246.608ZM524.468 299.45C524.468 303.227 525.549 306.283 527.712 308.618C529.876 310.953 532.914 312.12 536.829 312.12C540.743 312.12 543.782 310.953 545.945 308.618C548.108 306.283 549.189 303.227 549.189 299.45C549.189 295.673 548.108 292.617 545.945 290.283C543.782 287.948 540.743 286.78 536.829 286.78C532.914 286.78 529.876 287.948 527.712 290.283C525.549 292.617 524.468 295.673 524.468 299.45Z"/>
<path d="M571.851 299.45C571.851 295.467 572.572 291.862 574.014 288.634C575.456 285.407 577.43 282.643 579.937 280.342C582.443 278.042 585.396 276.274 588.796 275.038C592.195 273.801 595.817 273.183 599.663 273.183C603.508 273.183 607.131 273.801 610.53 275.038C613.929 276.274 616.882 278.042 619.389 280.342C621.895 282.643 623.869 285.407 625.311 288.634C626.754 291.862 627.475 295.467 627.475 299.45C627.475 303.433 626.754 307.038 625.311 310.266C623.869 313.493 621.895 316.257 619.389 318.558C616.882 320.858 613.929 322.627 610.53 323.863C607.131 325.099 603.508 325.717 599.663 325.717C595.817 325.717 592.195 325.099 588.796 323.863C585.396 322.627 582.443 320.858 579.937 318.558C577.43 316.257 575.456 313.493 574.014 310.266C572.572 307.038 571.851 303.433 571.851 299.45ZM587.302 299.45C587.302 303.227 588.383 306.283 590.547 308.618C592.71 310.953 595.748 312.12 599.663 312.12C603.577 312.12 606.616 310.953 608.779 308.618C610.942 306.283 612.024 303.227 612.024 299.45C612.024 295.673 610.942 292.617 608.779 290.283C606.616 287.948 603.577 286.78 599.663 286.78C595.748 286.78 592.71 287.948 590.547 290.283C588.383 292.617 587.302 295.673 587.302 299.45Z"/>
<path d="M650.033 297.699L633.346 274.419L651.578 274.419L660.437 288.016L668.986 274.419L686.188 274.419L669.913 297.699L689.176 324.481L670.943 324.481L660.025 307.794L648.282 324.481L630.256 324.481L650.033 297.699Z"/>
</g>
</g>
</svg>
