<?xml version="1.0" encoding="UTF-8" standalone="no"?>
<!DOCTYPE svg PUBLIC "-//W3C//DTD SVG 1.1//EN" "http://www.w3.org/Graphics/SVG/1.1/DTD/svg11.dtd">
<!-- Created with Vectornator (http://vectornator.io/) -->
<svg height="100%" stroke-miterlimit="10" style="fill-rule:nonzero;clip-rule:evenodd;stroke-linecap:round;stroke-linejoin:round;" version="1.1" viewBox="0 0 1024 1024" width="100%" xml:space="preserve" xmlns="http://www.w3.org/2000/svg" xmlns:vectornator="http://vectornator.io" xmlns:xlink="http://www.w3.org/1999/xlink">
<defs/>
<g id="Ebene-6" vectornator:layerName="Ebene 6">
<path d="M328.843 301.724L695.157 301.724C811.29 301.724 905.433 395.868 905.433 512L905.433 512C905.433 628.132 811.29 722.276 695.157 722.276L328.843 722.276C212.71 722.276 118.567 628.132 118.567 512L118.567 512C118.567 395.868 212.71 301.724 328.843 301.724Z" fill="#898989" fill-rule="nonzero" opacity="1" stroke="none"/>
<path d="M530.357 512C530.357 428.703 597.883 361.177 681.181 361.177C764.478 361.177 832.004 428.703 832.004 512C832.004 595.297 764.478 662.823 681.181 662.823C597.883 662.823 530.357 595.297 530.357 512Z" fill="#ffffff" fill-rule="nonzero" opacity="1" stroke="none"/>
</g>
</svg>
