<?xml version="1.0" encoding="UTF-8" standalone="no"?>
<!DOCTYPE svg PUBLIC "-//W3C//DTD SVG 1.1//EN" "http://www.w3.org/Graphics/SVG/1.1/DTD/svg11.dtd">
<!-- Created with Vectornator (http://vectornator.io/) -->
<svg height="100%" stroke-miterlimit="10" style="fill-rule:nonzero;clip-rule:evenodd;stroke-linecap:round;stroke-linejoin:round;" version="1.1" viewBox="0 0 1024 1024" width="100%" xml:space="preserve" xmlns="http://www.w3.org/2000/svg" xmlns:vectornator="http://vectornator.io" xmlns:xlink="http://www.w3.org/1999/xlink">
<defs/>
<g id="Switch" vectornator:layerName="Switch">
<path d="M327.455 512L681.181 512" fill="none" opacity="0" stroke="#5e5e5e" stroke-linecap="butt" stroke-linejoin="round" stroke-width="1.15572" vectornator:layerName="anim-path"/>
<path d="M328.843 301.724L695.157 301.724C811.29 301.724 905.433 395.868 905.433 512L905.433 512C905.433 628.132 811.29 722.276 695.157 722.276L328.843 722.276C212.71 722.276 118.567 628.132 118.567 512L118.567 512C118.567 395.868 212.71 301.724 328.843 301.724Z" fill="#898989" fill-rule="nonzero" opacity="1" stroke="none"/>
<path d="M530.357 512C530.357 428.703 597.883 361.177 681.181 361.177C764.478 361.177 832.004 428.703 832.004 512C832.004 595.297 764.478 662.823 681.181 662.823C597.883 662.823 530.357 595.297 530.357 512Z" fill="#ffffff" fill-rule="nonzero" opacity="1" stroke="none"/>
<path d="M260.188 430.748C256.608 430.748 253.044 432.111 250.312 434.842C244.854 440.301 244.854 449.161 250.312 454.623L307.688 511.998L250.312 569.342C244.85 574.805 244.85 583.661 250.312 589.123C255.771 594.586 264.631 594.586 270.094 589.123L327.438 531.78L384.812 589.155C390.275 594.617 399.131 594.617 404.594 589.155C410.056 583.696 410.056 574.836 404.594 569.373L347.25 511.998L404.594 454.655C410.06 449.192 410.06 440.336 404.594 434.873L404.594 434.842C399.131 429.387 390.275 429.411 384.812 434.873L327.469 492.217L270.094 434.842C267.363 432.111 263.767 430.748 260.188 430.748Z" fill="#5e5e5e" fill-rule="nonzero" opacity="1" stroke="none"/>
<path d="M752.438 431.875C747.51 431.761 742.602 434.021 739.531 438.344L652.438 561.25L610.844 520.844C604.845 514.845 595.124 514.845 589.125 520.844C583.13 526.838 583.13 536.564 589.125 542.562L643.188 595.094C643.36 595.284 643.567 595.442 643.75 595.625C644.351 596.226 644.971 596.804 645.688 597.312C645.819 597.406 645.96 597.474 646.094 597.562C646.191 597.628 646.307 597.656 646.406 597.719C647.183 598.21 647.987 598.663 648.812 599C649.741 599.379 650.692 599.656 651.656 599.844C652.634 600.034 653.608 600.126 654.594 600.125C655.572 600.124 656.542 600.029 657.5 599.844C657.562 599.832 657.626 599.825 657.688 599.812C658.608 599.623 659.501 599.356 660.375 599C661.268 598.637 662.119 598.188 662.938 597.656C663.185 597.496 663.416 597.301 663.656 597.125C664.219 596.711 664.772 596.278 665.281 595.781C665.341 595.724 665.41 595.684 665.469 595.625C665.817 595.277 666.067 594.872 666.375 594.5C666.607 594.218 666.879 593.99 667.094 593.688L667.344 593.312L667.438 593.219C667.451 593.199 667.456 593.176 667.469 593.156L764.594 456.125C769.51 449.208 767.89 439.631 760.969 434.719L760.938 434.719C758.344 432.88 755.394 431.943 752.438 431.875Z" fill="#000000" fill-rule="nonzero" opacity="1" stroke="none"/>
</g>
</svg>
