<?xml version="1.0" encoding="UTF-8" standalone="no"?>
<!DOCTYPE svg PUBLIC "-//W3C//DTD SVG 1.1//EN" "http://www.w3.org/Graphics/SVG/1.1/DTD/svg11.dtd">
<!-- Created with Vectornator (http://vectornator.io/) -->
<svg height="100%" stroke-miterlimit="10" style="fill-rule:nonzero;clip-rule:evenodd;stroke-linecap:round;stroke-linejoin:round;" version="1.1" viewBox="0 0 1024 1024" width="100%" xml:space="preserve" xmlns="http://www.w3.org/2000/svg" xmlns:vectornator="http://vectornator.io" xmlns:xlink="http://www.w3.org/1999/xlink">
<defs/>
<g id="Ebene-1" vectornator:layerName="Ebene 1">
<path d="M421.721 566.68L590.19 566.68C611.479 566.68 628.738 583.939 628.738 605.228L628.738 787.061C628.738 808.35 611.479 825.608 590.19 825.608L421.721 825.608C400.432 825.608 383.174 808.35 383.174 787.061L383.174 605.228C383.174 583.939 400.432 566.68 421.721 566.68Z" fill="#adadad" fill-rule="nonzero" opacity="1" stroke="none"/>
<path d="M421.721 566.68L590.19 566.68C611.479 566.68 628.738 583.939 628.738 605.228L628.738 787.061C628.738 808.35 611.479 825.608 590.19 825.608L421.721 825.608C400.432 825.608 383.174 808.35 383.174 787.061L383.174 605.228C383.174 583.939 400.432 566.68 421.721 566.68Z" fill="#ffffff" fill-rule="nonzero" opacity="0" stroke="#000000" stroke-linecap="butt" stroke-linejoin="bevel" stroke-width="37.155"/>
<g opacity="1">
<path d="M482.221 770.297C482.221 759.941 490.615 751.547 500.971 751.547C511.326 751.547 519.721 759.941 519.721 770.297C519.721 780.652 511.326 789.047 500.971 789.047C490.615 789.047 482.221 780.652 482.221 770.297Z" fill="#000000" fill-rule="nonzero" opacity="1" stroke="none"/>
<path d="M458.277 652.689C458.277 652.689 468.328 619.663 505.663 619.663C542.997 619.663 563.46 665.972 520.022 684.28C495.709 694.528 499.56 721.615 499.56 721.615" fill="none" opacity="1" stroke="#000000" stroke-linecap="round" stroke-linejoin="bevel" stroke-width="37.155"/>
</g>
<path d="M113.775 249.995L910.225 249.995C941.879 249.995 967.539 275.655 967.539 307.309L967.539 427.334C967.539 458.987 941.879 484.647 910.225 484.647L599.741 484.647L507.338 567.848L418.386 484.647L113.775 484.647C82.1213 484.647 56.4611 458.987 56.4611 427.334L56.4611 307.309C56.4611 275.655 82.1213 249.995 113.775 249.995Z" fill="#000000" fill-rule="nonzero" opacity="1" stroke="none"/>
<g fill="#ffffff" opacity="1" stroke="none">
<path d="M300.503 339.787L272.027 339.787L272.027 320.334L350.968 320.334L350.968 339.787L322.493 339.787L322.493 420.138L300.503 420.138L300.503 339.787Z"/>
<path d="M341.242 385.883C341.242 380.433 342.228 375.499 344.202 371.082C346.175 366.665 348.877 362.882 352.307 359.734C355.737 356.586 359.778 354.166 364.43 352.474C369.082 350.783 374.039 349.937 379.302 349.937C384.565 349.937 389.522 350.783 394.174 352.474C398.826 354.166 402.867 356.586 406.297 359.734C409.727 362.882 412.429 366.665 414.403 371.082C416.376 375.499 417.363 380.433 417.363 385.883C417.363 391.334 416.376 396.268 414.403 400.685C412.429 405.101 409.727 408.884 406.297 412.032C402.867 415.18 398.826 417.6 394.174 419.292C389.522 420.984 384.565 421.829 379.302 421.829C374.039 421.829 369.082 420.984 364.43 419.292C359.778 417.6 355.737 415.18 352.307 412.032C348.877 408.884 346.175 405.101 344.202 400.685C342.228 396.268 341.242 391.334 341.242 385.883ZM362.386 385.883C362.386 391.052 363.866 395.234 366.827 398.429C369.787 401.624 373.945 403.222 379.302 403.222C384.659 403.222 388.817 401.624 391.778 398.429C394.738 395.234 396.218 391.052 396.218 385.883C396.218 380.714 394.738 376.532 391.778 373.337C388.817 370.142 384.659 368.544 379.302 368.544C373.945 368.544 369.787 370.142 366.827 373.337C363.866 376.532 362.386 380.714 362.386 385.883Z"/>
<path d="M427.23 385.883C427.23 380.433 428.217 375.499 430.191 371.082C432.164 366.665 434.866 362.882 438.296 359.734C441.726 356.586 445.767 354.166 450.419 352.474C455.071 350.783 460.028 349.937 465.291 349.937C470.554 349.937 475.511 350.783 480.163 352.474C484.815 354.166 488.856 356.586 492.286 359.734C495.716 362.882 498.418 366.665 500.391 371.082C502.365 375.499 503.352 380.433 503.352 385.883C503.352 391.334 502.365 396.268 500.391 400.685C498.418 405.101 495.716 408.884 492.286 412.032C488.856 415.18 484.815 417.6 480.163 419.292C475.511 420.984 470.554 421.829 465.291 421.829C460.028 421.829 455.071 420.984 450.419 419.292C445.767 417.6 441.726 415.18 438.296 412.032C434.866 408.884 432.164 405.101 430.191 400.685C428.217 396.268 427.23 391.334 427.23 385.883ZM448.375 385.883C448.375 391.052 449.855 395.234 452.816 398.429C455.776 401.624 459.934 403.222 465.291 403.222C470.648 403.222 474.806 401.624 477.767 398.429C480.727 395.234 482.207 391.052 482.207 385.883C482.207 380.714 480.727 376.532 477.767 373.337C474.806 370.142 470.648 368.544 465.291 368.544C459.934 368.544 455.776 370.142 452.816 373.337C449.855 376.532 448.375 380.714 448.375 385.883Z"/>
<path d="M516.039 313.568L537.183 313.568L537.183 420.138L516.039 420.138L516.039 313.568Z"/>
<path d="M599.067 368.544L580.46 368.544L580.46 391.381C580.46 393.26 580.554 394.975 580.742 396.526C580.93 398.077 581.353 399.416 582.01 400.544C582.668 401.671 583.679 402.541 585.041 403.151C586.404 403.762 588.213 404.068 590.468 404.068C591.596 404.068 593.076 403.95 594.909 403.715C596.741 403.48 598.128 402.94 599.067 402.094L599.067 419.715C596.718 420.561 594.274 421.125 591.737 421.406C589.2 421.688 586.709 421.829 584.266 421.829C580.695 421.829 577.406 421.453 574.398 420.702C571.391 419.95 568.76 418.752 566.504 417.107C564.249 415.462 562.487 413.324 561.218 410.693C559.949 408.062 559.315 404.867 559.315 401.107L559.315 368.544L545.782 368.544L545.782 351.629L559.315 351.629L559.315 331.33L580.46 331.33L580.46 351.629L599.067 351.629L599.067 368.544Z"/>
<path d="M610.063 351.629L631.207 351.629L631.207 420.138L610.063 420.138L610.063 351.629ZM608.371 330.061C608.371 326.678 609.569 323.788 611.966 321.391C614.362 318.995 617.252 317.797 620.635 317.797C624.018 317.797 626.908 318.995 629.304 321.391C631.701 323.788 632.899 326.678 632.899 330.061C632.899 333.444 631.701 336.334 629.304 338.73C626.908 341.127 624.018 342.325 620.635 342.325C617.252 342.325 614.362 341.127 611.966 338.73C609.569 336.334 608.371 333.444 608.371 330.061Z"/>
<path d="M648.405 351.629L667.858 351.629L667.858 360.65L668.14 360.65C668.986 359.429 670.09 358.183 671.453 356.915C672.816 355.646 674.413 354.495 676.246 353.461C678.078 352.427 680.075 351.582 682.237 350.924C684.398 350.266 686.701 349.937 689.144 349.937C694.219 349.937 698.824 350.806 702.959 352.545C707.094 354.283 710.641 356.727 713.602 359.875C716.562 363.023 718.841 366.759 720.439 371.082C722.036 375.405 722.835 380.151 722.835 385.319C722.835 390.112 722.107 394.694 720.65 399.063C719.193 403.433 717.126 407.31 714.447 410.693C711.769 414.076 708.503 416.778 704.65 418.799C700.797 420.819 696.427 421.829 691.541 421.829C687.124 421.829 683.012 421.148 679.206 419.785C675.4 418.423 672.275 416.097 669.832 412.808L669.55 412.808L669.55 452.278L648.405 452.278L648.405 351.629ZM667.858 385.883C667.858 391.052 669.339 395.234 672.299 398.429C675.259 401.624 679.418 403.222 684.774 403.222C690.131 403.222 694.289 401.624 697.25 398.429C700.21 395.234 701.69 391.052 701.69 385.883C701.69 380.714 700.21 376.532 697.25 373.337C694.289 370.142 690.131 368.544 684.774 368.544C679.418 368.544 675.259 370.142 672.299 373.337C669.339 376.532 667.858 380.714 667.858 385.883Z"/>
</g>
</g>
</svg>
