<?xml version="1.0" encoding="UTF-8" standalone="no"?>
<!DOCTYPE svg PUBLIC "-//W3C//DTD SVG 1.1//EN" "http://www.w3.org/Graphics/SVG/1.1/DTD/svg11.dtd">
<!-- Created with Vectornator (http://vectornator.io/) -->
<svg height="100%" stroke-miterlimit="10" style="fill-rule:nonzero;clip-rule:evenodd;stroke-linecap:round;stroke-linejoin:round;" version="1.1" viewBox="0 0 1024 1024" width="100%" xml:space="preserve" xmlns="http://www.w3.org/2000/svg" xmlns:vectornator="http://vectornator.io" xmlns:xlink="http://www.w3.org/1999/xlink">
<defs/>
<g id="Ebene-4" vectornator:layerName="Ebene 4">
<path d="M512 83.9294C275.583 83.9294 83.9295 275.583 83.9294 512C83.9294 748.417 275.583 940.071 512 940.071C748.417 940.071 940.071 748.417 940.071 512C940.071 275.583 748.417 83.9294 512 83.9294Z" fill="none" opacity="1" stroke="#000000" stroke-linecap="round" stroke-linejoin="round" stroke-width="37.3411" vectornator:layerName="path"/>
<path d="M512 190.947C479.759 190.947 453.627 217.079 453.627 249.32C453.627 281.562 479.759 307.694 512 307.694C544.241 307.694 570.373 281.562 570.373 249.32C570.373 217.079 544.241 190.947 512 190.947Z" fill="none" opacity="1" stroke="#000000" stroke-linecap="round" stroke-linejoin="miter" stroke-width="37.3411"/>
<path d="M747.305 335.156C745.678 335.321 744.052 335.648 742.43 336.156L576.336 388.124L446.774 390.187L288.461 340.656C275.488 336.598 261.676 343.838 257.618 356.812C253.56 369.785 260.769 383.598 273.743 387.656L407.757 429.554C407.757 429.554 415.599 432.144 420.843 438.72C426.087 445.296 428.733 455.858 428.733 455.858L432.147 568.026C432.147 568.026 433.141 581.38 431.486 594.808C429.831 608.236 425.527 621.738 425.527 621.738L377.743 787.687C372.713 805.147 382.782 823.376 400.243 828.406C417.703 833.436 435.932 823.366 440.961 805.906L496.211 614.031C497.781 608.581 501.462 597.515 506.571 597.937C511.681 598.359 514.908 609.675 516.649 615.718L571.899 807.593C576.929 825.054 595.157 835.123 612.618 830.093C630.078 825.063 640.179 806.835 635.149 789.374L586.222 619.553C586.222 619.553 583.096 605.943 581.625 593.231C580.155 580.52 580.34 568.706 580.34 568.706C580.34 568.706 582.4 456.425 582.4 456.425C582.4 456.425 583.791 444.39 589.231 437.701C594.671 431.012 604.16 429.669 604.16 429.669L757.118 383.156C770.091 379.098 777.301 365.285 773.243 352.312C769.692 340.96 758.695 333.998 747.305 335.156Z" fill="none" opacity="1" stroke="#000000" stroke-linecap="butt" stroke-linejoin="miter" stroke-width="37.3411"/>
</g>
</svg>
