<?xml version="1.0" encoding="UTF-8" standalone="no"?>
<!DOCTYPE svg PUBLIC "-//W3C//DTD SVG 1.1//EN" "http://www.w3.org/Graphics/SVG/1.1/DTD/svg11.dtd">
<!-- Created with Vectornator (http://vectornator.io/) -->
<svg height="100%" stroke-miterlimit="10" style="fill-rule:nonzero;clip-rule:evenodd;stroke-linecap:round;stroke-linejoin:round;" version="1.1" viewBox="0 0 1024 1024" width="100%" xml:space="preserve" xmlns="http://www.w3.org/2000/svg" xmlns:vectornator="http://vectornator.io" xmlns:xlink="http://www.w3.org/1999/xlink">
<defs/>
<g id="Ebene-5" vectornator:layerName="Ebene 5">
<path d="M114.652 388.008L909.348 388.008C942.101 388.008 968.652 414.559 968.652 447.312L968.652 592.513C968.652 625.266 942.101 651.817 909.348 651.817L114.652 651.817C81.8988 651.817 55.3475 625.266 55.3475 592.513L55.3475 447.312C55.3475 414.559 81.8988 388.008 114.652 388.008Z" fill="#dddddd" fill-rule="nonzero" opacity="1" stroke="none"/>
<g opacity="1">
<path d="M788.749 476.42L875.735 563.405" fill="none" opacity="1" stroke="#000000" stroke-linecap="butt" stroke-linejoin="bevel" stroke-width="24.6313"/>
<path d="M875.735 476.42L788.749 563.405" fill="none" opacity="1" stroke="#000000" stroke-linecap="butt" stroke-linejoin="bevel" stroke-width="24.6313"/>
</g>
<g fill="#000000" opacity="1" stroke="none">
<path d="M167.67 472.451L183.329 472.451L220.715 558.391L199.351 558.391L191.947 540.184L158.566 540.184L151.405 558.391L130.527 558.391L167.67 472.451ZM174.953 497.457L164.514 524.161L185.514 524.161L174.953 497.457Z"/>
<path d="M227.27 466.625L245.477 466.625L245.477 558.391L227.27 558.391L227.27 466.625Z"/>
<path d="M314.423 548.195C311.51 551.917 307.828 554.79 303.378 556.813C298.927 558.836 294.314 559.848 289.54 559.848C285.008 559.848 280.739 559.12 276.734 557.663C272.728 556.206 269.248 554.123 266.295 551.412C263.341 548.701 261.015 545.444 259.315 541.64C257.616 537.837 256.766 533.588 256.766 528.895C256.766 524.201 257.616 519.953 259.315 516.15C261.015 512.346 263.341 509.089 266.295 506.378C269.248 503.667 272.728 501.584 276.734 500.127C280.739 498.67 285.008 497.942 289.54 497.942C293.748 497.942 297.571 498.67 301.011 500.127C304.45 501.584 307.363 503.667 309.75 506.378C312.137 509.089 313.978 512.346 315.273 516.15C316.568 519.953 317.215 524.201 317.215 528.895L317.215 534.6L274.974 534.6C275.702 538.08 277.28 540.851 279.708 542.915C282.135 544.978 285.129 546.01 288.69 546.01C291.684 546.01 294.213 545.342 296.277 544.007C298.34 542.672 300.141 540.952 301.678 538.848L314.423 548.195ZM299.008 522.219C299.089 519.144 298.077 516.514 295.973 514.329C293.869 512.144 291.158 511.052 287.84 511.052C285.817 511.052 284.037 511.375 282.499 512.023C280.962 512.67 279.647 513.499 278.555 514.511C277.462 515.523 276.612 516.696 276.005 518.031C275.399 519.366 275.055 520.762 274.974 522.219L299.008 522.219Z"/>
<path d="M328.261 499.399L346.469 499.399L346.469 508.867L346.712 508.867C348.654 505.225 350.96 502.494 353.63 500.673C356.301 498.852 359.659 497.942 363.705 497.942C364.757 497.942 365.809 497.983 366.861 498.063C367.913 498.144 368.884 498.306 369.775 498.549L369.775 515.179C368.48 514.774 367.205 514.471 365.951 514.268C364.697 514.066 363.382 513.965 362.006 513.965C358.526 513.965 355.775 514.45 353.752 515.421C351.729 516.392 350.171 517.748 349.079 519.488C347.986 521.228 347.278 523.311 346.954 525.739C346.631 528.167 346.469 530.837 346.469 533.75L346.469 558.391L328.261 558.391L328.261 499.399Z"/>
<path d="M417.843 513.965L401.82 513.965L401.82 533.629C401.82 535.247 401.901 536.724 402.063 538.059C402.225 539.395 402.589 540.548 403.155 541.519C403.722 542.49 404.592 543.239 405.765 543.765C406.938 544.291 408.496 544.554 410.438 544.554C411.409 544.554 412.684 544.452 414.262 544.25C415.84 544.048 417.033 543.582 417.843 542.854L417.843 558.027C415.82 558.755 413.716 559.241 411.531 559.484C409.346 559.726 407.201 559.848 405.097 559.848C402.022 559.848 399.19 559.524 396.6 558.877C394.011 558.229 391.745 557.198 389.803 555.782C387.861 554.365 386.343 552.524 385.251 550.259C384.159 547.993 383.612 545.241 383.612 542.004L383.612 513.965L371.959 513.965L371.959 499.399L383.612 499.399L383.612 481.919L401.82 481.919L401.82 499.399L417.843 499.399L417.843 513.965Z"/>
</g>
</g>
</svg>
