<?xml version="1.0" encoding="UTF-8" standalone="no"?>
<!DOCTYPE svg PUBLIC "-//W3C//DTD SVG 1.1//EN" "http://www.w3.org/Graphics/SVG/1.1/DTD/svg11.dtd">
<!-- Created with Vectornator (http://vectornator.io/) -->
<svg height="100%" stroke-miterlimit="10" style="fill-rule:nonzero;clip-rule:evenodd;stroke-linecap:round;stroke-linejoin:round;" version="1.1" viewBox="0 0 1024 1024" width="100%" xml:space="preserve" xmlns="http://www.w3.org/2000/svg" xmlns:vectornator="http://vectornator.io" xmlns:xlink="http://www.w3.org/1999/xlink">
<defs/>
<g id="Ebene-3" vectornator:layerName="Ebene 3">
<g opacity="1">
<path d="M123.001 813.897C123.001 673.585 335.676 613.537 577.383 613.537C819.089 613.537 1029.61 664.195 982.458 822.924C935.31 981.654 803.434 1008.83 561.727 1008.83C320.021 1008.83 123.001 954.208 123.001 813.897Z" fill="#fddf19" fill-rule="nonzero" opacity="1" stroke="#a48a1d" stroke-linecap="butt" stroke-linejoin="bevel" stroke-width="19.2531"/>
<path d="M280.761 649.955C242.413 629.822 148.911 657.125 107.687 575.635C66.4626 494.145 61.9918 396.063 63.9092 340.458C65.8266 284.853 115.152 206.071 153.501 206.071C191.849 206.071 231.131 282.987 226.337 319.418C219.324 372.723 217.709 394.436 232.09 425.834C246.47 457.231 274.272 484.315 295.364 480.48C316.455 476.645 319.109 670.088 280.761 649.955Z" fill="#68c40c" fill-rule="nonzero" opacity="1" stroke="#306726" stroke-linecap="round" stroke-linejoin="bevel" stroke-width="19.2531"/>
<path d="M503.998 328.596C543.305 310.38 579.99 280.237 590.536 222.715C601.081 165.193 622.257 101.037 657.729 76.111C693.201 51.1848 744.266 148.547 744.266 200.317C744.266 256.347 742.714 283.757 734.085 365.247C725.457 446.736 515.197 585.152 515.197 585.152C515.197 585.152 454.41 351.576 503.998 328.596Z" fill="#68c40c" fill-rule="nonzero" opacity="1" stroke="#306726" stroke-linecap="round" stroke-linejoin="bevel" stroke-width="19.2531"/>
<path d="M316.394 901.421C377.479 911.602 456.889 915.675 510.848 900.403C586.93 878.871 553.607 746.673 552.589 667.262C551.571 587.852 535.456 415.46 530.191 343.512C524.083 260.029 506.775 9.58089 416.166 15.6894C325.557 21.7979 270.58 131.751 273.634 344.53C276.689 557.309 279.743 680.497 279.743 680.497C279.743 680.497 277.904 895.006 316.394 901.421Z" fill="#70cf11" fill-rule="nonzero" opacity="1" stroke="#306726" stroke-linecap="round" stroke-linejoin="bevel" stroke-width="19.2531"/>
<path d="M354.063 905.494C354.063 905.494 348.972 791.468 351.009 732.42C353.045 673.371 340.319 583.016 338.792 465.682C337.264 348.348 341.489 312.884 344.9 263.084C349.991 188.763 360.171 40.1234 360.171 40.1234" fill="#68c40c" fill-rule="nonzero" opacity="1" stroke="#306726" stroke-linecap="round" stroke-linejoin="bevel" stroke-width="19.2531"/>
<path d="M422.789 20.6008C422.789 20.6008 416.42 187.491 412.094 373.036C407.767 558.582 416.166 677.443 418.202 764.998C420.238 852.553 422.274 905.494 422.274 905.494" fill="#68c40c" fill-rule="nonzero" opacity="1" stroke="#306726" stroke-linecap="round" stroke-linejoin="bevel" stroke-width="19.2531"/>
<path d="M493.54 110.371C473.179 252.903 485.396 366.928 489.468 578.689C493.207 773.108 493.54 901.421 493.54 901.421" fill="#68c40c" fill-rule="nonzero" opacity="1" stroke="#306726" stroke-linecap="round" stroke-linejoin="bevel" stroke-width="19.2531"/>
<path d="M272.616 598.033C272.616 598.033 165.718 567.49 140.265 501.315C114.813 435.14 93.4336 271.228 93.4336 271.228" fill="#68c40c" fill-rule="nonzero" opacity="1" stroke="#306726" stroke-linecap="round" stroke-linejoin="bevel" stroke-width="19.2531"/>
<path d="M548.096 469.601C548.096 469.601 621.563 448.168 659.852 396.717C698.141 345.265 742.454 202.359 742.454 202.359" fill="#68c40c" fill-rule="nonzero" opacity="1" stroke="#306726" stroke-linecap="round" stroke-linejoin="bevel" stroke-width="19.2531"/>
<path d="M689.977 92.5466C689.977 92.5466 678.206 204.86 641.388 280.102C602.933 358.689 547.986 389.394 542.265 389.914" fill="#68c40c" fill-rule="nonzero" opacity="1" stroke="#306726" stroke-linecap="round" stroke-linejoin="bevel" stroke-width="19.2531"/>
<path d="M166.736 221.342C166.736 221.342 141.538 340.712 169.79 412.742C198.042 484.771 268.544 532.875 268.544 532.875" fill="none" opacity="1" stroke="#306726" stroke-linecap="round" stroke-linejoin="bevel" stroke-width="19.2531"/>
<path d="M261.003 317.461C276.709 309.033 361.37 292.56 361.37 292.56C361.37 292.56 382.056 294.093 387.802 293.71C393.549 293.327 410.021 290.262 410.021 290.262L432.24 284.899L513.836 266.511C513.836 266.511 528.393 263.063 534.522 268.043C540.651 273.023 541.417 294.859 541.417 294.859C541.417 294.859 534.139 301.371 527.243 302.521C520.348 303.67 542.184 348.107 523.03 358.833C503.876 369.56 447.946 373.773 439.901 373.007C431.857 372.241 423.429 355.003 416.916 345.042C410.404 335.082 419.981 312.098 403.509 316.695C387.036 321.291 392.016 339.679 389.335 347.341C386.653 355.003 396.613 374.923 378.991 377.604C361.37 380.286 313.868 399.823 301.226 387.181C288.585 374.54 280.923 341.212 280.923 341.212L262.918 336.615C262.918 336.615 245.297 325.888 261.003 317.461Z" fill="#242424" fill-rule="nonzero" opacity="1" stroke="#000000" stroke-linecap="butt" stroke-linejoin="bevel" stroke-width="19.2531"/>
<path d="M313.9 454.873C368.944 491.747 474.262 478.873 513.234 451.666" fill="none" opacity="1" stroke="#296f1c" stroke-linecap="butt" stroke-linejoin="bevel" stroke-width="19.2531"/>
<path d="M235.496 846.396C246.831 843.562 257.892 841.837 269.469 840.734C273.801 840.322 277.371 838.293 279.535 842.622" fill="none" opacity="1" stroke="#306726" stroke-linecap="round" stroke-linejoin="bevel" stroke-width="19.2531"/>
<path d="M151.192 669.61C150.982 669.19 150.346 668.768 150.563 668.352C153.168 663.342 156.587 658.794 159.37 653.881C162.402 648.532 163.814 642.504 167.549 637.524" fill="none" opacity="1" stroke="#306726" stroke-linecap="round" stroke-linejoin="bevel" stroke-width="19.2531"/>
<path d="M44.9269 498.11C42.6483 501.528 46.1952 502.201 49.3308 502.514C52.4678 502.828 55.6289 502.849 58.7678 503.144C65.5821 503.782 71.1177 505.202 77.6418 506.289" fill="none" opacity="1" stroke="#306726" stroke-linecap="round" stroke-linejoin="bevel" stroke-width="19.2531"/>
<path d="M31.6563 260.673C39.263 268.28 47.6752 275.676 56.1925 282.064C59.2454 284.353 60.8764 287.237 64.3713 288.984" fill="none" opacity="1" stroke="#306726" stroke-linecap="round" stroke-linejoin="bevel" stroke-width="19.2531"/>
<path d="M171.324 219.15C171.324 216.705 173.369 214.588 175.099 212.859" fill="none" opacity="1" stroke="#306726" stroke-linecap="round" stroke-linejoin="bevel" stroke-width="19.2531"/>
<path d="M178.244 213.488C179.712 204.684 192.925 192.516 199.006 186.435" fill="none" opacity="1" stroke="#306726" stroke-linecap="round" stroke-linejoin="bevel" stroke-width="19.2531"/>
<path d="M267.581 237.395C265.207 235.021 261.949 234.486 258.774 233.62C253.326 232.135 247.825 230.839 242.416 229.216C237.682 227.796 233 225.137 228.575 222.925" fill="none" opacity="1" stroke="#306726" stroke-linecap="round" stroke-linejoin="bevel" stroke-width="19.2531"/>
<path d="M298.323 30.5838C295.022 30.5838 299.99 38.3608 300.216 38.785C302.609 43.2728 304.993 47.7825 307.786 52.0331C309.891 55.2367 315.916 65.2812 321.034 65.2812" fill="none" opacity="1" stroke="#306726" stroke-linecap="round" stroke-linejoin="bevel" stroke-width="19.2531"/>
<path d="M485.058 76.6367C494.379 68.4808 503.861 60.5069 513.447 52.6639C515.486 50.9954 517.83 49.5178 520.387 48.8788" fill="none" opacity="1" stroke="#306726" stroke-linecap="round" stroke-linejoin="bevel" stroke-width="19.2531"/>
<path d="M520.387 210.379C519.589 210.778 517.628 212.056 518.494 212.272C523.786 213.595 528.465 207.728 533.004 204.702C540.645 199.607 545.485 195.307 553.191 191.454" fill="none" opacity="1" stroke="#306726" stroke-linecap="round" stroke-linejoin="bevel" stroke-width="19.2531"/>
<path d="M613.123 118.274C606.731 108.685 593.075 101.38 584.734 93.0391" fill="none" opacity="1" stroke="#306726" stroke-linecap="round" stroke-linejoin="bevel" stroke-width="19.2531"/>
<path d="M724.786 109.442C727.662 103.689 736.158 98.7886 741.188 94.9317C744.994 92.0141 748.759 89.0436 752.544 86.0996" fill="none" opacity="1" stroke="#306726" stroke-linecap="round" stroke-linejoin="bevel" stroke-width="19.2531"/>
<path d="M744.343 361.155C743.922 360.945 742.635 360.376 743.081 360.525C747.873 362.122 753.172 361.285 758.221 361.155C764.332 360.999 770.549 361.091 776.516 362.417" fill="none" opacity="1" stroke="#306726" stroke-linecap="round" stroke-linejoin="bevel" stroke-width="19.2531"/>
<path d="M648.452 499.314C647.319 497.049 653.957 498.479 656.022 499.945C664.521 505.977 671.043 514.131 679.995 519.502" fill="none" opacity="1" stroke="#306726" stroke-linecap="round" stroke-linejoin="bevel" stroke-width="19.2531"/>
<path d="M556.977 678.479C570.319 678.479 583.808 680.906 596.721 677.217" fill="none" opacity="1" stroke="#306726" stroke-linecap="round" stroke-linejoin="bevel" stroke-width="19.2531"/>
<path d="M689.524 668.768C673.415 716.088 680.347 790.68 754.913 813.178C829.478 835.676 892.194 772.476 900.618 729.177C910.251 679.657 883.502 612.723 822.758 596.614C768.574 582.245 708.605 612.716 689.524 668.768Z" fill="#3c2ef8" fill-rule="nonzero" opacity="1" stroke="#6b0f4d" stroke-linecap="butt" stroke-linejoin="bevel" stroke-width="12.8314"/>
<path d="M784.164 816.769C784.164 816.769 879.186 817.911 899.946 731.862C920.727 645.727 862.901 610.519 834.307 603.051C819.925 599.294 816.046 715.753 816.046 715.753L784.164 816.769Z" fill="#e94420" fill-rule="nonzero" opacity="1" stroke="#6b0f4d" stroke-linecap="butt" stroke-linejoin="bevel" stroke-width="12.8314"/>
<path d="M743.12 693.28C730.907 749.204 741.206 807.372 741.206 807.372C741.206 807.372 771.214 821.087 776.78 815.426C791.646 800.308 808.45 753.542 816.4 722.206C827.328 679.138 834.146 601.404 827.557 599.315C820.968 597.226 755.334 637.356 743.12 693.28Z" fill="#eb1da3" fill-rule="nonzero" opacity="1" stroke="#6b0f4d" stroke-linecap="butt" stroke-linejoin="bevel" stroke-width="12.8314"/>
<path d="M800.272 641.249C823.429 644.605 832.155 645.612 839.202 632.859C841.907 627.964 842.419 624.609 842.466 620.261C842.542 613.282 839.833 605.862 831.148 601.312C817.053 593.929 779.801 597.621 778.794 611.045C777.787 624.469 777.116 637.893 800.272 641.249Z" fill="#ffffff" fill-rule="nonzero" opacity="1" stroke="#6b0f4d" stroke-linecap="butt" stroke-linejoin="bevel" stroke-width="12.8314"/>
</g>
</g>
</svg>
