<?xml version="1.0" encoding="UTF-8" standalone="no"?>
<!DOCTYPE svg PUBLIC "-//W3C//DTD SVG 1.1//EN" "http://www.w3.org/Graphics/SVG/1.1/DTD/svg11.dtd">
<!-- Created with Vectornator (http://vectornator.io/) -->
<svg height="100%" stroke-miterlimit="10" style="fill-rule:nonzero;clip-rule:evenodd;stroke-linecap:round;stroke-linejoin:round;" version="1.1" viewBox="0 0 1024 1024" width="100%" xml:space="preserve" xmlns="http://www.w3.org/2000/svg" xmlns:vectornator="http://vectornator.io" xmlns:xlink="http://www.w3.org/1999/xlink">
<defs>
<filter color-interpolation-filters="sRGB" filterUnits="userSpaceOnUse" height="680.772" id="Filter" width="672.803" x="174.023" y="169.087">
<feDropShadow dx="-1.57597" dy="-2.55271" flood-color="#000000" flood-opacity="0.141964" in="SourceGraphic" result="Shadow" stdDeviation="1"/>
</filter>
</defs>
<g id="Ebene-1" vectornator:layerName="Ebene 1">
<path d="M511.981 174.19C327.605 174.19 178.149 325.429 178.149 512C178.149 698.571 327.605 849.81 511.981 849.81C696.358 849.81 845.851 698.571 845.851 512C845.851 325.429 696.358 174.19 511.981 174.19ZM511.981 233.85C667.549 233.85 793.658 358.374 793.658 512C793.658 665.626 667.549 790.187 511.981 790.188C356.414 790.188 230.304 665.626 230.304 512C230.304 358.374 356.414 233.85 511.981 233.85Z" fill="#000000" fill-rule="nonzero" filter="url(#Filter)" stroke="#6b0f4d" stroke-linecap="butt" stroke-linejoin="bevel" stroke-width="0.1" vectornator:shadowAngle="45" vectornator:shadowColor="#000000" vectornator:shadowOffset="-3" vectornator:shadowOpacity="0.141964" vectornator:shadowRadius="2"/>
<path d="M115.665 77.7911L548.409 77.7911C576.079 77.7911 598.51 100.222 598.51 127.892L598.51 401.341C598.51 429.011 576.079 451.442 548.409 451.442L115.665 451.442C87.9954 451.442 65.5643 429.011 65.5643 401.341L65.5643 127.892C65.5643 100.222 87.9954 77.7911 115.665 77.7911Z" fill="#ffffff" fill-rule="nonzero" opacity="1" stroke="#000000" stroke-linecap="butt" stroke-linejoin="bevel" stroke-width="11.3177"/>
<g opacity="1">
<path d="M468.984 125.351L525.909 125.351C538.58 125.351 548.852 135.623 548.852 148.294L548.852 210.814C548.852 223.486 538.58 233.758 525.909 233.758L468.984 233.758C456.312 233.758 446.04 223.486 446.04 210.814L446.04 148.294C446.04 135.623 456.312 125.351 468.984 125.351Z" fill="#ffffff" fill-rule="nonzero" opacity="1" stroke="#000000" stroke-linecap="butt" stroke-linejoin="bevel" stroke-width="11.3177"/>
<g opacity="1">
<path d="M472.261 154.369L522.631 204.74" fill="none" opacity="1" stroke="#000000" stroke-linecap="butt" stroke-linejoin="bevel" stroke-width="11.3177"/>
<path d="M522.631 154.369L472.261 204.74" fill="none" opacity="1" stroke="#000000" stroke-linecap="butt" stroke-linejoin="bevel" stroke-width="11.3177"/>
</g>
</g>
<g fill="#000000" opacity="1" stroke="none">
<path d="M125.068 141.87L144.32 141.87C148.982 141.87 153.411 142.391 157.607 143.433C161.802 144.475 165.463 146.161 168.59 148.492C171.716 150.823 174.198 153.854 176.035 157.583C177.873 161.313 178.791 165.838 178.791 171.158C178.791 175.875 177.9 180.03 176.118 183.622C174.335 187.215 171.935 190.231 168.919 192.672C165.902 195.113 162.419 196.964 158.47 198.225C154.521 199.487 150.38 200.118 146.047 200.118L125.068 200.118L125.068 141.87ZM137.903 188.271L144.567 188.271C147.528 188.271 150.284 187.969 152.835 187.366C155.385 186.762 157.593 185.761 159.458 184.363C161.322 182.964 162.79 181.127 163.859 178.851C164.929 176.574 165.463 173.791 165.463 170.5C165.463 167.648 164.929 165.166 163.859 163.054C162.79 160.943 161.35 159.201 159.54 157.83C157.73 156.459 155.605 155.431 153.164 154.745C150.723 154.059 148.159 153.717 145.472 153.717L137.903 153.717L137.903 188.271Z"/>
<path d="M186.114 160.134L198.454 160.134L198.454 200.118L186.114 200.118L186.114 160.134ZM185.126 147.546C185.126 145.572 185.826 143.885 187.224 142.487C188.623 141.088 190.309 140.389 192.284 140.389C194.258 140.389 195.945 141.088 197.344 142.487C198.742 143.885 199.441 145.572 199.441 147.546C199.441 149.521 198.742 151.207 197.344 152.606C195.945 154.005 194.258 154.704 192.284 154.704C190.309 154.704 188.623 154.005 187.224 152.606C185.826 151.207 185.126 149.521 185.126 147.546Z"/>
<path d="M232.432 195.099L232.268 195.099C230.896 197.238 229.073 198.774 226.797 199.706C224.52 200.639 222.121 201.105 219.598 201.105C217.733 201.105 215.937 200.844 214.209 200.323C212.481 199.802 210.959 199.021 209.643 197.979C208.327 196.936 207.285 195.648 206.517 194.112C205.749 192.576 205.365 190.794 205.365 188.764C205.365 186.461 205.79 184.514 206.64 182.923C207.49 181.332 208.642 180.016 210.096 178.974C211.549 177.932 213.208 177.123 215.073 176.547C216.938 175.971 218.871 175.546 220.873 175.272C222.875 174.997 224.877 174.833 226.879 174.778C228.881 174.723 230.732 174.696 232.432 174.696C232.432 172.502 231.651 170.761 230.087 169.472C228.524 168.183 226.673 167.538 224.534 167.538C222.505 167.538 220.654 167.963 218.981 168.813C217.308 169.664 215.813 170.829 214.497 172.31L207.915 165.564C210.219 163.425 212.906 161.82 215.978 160.751C219.049 159.681 222.231 159.147 225.521 159.147C229.141 159.147 232.117 159.599 234.448 160.504C236.779 161.409 238.644 162.739 240.042 164.494C241.441 166.249 242.414 168.402 242.963 170.952C243.511 173.503 243.786 176.451 243.786 179.797L243.786 200.118L232.432 200.118L232.432 195.099ZM229.388 182.594C228.456 182.594 227.29 182.635 225.892 182.717C224.493 182.8 223.149 183.033 221.86 183.417C220.571 183.8 219.474 184.376 218.569 185.144C217.665 185.912 217.212 186.982 217.212 188.353C217.212 189.834 217.843 190.931 219.104 191.644C220.366 192.357 221.682 192.713 223.053 192.713C224.26 192.713 225.425 192.549 226.55 192.22C227.674 191.89 228.675 191.424 229.553 190.821C230.43 190.218 231.13 189.45 231.651 188.517C232.172 187.585 232.432 186.488 232.432 185.227L232.432 182.594L229.388 182.594Z"/>
<path d="M251.684 137.921L264.024 137.921L264.024 200.118L251.684 200.118L251.684 137.921Z"/>
<path d="M271.429 180.126C271.429 176.945 272.005 174.065 273.156 171.487C274.308 168.909 275.885 166.702 277.887 164.864C279.889 163.027 282.247 161.615 284.962 160.627C287.677 159.64 290.57 159.147 293.642 159.147C296.713 159.147 299.607 159.64 302.322 160.627C305.036 161.615 307.395 163.027 309.397 164.864C311.399 166.702 312.976 168.909 314.127 171.487C315.279 174.065 315.855 176.945 315.855 180.126C315.855 183.307 315.279 186.186 314.127 188.764C312.976 191.342 311.399 193.55 309.397 195.387C307.395 197.224 305.036 198.637 302.322 199.624C299.607 200.611 296.713 201.105 293.642 201.105C290.57 201.105 287.677 200.611 284.962 199.624C282.247 198.637 279.889 197.224 277.887 195.387C275.885 193.55 274.308 191.342 273.156 188.764C272.005 186.186 271.429 183.307 271.429 180.126ZM283.769 180.126C283.769 183.142 284.633 185.583 286.361 187.448C288.089 189.313 290.516 190.245 293.642 190.245C296.768 190.245 299.195 189.313 300.923 187.448C302.651 185.583 303.514 183.142 303.514 180.126C303.514 177.109 302.651 174.668 300.923 172.804C299.195 170.939 296.768 170.006 293.642 170.006C290.516 170.006 288.089 170.939 286.361 172.804C284.633 174.668 283.769 177.109 283.769 180.126Z"/>
<path d="M365.053 196.744C365.053 204.313 363.147 210.059 359.335 213.98C355.524 217.902 349.723 219.863 341.935 219.863C338.37 219.863 334.86 219.465 331.404 218.67C327.949 217.874 324.768 216.325 321.861 214.021L328.689 203.82C330.609 205.41 332.625 206.672 334.736 207.604C336.848 208.537 339.165 209.003 341.688 209.003C345.473 209.003 348.256 208.084 350.039 206.247C351.821 204.409 352.713 202.065 352.713 199.213L352.713 195.346L352.548 195.346C351.122 197.266 349.353 198.623 347.242 199.418C345.13 200.214 343.142 200.611 341.277 200.611C338.315 200.611 335.628 200.104 333.214 199.089C330.801 198.075 328.731 196.649 327.003 194.811C325.275 192.974 323.945 190.794 323.013 188.271C322.08 185.748 321.614 182.978 321.614 179.961C321.614 177.328 322.039 174.751 322.889 172.228C323.739 169.705 324.946 167.483 326.509 165.564C328.072 163.644 329.978 162.095 332.227 160.915C334.476 159.736 337.026 159.147 339.878 159.147C341.633 159.147 343.238 159.339 344.691 159.722C346.145 160.106 347.447 160.6 348.599 161.203C349.751 161.807 350.738 162.479 351.561 163.219C352.384 163.959 353.042 164.686 353.535 165.399L353.7 165.399L353.7 160.134L365.053 160.134L365.053 196.744ZM333.955 179.879C333.955 181.195 334.202 182.443 334.695 183.622C335.189 184.801 335.888 185.844 336.793 186.749C337.698 187.654 338.74 188.38 339.919 188.929C341.099 189.477 342.401 189.751 343.827 189.751C345.199 189.751 346.487 189.477 347.694 188.929C348.901 188.38 349.957 187.654 350.862 186.749C351.767 185.844 352.466 184.801 352.959 183.622C353.453 182.443 353.7 181.195 353.7 179.879C353.7 178.563 353.453 177.315 352.959 176.136C352.466 174.956 351.767 173.914 350.862 173.009C349.957 172.104 348.901 171.378 347.694 170.829C346.487 170.281 345.199 170.006 343.827 170.006C342.401 170.006 341.099 170.281 339.919 170.829C338.74 171.378 337.698 172.104 336.793 173.009C335.888 173.914 335.189 174.956 334.695 176.136C334.202 177.315 333.955 178.563 333.955 179.879Z"/>
</g>
<path d="M410.659 299.742L527.814 299.742C539.433 299.742 548.852 309.161 548.852 320.78L548.852 379.687C548.852 391.306 539.433 400.726 527.814 400.726L410.659 400.726C399.04 400.726 389.62 391.306 389.62 379.687L389.62 320.78C389.62 309.161 399.04 299.742 410.659 299.742Z" fill="#ffffff" fill-rule="nonzero" opacity="1" stroke="#000000" stroke-linecap="butt" stroke-linejoin="bevel" stroke-width="11.3177"/>
<g fill="#000000" opacity="1" stroke="none">
<path d="M434.125 352.728C434.125 349.288 434.702 346.171 435.855 343.378C437.009 340.585 438.618 338.207 440.682 336.244C442.747 334.281 445.195 332.773 448.029 331.721C450.862 330.669 453.958 330.143 457.318 330.143C460.677 330.143 463.774 330.669 466.607 331.721C469.44 332.773 471.889 334.281 473.953 336.244C476.018 338.207 477.627 340.585 478.78 343.378C479.934 346.171 480.511 349.288 480.511 352.728C480.511 356.169 479.934 359.285 478.78 362.078C477.627 364.871 476.018 367.249 473.953 369.212C471.889 371.175 469.44 372.683 466.607 373.735C463.774 374.788 460.677 375.314 457.318 375.314C453.958 375.314 450.862 374.788 448.029 373.735C445.195 372.683 442.747 371.175 440.682 369.212C438.618 367.249 437.009 364.871 435.855 362.078C434.702 359.285 434.125 356.169 434.125 352.728ZM443.961 352.728C443.961 354.752 444.274 356.604 444.902 358.283C445.529 359.963 446.43 361.42 447.604 362.655C448.777 363.889 450.184 364.851 451.823 365.539C453.463 366.227 455.294 366.571 457.318 366.571C459.342 366.571 461.173 366.227 462.812 365.539C464.452 364.851 465.858 363.889 467.032 362.655C468.206 361.42 469.106 359.963 469.734 358.283C470.361 356.604 470.675 354.752 470.675 352.728C470.675 350.745 470.361 348.903 469.734 347.203C469.106 345.503 468.206 344.036 467.032 342.801C465.858 341.567 464.452 340.606 462.812 339.917C461.173 339.229 459.342 338.885 457.318 338.885C455.294 338.885 453.463 339.229 451.823 339.917C450.184 340.606 448.777 341.567 447.604 342.801C446.43 344.036 445.529 345.503 444.902 347.203C444.274 348.903 443.961 350.745 443.961 352.728Z"/>
<path d="M485.793 328.321L494.9 328.321L494.9 356.371L504.978 344.714L516.15 344.714L504.432 358.01L516.453 374.221L504.978 374.221L495.021 359.285L494.9 359.285L494.9 374.221L485.793 374.221L485.793 328.321Z"/>
</g>
<path d="M139.449 299.742L336.284 299.742C347.904 299.742 357.323 309.161 357.323 320.78L357.323 379.687C357.323 391.306 347.904 400.726 336.284 400.726L139.449 400.726C127.83 400.726 118.411 391.306 118.411 379.687L118.411 320.78C118.411 309.161 127.83 299.742 139.449 299.742Z" fill="#ffffff" fill-rule="nonzero" opacity="1" stroke="#000000" stroke-linecap="butt" stroke-linejoin="bevel" stroke-width="11.3177"/>
<g fill="#000000" opacity="1" stroke="none">
<path d="M177.569 342.357C176.638 341.223 175.494 340.353 174.138 339.746C172.782 339.139 171.214 338.835 169.433 338.835C167.652 338.835 166.003 339.179 164.485 339.867C162.967 340.555 161.651 341.517 160.538 342.751C159.425 343.986 158.555 345.453 157.928 347.153C157.3 348.853 156.986 350.695 156.986 352.678C156.986 354.702 157.3 356.554 157.928 358.233C158.555 359.913 159.415 361.37 160.508 362.605C161.601 363.839 162.886 364.801 164.363 365.489C165.841 366.177 167.429 366.521 169.129 366.521C171.072 366.521 172.792 366.116 174.29 365.307C175.788 364.497 177.022 363.364 177.994 361.907L185.886 367.796C184.065 370.346 181.758 372.228 178.965 373.442C176.172 374.656 173.298 375.264 170.344 375.264C166.984 375.264 163.888 374.737 161.054 373.685C158.221 372.633 155.772 371.125 153.708 369.162C151.644 367.199 150.035 364.821 148.881 362.028C147.728 359.235 147.151 356.118 147.151 352.678C147.151 349.238 147.728 346.121 148.881 343.328C150.035 340.535 151.644 338.157 153.708 336.194C155.772 334.231 158.221 332.723 161.054 331.671C163.888 330.619 166.984 330.092 170.344 330.092C171.558 330.092 172.823 330.204 174.138 330.426C175.454 330.649 176.749 331.003 178.024 331.489C179.299 331.975 180.523 332.622 181.697 333.432C182.871 334.241 183.923 335.233 184.854 336.407L177.569 342.357Z"/>
<path d="M208.411 370.467L208.29 370.467C207.278 372.046 205.932 373.179 204.252 373.867C202.573 374.555 200.802 374.899 198.94 374.899C197.564 374.899 196.238 374.707 194.963 374.323C193.688 373.938 192.565 373.361 191.593 372.592C190.622 371.823 189.853 370.872 189.286 369.739C188.72 368.605 188.436 367.29 188.436 365.792C188.436 364.092 188.75 362.655 189.377 361.482C190.005 360.308 190.855 359.336 191.927 358.567C193 357.798 194.224 357.201 195.601 356.776C196.977 356.351 198.404 356.038 199.881 355.835C201.358 355.633 202.836 355.511 204.313 355.471C205.79 355.43 207.156 355.41 208.411 355.41C208.411 353.791 207.834 352.506 206.681 351.555C205.527 350.604 204.161 350.128 202.583 350.128C201.085 350.128 199.719 350.442 198.484 351.069C197.25 351.697 196.147 352.557 195.176 353.649L190.318 348.671C192.018 347.092 194.002 345.908 196.268 345.119C198.535 344.33 200.883 343.935 203.311 343.935C205.983 343.935 208.178 344.269 209.899 344.937C211.619 345.605 212.995 346.586 214.027 347.882C215.059 349.177 215.778 350.766 216.183 352.648C216.587 354.53 216.79 356.705 216.79 359.174L216.79 374.171L208.411 374.171L208.411 370.467ZM206.165 361.239C205.477 361.239 204.617 361.269 203.584 361.33C202.552 361.39 201.561 361.563 200.609 361.846C199.658 362.129 198.849 362.554 198.181 363.121C197.513 363.688 197.179 364.477 197.179 365.489C197.179 366.582 197.645 367.391 198.576 367.917C199.506 368.443 200.478 368.707 201.49 368.707C202.38 368.707 203.24 368.585 204.07 368.342C204.9 368.099 205.639 367.755 206.286 367.31C206.934 366.865 207.45 366.298 207.834 365.61C208.219 364.922 208.411 364.112 208.411 363.182L208.411 361.239L206.165 361.239Z"/>
<path d="M222.497 344.664L231.24 344.664L231.24 348.671L231.361 348.671C231.644 348.104 232.049 347.538 232.575 346.971C233.102 346.404 233.729 345.898 234.457 345.453C235.186 345.008 236.016 344.644 236.947 344.36C237.878 344.077 238.89 343.935 239.982 343.935C242.29 343.935 244.151 344.289 245.568 344.998C246.985 345.706 248.088 346.688 248.877 347.942C249.666 349.197 250.203 350.674 250.486 352.374C250.769 354.074 250.911 355.916 250.911 357.899L250.911 374.171L241.804 374.171L241.804 359.721C241.804 358.871 241.773 357.991 241.713 357.08C241.652 356.169 241.47 355.329 241.166 354.56C240.863 353.791 240.397 353.164 239.77 352.678C239.143 352.192 238.242 351.949 237.068 351.949C235.894 351.949 234.943 352.162 234.215 352.587C233.486 353.012 232.929 353.579 232.545 354.287C232.16 354.995 231.907 355.795 231.786 356.685C231.665 357.576 231.604 358.507 231.604 359.478L231.604 374.171L222.497 374.171L222.497 344.664Z"/>
<path d="M277.321 354.196C276.876 353.548 276.249 353.012 275.439 352.587C274.63 352.162 273.76 351.949 272.829 351.949C270.522 351.949 268.73 352.638 267.455 354.014C266.18 355.39 265.543 357.191 265.543 359.417C265.543 361.643 266.18 363.445 267.455 364.821C268.73 366.197 270.522 366.885 272.829 366.885C273.841 366.885 274.711 366.662 275.439 366.217C276.168 365.772 276.795 365.246 277.321 364.639L283.332 370.953C281.916 372.41 280.246 373.432 278.323 374.019C276.401 374.606 274.569 374.899 272.829 374.899C270.562 374.899 268.427 374.535 266.423 373.806C264.42 373.078 262.679 372.036 261.202 370.68C259.725 369.324 258.561 367.695 257.711 365.792C256.861 363.89 256.436 361.765 256.436 359.417C256.436 357.07 256.861 354.945 257.711 353.042C258.561 351.14 259.725 349.511 261.202 348.155C262.679 346.799 264.42 345.757 266.423 345.028C268.427 344.3 270.562 343.935 272.829 343.935C274.569 343.935 276.401 344.229 278.323 344.816C280.246 345.402 281.916 346.425 283.332 347.882L277.321 354.196Z"/>
<path d="M314.539 369.071C313.082 370.933 311.24 372.37 309.014 373.381C306.788 374.393 304.481 374.899 302.093 374.899C299.826 374.899 297.691 374.535 295.687 373.806C293.684 373.078 291.943 372.036 290.466 370.68C288.989 369.324 287.825 367.695 286.975 365.792C286.125 363.89 285.7 361.765 285.7 359.417C285.7 357.07 286.125 354.945 286.975 353.042C287.825 351.14 288.989 349.511 290.466 348.155C291.943 346.799 293.684 345.757 295.687 345.028C297.691 344.3 299.826 343.935 302.093 343.935C304.198 343.935 306.11 344.3 307.83 345.028C309.55 345.757 311.008 346.799 312.202 348.155C313.396 349.511 314.317 351.14 314.964 353.042C315.612 354.945 315.936 357.07 315.936 359.417L315.936 362.271L294.807 362.271C295.171 364.011 295.961 365.398 297.175 366.43C298.389 367.462 299.887 367.978 301.668 367.978C303.165 367.978 304.43 367.644 305.462 366.976C306.495 366.308 307.395 365.448 308.164 364.396L314.539 369.071ZM306.828 356.078C306.869 354.54 306.363 353.224 305.311 352.132C304.258 351.039 302.902 350.492 301.243 350.492C300.231 350.492 299.34 350.654 298.571 350.978C297.802 351.302 297.145 351.717 296.598 352.223C296.052 352.729 295.627 353.316 295.323 353.983C295.02 354.651 294.848 355.349 294.807 356.078L306.828 356.078Z"/>
<path d="M321.582 328.271L330.689 328.271L330.689 374.171L321.582 374.171L321.582 328.271Z"/>
</g>
<g opacity="1">
<path d="M742.899 548.546L640.783 548.546C634.867 548.546 630.072 543.751 630.072 537.836L630.072 451.121C630.072 445.206 634.867 440.411 640.783 440.411L930.345 440.411C936.26 440.411 941.055 445.206 941.055 451.121L941.055 537.836C941.055 543.751 936.26 548.546 930.345 548.546L826.223 548.546C820.308 548.546 812.466 552.249 808.708 556.818L790.776 578.616C787.019 583.185 780.995 583.129 777.323 578.491L760.259 556.943C756.587 552.306 748.814 548.546 742.899 548.546Z" fill="none" opacity="1" stroke="#ffffff" stroke-linecap="butt" stroke-linejoin="bevel" stroke-width="45.5137" vectornator:layerName="(rectangle)"/>
<g opacity="1">
<path d="M754.831 595.845L817.488 595.845C831.435 595.845 842.741 607.151 842.741 621.098L842.741 689.913C842.741 703.861 831.435 715.167 817.488 715.167L754.831 715.167C740.884 715.167 729.578 703.861 729.578 689.913L729.578 621.098C729.578 607.151 740.884 595.845 754.831 595.845Z" fill="#ffffff" fill-rule="nonzero" opacity="1" stroke="#000000" stroke-linecap="butt" stroke-linejoin="bevel" stroke-width="17.6139"/>
<g opacity="1">
<path d="M764.188 635.48C764.188 635.48 768.82 620.261 786.025 620.261C803.23 620.261 812.659 641.601 792.642 650.038C781.438 654.761 783.212 667.243 783.212 667.243" fill="#ffffff" fill-rule="nonzero" opacity="1" stroke="#000000" stroke-linecap="round" stroke-linejoin="bevel" stroke-width="17.6139"/>
<path d="M784.039 685.937C784.039 685.846 784.151 685.772 784.288 685.772C784.425 685.772 784.536 685.846 784.536 685.937C784.536 686.029 784.425 686.103 784.288 686.103C784.151 686.103 784.039 686.029 784.039 685.937Z" fill="none" opacity="0" stroke="#000000" stroke-linecap="butt" stroke-linejoin="bevel" stroke-width="17.6139"/>
<path d="M774.73 687.3C774.73 682.44 778.67 678.5 783.53 678.5C788.39 678.5 792.33 682.44 792.33 687.3C792.33 692.161 788.39 696.1 783.53 696.1C778.67 696.1 774.73 692.161 774.73 687.3Z" fill="#000000" fill-rule="nonzero" opacity="1" stroke="none"/>
</g>
</g>
<path d="M931.521 548.546L819.338 548.546L786.015 593.93L753.157 548.546L640.798 548.546C634.874 548.546 630.072 543.744 630.072 537.82L630.072 451.137C630.072 445.213 634.874 440.411 640.798 440.411L931.521 440.411C937.445 440.411 942.247 445.213 942.247 451.137L942.247 537.82C942.247 543.744 937.445 548.546 931.521 548.546Z" fill="#000000" fill-rule="nonzero" opacity="1" stroke="#000000" stroke-linecap="butt" stroke-linejoin="bevel" stroke-width="11.3177" vectornator:layerName="(rectangle)"/>
<g fill="#ffffff" opacity="1" stroke="none">
<path d="M686.47 482.206L673.106 482.206L673.106 473.076L710.155 473.076L710.155 482.206L696.791 482.206L696.791 519.916L686.47 519.916L686.47 482.206Z"/>
<path d="M705.59 503.839C705.59 501.281 706.053 498.966 706.979 496.893C707.905 494.82 709.173 493.045 710.783 491.567C712.393 490.09 714.289 488.954 716.473 488.16C718.656 487.366 720.982 486.969 723.452 486.969C725.922 486.969 728.249 487.366 730.432 488.16C732.615 488.954 734.512 490.09 736.122 491.567C737.731 493.045 738.999 494.82 739.926 496.893C740.852 498.966 741.315 501.281 741.315 503.839C741.315 506.398 740.852 508.713 739.926 510.786C738.999 512.859 737.731 514.634 736.122 516.112C734.512 517.589 732.615 518.725 730.432 519.519C728.249 520.313 725.922 520.71 723.452 520.71C720.982 520.71 718.656 520.313 716.473 519.519C714.289 518.725 712.393 517.589 710.783 516.112C709.173 514.634 707.905 512.859 706.979 510.786C706.053 508.713 705.59 506.398 705.59 503.839ZM715.513 503.839C715.513 506.265 716.208 508.228 717.597 509.728C718.987 511.227 720.938 511.977 723.452 511.977C725.966 511.977 727.918 511.227 729.307 509.728C730.697 508.228 731.391 506.265 731.391 503.839C731.391 501.414 730.697 499.451 729.307 497.951C727.918 496.452 725.966 495.702 723.452 495.702C720.938 495.702 718.987 496.452 717.597 497.951C716.208 499.451 715.513 501.414 715.513 503.839Z"/>
<path d="M745.946 503.839C745.946 501.281 746.409 498.966 747.335 496.893C748.262 494.82 749.53 493.045 751.139 491.567C752.749 490.09 754.646 488.954 756.829 488.16C759.012 487.366 761.339 486.969 763.809 486.969C766.279 486.969 768.605 487.366 770.788 488.16C772.972 488.954 774.868 490.09 776.478 491.567C778.088 493.045 779.356 494.82 780.282 496.893C781.208 498.966 781.671 501.281 781.671 503.839C781.671 506.398 781.208 508.713 780.282 510.786C779.356 512.859 778.088 514.634 776.478 516.112C774.868 517.589 772.972 518.725 770.788 519.519C768.605 520.313 766.279 520.71 763.809 520.71C761.339 520.71 759.012 520.313 756.829 519.519C754.646 518.725 752.749 517.589 751.139 516.112C749.53 514.634 748.262 512.859 747.335 510.786C746.409 508.713 745.946 506.398 745.946 503.839ZM755.87 503.839C755.87 506.265 756.564 508.228 757.954 509.728C759.343 511.227 761.295 511.977 763.809 511.977C766.323 511.977 768.274 511.227 769.664 509.728C771.053 508.228 771.748 506.265 771.748 503.839C771.748 501.414 771.053 499.451 769.664 497.951C768.274 496.452 766.323 495.702 763.809 495.702C761.295 495.702 759.343 496.452 757.954 497.951C756.564 499.451 755.87 501.414 755.87 503.839Z"/>
<path d="M787.626 469.9L797.549 469.9L797.549 519.916L787.626 519.916L787.626 469.9Z"/>
<path d="M826.593 495.702L817.86 495.702L817.86 506.42C817.86 507.302 817.904 508.107 817.992 508.834C818.08 509.562 818.279 510.191 818.588 510.72C818.896 511.249 819.37 511.657 820.01 511.944C820.65 512.231 821.499 512.374 822.557 512.374C823.086 512.374 823.781 512.319 824.641 512.208C825.501 512.098 826.152 511.845 826.593 511.448L826.593 519.717C825.49 520.114 824.343 520.379 823.152 520.511C821.962 520.644 820.793 520.71 819.646 520.71C817.97 520.71 816.426 520.533 815.015 520.181C813.604 519.828 812.369 519.265 811.31 518.493C810.252 517.722 809.425 516.718 808.829 515.483C808.234 514.248 807.936 512.749 807.936 510.985L807.936 495.702L801.585 495.702L801.585 487.763L807.936 487.763L807.936 478.236L817.86 478.236L817.86 487.763L826.593 487.763L826.593 495.702Z"/>
<path d="M831.753 487.763L841.677 487.763L841.677 519.916L831.753 519.916L831.753 487.763ZM830.959 477.641C830.959 476.053 831.521 474.697 832.646 473.572C833.771 472.447 835.127 471.885 836.715 471.885C838.303 471.885 839.659 472.447 840.784 473.572C841.908 474.697 842.471 476.053 842.471 477.641C842.471 479.229 841.908 480.585 840.784 481.71C839.659 482.834 838.303 483.397 836.715 483.397C835.127 483.397 833.771 482.834 832.646 481.71C831.521 480.585 830.959 479.229 830.959 477.641Z"/>
<path d="M849.748 487.763L858.878 487.763L858.878 491.997L859.01 491.997C859.407 491.424 859.925 490.839 860.565 490.244C861.204 489.649 861.954 489.108 862.814 488.623C863.674 488.138 864.612 487.741 865.626 487.432C866.64 487.124 867.721 486.969 868.868 486.969C871.249 486.969 873.411 487.377 875.351 488.193C877.292 489.009 878.957 490.156 880.346 491.633C881.735 493.111 882.805 494.864 883.555 496.893C884.305 498.922 884.679 501.149 884.679 503.575C884.679 505.824 884.338 507.974 883.654 510.025C882.97 512.076 882 513.896 880.743 515.483C879.486 517.071 877.953 518.339 876.145 519.287C874.337 520.236 872.286 520.71 869.992 520.71C867.919 520.71 865.99 520.39 864.204 519.75C862.417 519.111 860.951 518.019 859.804 516.476L859.672 516.476L859.672 535L849.748 535L849.748 487.763ZM858.878 503.839C858.878 506.265 859.573 508.228 860.962 509.728C862.351 511.227 864.303 511.977 866.817 511.977C869.331 511.977 871.282 511.227 872.672 509.728C874.061 508.228 874.756 506.265 874.756 503.839C874.756 501.414 874.061 499.451 872.672 497.951C871.282 496.452 869.331 495.702 866.817 495.702C864.303 495.702 862.351 496.452 860.962 497.951C859.573 499.451 858.878 501.414 858.878 503.839Z"/>
</g>
</g>
<path d="M199.296 710.327L576.989 710.327C595.172 710.327 609.912 725.067 609.912 743.25L609.912 913.286C609.912 931.469 595.172 946.209 576.989 946.209L199.296 946.209C181.113 946.209 166.373 931.469 166.373 913.286L166.373 743.25C166.373 725.067 181.113 710.327 199.296 710.327Z" fill="#ffffff" fill-rule="nonzero" opacity="1" stroke="#000000" stroke-linecap="butt" stroke-linejoin="bevel" stroke-width="11.3177"/>
<path d="M200.869 577.265L575.416 577.265C594.468 577.265 609.912 592.709 609.912 611.761L609.912 675.158C609.912 694.21 594.468 709.654 575.416 709.654L200.869 709.654C181.817 709.654 166.373 694.21 166.373 675.158L166.373 611.761C166.373 592.709 181.817 577.265 200.869 577.265Z" fill="#ffffff" fill-rule="nonzero" opacity="1" stroke="#000000" stroke-linecap="butt" stroke-linejoin="bevel" stroke-width="11.3177"/>
<g opacity="1">
<path d="M213.958 890.682L449.551 890.682" fill="none" opacity="1" stroke="#000000" stroke-linecap="round" stroke-linejoin="round" stroke-width="31.0617"/>
<path d="M213.958 765.854L427.621 765.854" fill="none" opacity="1" stroke="#000000" stroke-linecap="round" stroke-linejoin="round" stroke-width="31.0617"/>
<path d="M213.958 828.268L503.33 828.268" fill="none" opacity="1" stroke="#000000" stroke-linecap="round" stroke-linejoin="round" stroke-width="31.0617"/>
</g>
<path d="M519.746 628.428L546.008 662.062L570.04 628.486" fill="none" opacity="1" stroke="#000000" stroke-linecap="round" stroke-linejoin="round" stroke-width="11.3177"/>
<g fill="#000000" opacity="1" stroke="none">
<path d="M205.326 623.183L218.913 623.183C222.203 623.183 225.329 623.551 228.29 624.287C231.252 625.022 233.835 626.212 236.042 627.857C238.248 629.503 240 631.641 241.297 634.273C242.593 636.906 243.242 640.099 243.242 643.854C243.242 647.183 242.613 650.115 241.355 652.65C240.097 655.186 238.403 657.315 236.274 659.037C234.145 660.76 231.687 662.066 228.9 662.957C226.113 663.847 223.191 664.292 220.133 664.292L205.326 664.292L205.326 623.183ZM214.384 655.931L219.087 655.931C221.178 655.931 223.123 655.718 224.923 655.292C226.723 654.866 228.281 654.16 229.597 653.173C230.913 652.186 231.948 650.889 232.703 649.283C233.458 647.676 233.835 645.712 233.835 643.389C233.835 641.376 233.458 639.625 232.703 638.135C231.948 636.644 230.932 635.415 229.655 634.448C228.377 633.48 226.878 632.754 225.155 632.27C223.432 631.786 221.623 631.544 219.726 631.544L214.384 631.544L214.384 655.931Z"/>
<path d="M248.293 636.073L257.003 636.073L257.003 640.602L257.119 640.602C258.048 638.86 259.151 637.554 260.428 636.683C261.706 635.812 263.312 635.377 265.248 635.377C265.751 635.377 266.254 635.396 266.757 635.435C267.26 635.473 267.725 635.551 268.151 635.667L268.151 643.622C267.531 643.428 266.922 643.283 266.322 643.186C265.722 643.089 265.093 643.041 264.435 643.041C262.77 643.041 261.454 643.273 260.486 643.738C259.519 644.202 258.773 644.851 258.251 645.683C257.728 646.515 257.39 647.512 257.235 648.673C257.08 649.834 257.003 651.112 257.003 652.505L257.003 664.292L248.293 664.292L248.293 636.073Z"/>
<path d="M269.834 650.183C269.834 647.938 270.241 645.905 271.054 644.086C271.867 642.267 272.98 640.709 274.392 639.412C275.805 638.115 277.47 637.119 279.386 636.422C281.302 635.725 283.344 635.377 285.512 635.377C287.679 635.377 289.721 635.725 291.637 636.422C293.553 637.119 295.218 638.115 296.631 639.412C298.043 640.709 299.156 642.267 299.969 644.086C300.782 645.905 301.189 647.938 301.189 650.183C301.189 652.428 300.782 654.46 299.969 656.279C299.156 658.099 298.043 659.657 296.631 660.953C295.218 662.25 293.553 663.247 291.637 663.944C289.721 664.64 287.679 664.989 285.512 664.989C283.344 664.989 281.302 664.64 279.386 663.944C277.47 663.247 275.805 662.25 274.392 660.953C272.98 659.657 271.867 658.099 271.054 656.279C270.241 654.46 269.834 652.428 269.834 650.183ZM278.544 650.183C278.544 652.312 279.154 654.034 280.373 655.35C281.592 656.666 283.305 657.324 285.512 657.324C287.718 657.324 289.431 656.666 290.65 655.35C291.869 654.034 292.479 652.312 292.479 650.183C292.479 648.054 291.869 646.331 290.65 645.015C289.431 643.699 287.718 643.041 285.512 643.041C283.305 643.041 281.592 643.699 280.373 645.015C279.154 646.331 278.544 648.054 278.544 650.183Z"/>
<path d="M307.111 636.073L315.124 636.073L315.124 639.789L315.24 639.789C315.588 639.286 316.043 638.773 316.604 638.251C317.166 637.728 317.824 637.254 318.578 636.828C319.333 636.402 320.156 636.054 321.046 635.783C321.936 635.512 322.885 635.377 323.891 635.377C325.981 635.377 327.878 635.735 329.581 636.451C331.285 637.167 332.746 638.173 333.965 639.47C335.184 640.767 336.123 642.305 336.781 644.086C337.439 645.867 337.768 647.821 337.768 649.95C337.768 651.925 337.468 653.812 336.868 655.612C336.268 657.412 335.417 659.008 334.314 660.402C333.21 661.795 331.865 662.908 330.278 663.74C328.691 664.573 326.891 664.989 324.878 664.989C323.059 664.989 321.365 664.708 319.798 664.147C318.23 663.586 316.943 662.628 315.937 661.273L315.82 661.273L315.82 677.53L307.111 677.53L307.111 636.073ZM315.124 650.183C315.124 652.312 315.733 654.034 316.953 655.35C318.172 656.666 319.885 657.324 322.091 657.324C324.298 657.324 326.01 656.666 327.23 655.35C328.449 654.034 329.059 652.312 329.059 650.183C329.059 648.054 328.449 646.331 327.23 645.015C326.01 643.699 324.298 643.041 322.091 643.041C319.885 643.041 318.172 643.699 316.953 645.015C315.733 646.331 315.124 648.054 315.124 650.183Z"/>
<path d="M372.49 664.292L364.477 664.292L364.477 660.576L364.361 660.576C364.013 661.079 363.558 661.592 362.997 662.115C362.435 662.637 361.777 663.111 361.023 663.537C360.268 663.963 359.435 664.311 358.526 664.582C357.616 664.853 356.677 664.989 355.71 664.989C353.619 664.989 351.723 664.631 350.02 663.915C348.316 663.199 346.855 662.192 345.636 660.895C344.416 659.599 343.478 658.06 342.82 656.279C342.162 654.499 341.833 652.544 341.833 650.415C341.833 648.441 342.133 646.554 342.733 644.754C343.333 642.954 344.184 641.357 345.287 639.964C346.391 638.57 347.736 637.457 349.323 636.625C350.91 635.793 352.71 635.377 354.723 635.377C356.542 635.377 358.235 635.657 359.803 636.219C361.371 636.78 362.658 637.738 363.664 639.093L363.781 639.093L363.781 620.396L372.49 620.396L372.49 664.292ZM364.477 650.183C364.477 648.054 363.868 646.331 362.648 645.015C361.429 643.699 359.716 643.041 357.51 643.041C355.303 643.041 353.59 643.699 352.371 645.015C351.152 646.331 350.542 648.054 350.542 650.183C350.542 652.312 351.152 654.034 352.371 655.35C353.59 656.666 355.303 657.324 357.51 657.324C359.716 657.324 361.429 656.666 362.648 655.35C363.868 654.034 364.477 652.312 364.477 650.183Z"/>
<path d="M378.412 650.183C378.412 647.938 378.819 645.905 379.632 644.086C380.445 642.267 381.557 640.709 382.97 639.412C384.383 638.115 386.048 637.119 387.964 636.422C389.88 635.725 391.922 635.377 394.089 635.377C396.257 635.377 398.299 635.725 400.215 636.422C402.131 637.119 403.796 638.115 405.208 639.412C406.621 640.709 407.734 642.267 408.547 644.086C409.36 645.905 409.766 647.938 409.766 650.183C409.766 652.428 409.36 654.46 408.547 656.279C407.734 658.099 406.621 659.657 405.208 660.953C403.796 662.25 402.131 663.247 400.215 663.944C398.299 664.64 396.257 664.989 394.089 664.989C391.922 664.989 389.88 664.64 387.964 663.944C386.048 663.247 384.383 662.25 382.97 660.953C381.557 659.657 380.445 658.099 379.632 656.279C378.819 654.46 378.412 652.428 378.412 650.183ZM387.122 650.183C387.122 652.312 387.732 654.034 388.951 655.35C390.17 656.666 391.883 657.324 394.089 657.324C396.296 657.324 398.009 656.666 399.228 655.35C400.447 654.034 401.057 652.312 401.057 650.183C401.057 648.054 400.447 646.331 399.228 645.015C398.009 643.699 396.296 643.041 394.089 643.041C391.883 643.041 390.17 643.699 388.951 645.015C387.732 646.331 387.122 648.054 387.122 650.183Z"/>
<path d="M411.508 636.073L420.798 636.073L426.547 653.783L426.663 653.783L431.482 636.073L441.004 636.073L446.23 653.783L446.346 653.783L451.63 636.073L460.455 636.073L450.411 664.292L441.817 664.292L435.953 645.538L435.837 645.538L430.611 664.292L421.844 664.292L411.508 636.073Z"/>
<path d="M463.243 636.073L471.604 636.073L471.604 639.906L471.72 639.906C471.991 639.364 472.378 638.822 472.881 638.28C473.384 637.738 473.984 637.254 474.681 636.828C475.378 636.402 476.171 636.054 477.062 635.783C477.952 635.512 478.92 635.377 479.965 635.377C482.171 635.377 483.952 635.715 485.306 636.393C486.661 637.07 487.716 638.009 488.471 639.209C489.226 640.409 489.739 641.822 490.01 643.447C490.281 645.073 490.416 646.834 490.416 648.731L490.416 664.292L481.707 664.292L481.707 650.473C481.707 649.66 481.678 648.818 481.619 647.947C481.561 647.076 481.387 646.273 481.097 645.538C480.807 644.802 480.361 644.202 479.761 643.738C479.161 643.273 478.3 643.041 477.178 643.041C476.055 643.041 475.145 643.244 474.449 643.651C473.752 644.057 473.22 644.599 472.852 645.276C472.484 645.954 472.242 646.718 472.126 647.57C472.01 648.421 471.952 649.312 471.952 650.241L471.952 664.292L463.243 664.292L463.243 636.073Z"/>
</g>
</g>
</svg>
