<?xml version="1.0" encoding="UTF-8" standalone="no"?>
<!DOCTYPE svg PUBLIC "-//W3C//DTD SVG 1.1//EN" "http://www.w3.org/Graphics/SVG/1.1/DTD/svg11.dtd">
<!-- Created with Vectornator (http://vectornator.io/) -->
<svg height="100%" stroke-miterlimit="10" style="fill-rule:nonzero;clip-rule:evenodd;stroke-linecap:round;stroke-linejoin:round;" version="1.1" viewBox="0 0 1024 1024" width="100%" xml:space="preserve" xmlns="http://www.w3.org/2000/svg" xmlns:vectornator="http://vectornator.io" xmlns:xlink="http://www.w3.org/1999/xlink">
<defs/>
<g id="Ebene-1" vectornator:layerName="Ebene 1">
<path d="M80.0617 705.355C103.326 599.867 164.956 516.177 269.679 516.177C374.402 516.177 427.532 606.225 459.296 705.355C491.06 804.484 437.857 896.116 269.679 894.533C105.617 892.987 57.6811 806.838 80.0617 705.355Z" fill="#000000" fill-rule="nonzero" opacity="1" stroke="#6b0f4d" stroke-linecap="butt" stroke-linejoin="bevel" stroke-width="0"/>
<path d="M166.061 379.946C166.061 324.128 210.451 278.878 265.209 278.878C319.967 278.878 364.357 324.128 364.357 379.946C364.357 435.765 319.967 481.015 265.209 481.015C210.451 481.015 166.061 435.765 166.061 379.946Z" fill="#000000" fill-rule="nonzero" opacity="1" stroke="#6b0f4d" stroke-linecap="butt" stroke-linejoin="bevel" stroke-width="0"/>
<path d="M80.0617 705.355C103.326 599.867 164.956 516.177 269.679 516.177C374.402 516.177 427.532 606.225 459.296 705.355C491.06 804.484 437.857 896.116 269.679 894.533C105.617 892.987 57.6811 806.838 80.0617 705.355Z" fill="#000000" fill-rule="nonzero" opacity="1" stroke="#ffffff" stroke-linecap="butt" stroke-linejoin="bevel" stroke-width="0"/>
<path d="M166.061 379.946C166.061 324.128 210.451 278.878 265.209 278.878C319.967 278.878 364.357 324.128 364.357 379.946C364.357 435.765 319.967 481.015 265.209 481.015C210.451 481.015 166.061 435.765 166.061 379.946Z" fill="#000000" fill-rule="nonzero" opacity="1" stroke="#6b0f4d" stroke-linecap="butt" stroke-linejoin="bevel" stroke-width="0"/>
<path d="M368.043 516.044C356.292 508.875 333.539 507.931 343.19 486.495C374.946 415.968 429.914 366.746 510.226 366.746C586.37 366.746 630.626 408.876 663.838 472.965C669.981 484.82 640.501 492.709 609.426 525.123C583.547 552.118 566.565 576.456 553.157 615.312C533.638 671.877 534.328 688.236 529.041 731.414C528.03 739.675 519.186 745.186 510.226 745.102C499.632 745.002 495.36 738.772 493.752 730.855C487.373 699.449 479.039 665.955 452.393 611.653C425.747 557.352 398.72 534.758 368.043 516.044Z" fill="#000000" fill-rule="nonzero" opacity="1" stroke="#6b0f4d" stroke-linecap="butt" stroke-linejoin="bevel" stroke-width="0"/>
<path d="M406.608 230.515C406.608 174.697 450.998 129.447 505.756 129.447C560.514 129.447 604.904 174.697 604.904 230.515C604.904 286.334 560.514 331.584 505.756 331.584C450.998 331.584 406.608 286.334 406.608 230.515Z" fill="#000000" fill-rule="nonzero" opacity="1" stroke="#6b0f4d" stroke-linecap="butt" stroke-linejoin="bevel" stroke-width="0"/>
<path d="M561.156 684.216C584.42 578.728 646.05 495.038 750.773 495.038C855.496 495.038 908.626 585.086 940.39 684.216C972.154 783.345 918.951 874.977 750.773 873.394C586.711 871.849 538.775 785.699 561.156 684.216Z" fill="#000000" fill-rule="nonzero" opacity="1" stroke="#6b0f4d" stroke-linecap="butt" stroke-linejoin="bevel" stroke-width="0"/>
<path d="M647.155 358.807C647.155 302.989 691.545 257.739 746.303 257.739C801.061 257.739 845.451 302.989 845.451 358.807C845.451 414.626 801.061 459.876 746.303 459.876C691.545 459.876 647.155 414.626 647.155 358.807Z" fill="#000000" fill-rule="nonzero" opacity="1" stroke="#6b0f4d" stroke-linecap="butt" stroke-linejoin="bevel" stroke-width="0"/>
</g>
</svg>
