<?xml version="1.0" encoding="UTF-8" standalone="no"?>
<!DOCTYPE svg PUBLIC "-//W3C//DTD SVG 1.1//EN" "http://www.w3.org/Graphics/SVG/1.1/DTD/svg11.dtd">
<!-- Created with Vectornator (http://vectornator.io/) -->
<svg height="100%" stroke-miterlimit="10" style="fill-rule:nonzero;clip-rule:evenodd;stroke-linecap:round;stroke-linejoin:round;" version="1.1" viewBox="0 0 1024 1024" width="100%" xml:space="preserve" xmlns="http://www.w3.org/2000/svg" xmlns:vectornator="http://vectornator.io" xmlns:xlink="http://www.w3.org/1999/xlink">
<defs/>
<g id="Ebene-8" vectornator:layerName="Ebene 8">
<g opacity="0">
<path d="M116.97 189.37L907.03 189.37C943.008 189.37 972.174 218.536 972.174 254.514L972.174 769.486C972.174 805.464 943.008 834.63 907.03 834.63L116.97 834.63C80.9917 834.63 51.8259 805.464 51.8259 769.486L51.8259 254.514C51.8259 218.536 80.9917 189.37 116.97 189.37Z" fill="#ffffff" fill-rule="nonzero" opacity="1" stroke="#000000" stroke-linecap="butt" stroke-linejoin="bevel" stroke-width="25.7575"/>
<g opacity="1">
<path d="M739.627 271.501L855.665 271.501C872.65 271.501 886.42 285.27 886.42 302.255L886.42 427.956C886.42 444.941 872.65 458.711 855.665 458.711L739.627 458.711C722.642 458.711 708.872 444.941 708.872 427.956L708.872 302.255C708.872 285.27 722.642 271.501 739.627 271.501Z" fill="#ffffff" fill-rule="nonzero" opacity="1" stroke="#000000" stroke-linecap="butt" stroke-linejoin="bevel" stroke-width="24.6313"/>
<g opacity="1">
<path d="M754.153 321.613L841.139 408.598" fill="none" opacity="1" stroke="#000000" stroke-linecap="butt" stroke-linejoin="bevel" stroke-width="24.6313"/>
<path d="M841.139 321.613L754.153 408.598" fill="none" opacity="1" stroke="#000000" stroke-linecap="butt" stroke-linejoin="bevel" stroke-width="24.6313"/>
</g>
</g>
<g fill="#000000" opacity="1" stroke="none">
<path d="M160.315 296.924L192.213 296.924C199.938 296.924 207.276 297.788 214.229 299.514C221.181 301.241 227.247 304.035 232.427 307.898C237.607 311.76 241.719 316.781 244.764 322.961C247.808 329.141 249.33 336.638 249.33 345.453C249.33 353.269 247.854 360.153 244.9 366.105C241.947 372.058 237.971 377.056 232.972 381.1C227.974 385.144 222.203 388.212 215.66 390.302C209.117 392.392 202.255 393.437 195.076 393.437L160.315 393.437L160.315 296.924ZM181.581 373.807L192.622 373.807C197.53 373.807 202.096 373.308 206.322 372.308C210.548 371.308 214.206 369.65 217.296 367.332C220.386 365.015 222.817 361.97 224.589 358.199C226.361 354.428 227.247 349.815 227.247 344.363C227.247 339.637 226.361 335.525 224.589 332.026C222.817 328.527 220.431 325.642 217.432 323.37C214.433 321.098 210.912 319.394 206.868 318.258C202.823 317.122 198.575 316.554 194.122 316.554L181.581 316.554L181.581 373.807Z"/>
<path d="M261.463 327.187L281.91 327.187L281.91 393.437L261.463 393.437L261.463 327.187ZM259.827 306.33C259.827 303.059 260.986 300.264 263.303 297.947C265.62 295.629 268.415 294.471 271.686 294.471C274.958 294.471 277.753 295.629 280.07 297.947C282.387 300.264 283.546 303.059 283.546 306.33C283.546 309.602 282.387 312.396 280.07 314.714C277.753 317.031 274.958 318.19 271.686 318.19C268.415 318.19 265.62 317.031 263.303 314.714C260.986 312.396 259.827 309.602 259.827 306.33Z"/>
<path d="M338.209 385.122L337.937 385.122C335.665 388.666 332.643 391.211 328.872 392.755C325.1 394.3 321.124 395.073 316.944 395.073C313.854 395.073 310.878 394.641 308.015 393.778C305.152 392.915 302.631 391.62 300.449 389.893C298.268 388.166 296.542 386.03 295.269 383.486C293.997 380.941 293.361 377.988 293.361 374.625C293.361 370.808 294.065 367.582 295.474 364.947C296.883 362.311 298.791 360.13 301.199 358.403C303.608 356.677 306.357 355.336 309.446 354.382C312.536 353.428 315.74 352.724 319.057 352.269C322.374 351.815 325.691 351.542 329.008 351.451C332.325 351.36 335.392 351.315 338.209 351.315C338.209 347.68 336.914 344.794 334.324 342.659C331.734 340.523 328.667 339.455 325.123 339.455C321.76 339.455 318.693 340.16 315.922 341.568C313.15 342.977 310.673 344.908 308.492 347.362L297.587 336.184C301.404 332.639 305.857 329.981 310.946 328.209C316.035 326.437 321.306 325.551 326.759 325.551C332.757 325.551 337.687 326.301 341.549 327.8C345.412 329.3 348.501 331.503 350.819 334.412C353.136 337.32 354.749 340.887 355.658 345.113C356.567 349.338 357.021 354.223 357.021 359.767L357.021 393.437L338.209 393.437L338.209 385.122ZM333.166 364.401C331.621 364.401 329.69 364.47 327.372 364.606C325.055 364.742 322.828 365.128 320.693 365.765C318.557 366.401 316.739 367.355 315.24 368.627C313.74 369.9 312.991 371.672 312.991 373.944C312.991 376.397 314.036 378.215 316.126 379.396C318.216 380.578 320.397 381.168 322.669 381.168C324.669 381.168 326.6 380.896 328.463 380.351C330.326 379.805 331.984 379.033 333.438 378.033C334.892 377.034 336.051 375.761 336.914 374.216C337.778 372.671 338.209 370.854 338.209 368.764L338.209 364.401L333.166 364.401Z"/>
<path d="M370.108 290.381L390.555 290.381L390.555 393.437L370.108 393.437L370.108 290.381Z"/>
<path d="M402.824 360.312C402.824 355.041 403.778 350.27 405.687 345.999C407.595 341.727 410.208 338.069 413.525 335.025C416.842 331.981 420.75 329.64 425.248 328.005C429.747 326.369 434.54 325.551 439.63 325.551C444.719 325.551 449.513 326.369 454.011 328.005C458.51 329.64 462.417 331.981 465.734 335.025C469.052 338.069 471.664 341.727 473.573 345.999C475.481 350.27 476.435 355.041 476.435 360.312C476.435 365.583 475.481 370.354 473.573 374.625C471.664 378.897 469.052 382.554 465.734 385.599C462.417 388.643 458.51 390.983 454.011 392.619C449.513 394.255 444.719 395.073 439.63 395.073C434.54 395.073 429.747 394.255 425.248 392.619C420.75 390.983 416.842 388.643 413.525 385.599C410.208 382.554 407.595 378.897 405.687 374.625C403.778 370.354 402.824 365.583 402.824 360.312ZM423.272 360.312C423.272 365.31 424.703 369.354 427.566 372.444C430.428 375.534 434.45 377.079 439.63 377.079C444.81 377.079 448.831 375.534 451.694 372.444C454.556 369.354 455.988 365.31 455.988 360.312C455.988 355.314 454.556 351.27 451.694 348.18C448.831 345.09 444.81 343.545 439.63 343.545C434.45 343.545 430.428 345.09 427.566 348.18C424.703 351.27 423.272 355.314 423.272 360.312Z"/>
<path d="M557.953 387.848C557.953 400.389 554.795 409.909 548.479 416.407C542.163 422.904 532.553 426.153 519.648 426.153C513.741 426.153 507.925 425.494 502.199 424.177C496.474 422.859 491.203 420.292 486.387 416.475L497.701 399.571C500.882 402.207 504.221 404.297 507.72 405.842C511.219 407.387 515.059 408.159 519.239 408.159C525.51 408.159 530.122 406.637 533.075 403.593C536.029 400.548 537.506 396.663 537.506 391.938L537.506 385.531L537.233 385.531C534.87 388.711 531.939 390.961 528.441 392.278C524.942 393.596 521.647 394.255 518.558 394.255C513.65 394.255 509.197 393.414 505.198 391.733C501.2 390.052 497.769 387.689 494.906 384.645C492.044 381.6 489.84 377.988 488.295 373.807C486.75 369.627 485.978 365.038 485.978 360.039C485.978 355.677 486.682 351.406 488.091 347.225C489.499 343.045 491.498 339.364 494.089 336.184C496.679 333.003 499.837 330.436 503.563 328.482C507.289 326.528 511.514 325.551 516.24 325.551C519.148 325.551 521.806 325.869 524.215 326.505C526.623 327.141 528.781 327.959 530.69 328.959C532.598 329.959 534.234 331.072 535.597 332.299C536.96 333.526 538.051 334.73 538.869 335.911L539.141 335.911L539.141 327.187L557.953 327.187L557.953 387.848ZM506.425 359.903C506.425 362.084 506.834 364.152 507.652 366.105C508.47 368.059 509.629 369.786 511.128 371.285C512.628 372.785 514.354 373.989 516.308 374.898C518.262 375.807 520.421 376.261 522.783 376.261C525.055 376.261 527.191 375.807 529.19 374.898C531.19 373.989 532.939 372.785 534.438 371.285C535.938 369.786 537.097 368.059 537.915 366.105C538.732 364.152 539.141 362.084 539.141 359.903C539.141 357.722 538.732 355.654 537.915 353.701C537.097 351.747 535.938 350.02 534.438 348.52C532.939 347.021 531.19 345.817 529.19 344.908C527.191 343.999 525.055 343.545 522.783 343.545C520.421 343.545 518.262 343.999 516.308 344.908C514.354 345.817 512.628 347.021 511.128 348.52C509.629 350.02 508.47 351.747 507.652 353.701C506.834 355.654 506.425 357.722 506.425 359.903Z"/>
</g>
<path d="M642.196 572.658L855.665 572.658C872.65 572.658 886.42 586.428 886.42 603.413L886.42 716.293C886.42 733.279 872.65 747.048 855.665 747.048L642.196 747.048C625.21 747.048 611.441 733.279 611.441 716.293L611.441 603.413C611.441 586.428 625.21 572.658 642.196 572.658Z" fill="#ffffff" fill-rule="nonzero" opacity="1" stroke="#000000" stroke-linecap="butt" stroke-linejoin="bevel" stroke-width="24.6313"/>
<g fill="#000000" opacity="1" stroke="none">
<path d="M687.093 662.011C687.093 656.258 688.058 651.047 689.986 646.377C691.915 641.707 694.606 637.731 698.057 634.448C701.509 631.166 705.604 628.645 710.341 626.885C715.079 625.126 720.256 624.246 725.874 624.246C731.491 624.246 736.669 625.126 741.406 626.885C746.144 628.645 750.238 631.166 753.69 634.448C757.142 637.731 759.832 641.707 761.761 646.377C763.69 651.047 764.654 656.258 764.654 662.011C764.654 667.764 763.69 672.975 761.761 677.645C759.832 682.315 757.142 686.291 753.69 689.574C750.238 692.856 746.144 695.377 741.406 697.137C736.669 698.896 731.491 699.776 725.874 699.776C720.256 699.776 715.079 698.896 710.341 697.137C705.604 695.377 701.509 692.856 698.057 689.574C694.606 686.291 691.915 682.315 689.986 677.645C688.058 672.975 687.093 667.764 687.093 662.011ZM703.539 662.011C703.539 665.395 704.064 668.491 705.113 671.3C706.162 674.109 707.668 676.545 709.63 678.609C711.593 680.674 713.945 682.281 716.686 683.432C719.427 684.582 722.49 685.157 725.874 685.157C729.258 685.157 732.32 684.582 735.061 683.432C737.802 682.281 740.154 680.674 742.117 678.609C744.079 676.545 745.585 674.109 746.634 671.3C747.683 668.491 748.208 665.395 748.208 662.011C748.208 658.695 747.683 655.615 746.634 652.773C745.585 649.93 744.079 647.477 742.117 645.413C740.154 643.348 737.802 641.741 735.061 640.59C732.32 639.44 729.258 638.865 725.874 638.865C722.49 638.865 719.427 639.44 716.686 640.59C713.945 641.741 711.593 643.348 709.63 645.413C707.668 647.477 706.162 649.93 705.113 652.773C704.064 655.615 703.539 658.695 703.539 662.011Z"/>
<path d="M773.486 621.2L788.714 621.2L788.714 668.102L805.566 648.61L824.246 648.61L804.653 670.843L824.754 697.949L805.566 697.949L788.917 672.975L788.714 672.975L788.714 697.949L773.486 697.949L773.486 621.2Z"/>
</g>
<path d="M173.841 572.658L524.911 572.658C541.896 572.658 555.666 586.428 555.666 603.413L555.666 716.293C555.666 733.279 541.896 747.048 524.911 747.048L173.841 747.048C156.856 747.048 143.086 733.279 143.086 716.293L143.086 603.413C143.086 586.428 156.856 572.658 173.841 572.658Z" fill="#ffffff" fill-rule="nonzero" opacity="1" stroke="#000000" stroke-linecap="butt" stroke-linejoin="bevel" stroke-width="24.6313"/>
<g fill="#000000" opacity="1" stroke="none">
<path d="M241.043 643.48C239.524 641.631 237.659 640.212 235.448 639.222C233.236 638.232 230.678 637.736 227.773 637.736C224.868 637.736 222.178 638.298 219.702 639.42C217.227 640.542 215.081 642.11 213.266 644.124C211.45 646.137 210.031 648.53 209.007 651.303C207.984 654.076 207.472 657.08 207.472 660.315C207.472 663.616 207.984 666.636 209.007 669.376C210.031 672.115 211.434 674.492 213.216 676.506C214.999 678.519 217.095 680.087 219.504 681.209C221.914 682.332 224.505 682.893 227.278 682.893C230.447 682.893 233.253 682.233 235.695 680.912C238.138 679.592 240.152 677.743 241.736 675.367L254.61 684.972C251.639 689.132 247.876 692.201 243.32 694.182C238.765 696.163 234.078 697.153 229.259 697.153C223.779 697.153 218.729 696.295 214.107 694.578C209.486 692.862 205.492 690.402 202.125 687.201C198.758 683.999 196.134 680.12 194.252 675.565C192.371 671.01 191.43 665.926 191.43 660.315C191.43 654.703 192.371 649.62 194.252 645.064C196.134 640.509 198.758 636.631 202.125 633.429C205.492 630.227 209.486 627.768 214.107 626.051C218.729 624.335 223.779 623.476 229.259 623.476C231.239 623.476 233.302 623.658 235.448 624.021C237.593 624.384 239.706 624.962 241.785 625.754C243.865 626.546 245.862 627.603 247.777 628.923C249.691 630.243 251.408 631.861 252.926 633.775L241.043 643.48Z"/>
<path d="M291.349 689.33L291.151 689.33C289.5 691.904 287.305 693.753 284.565 694.875C281.826 695.997 278.937 696.559 275.9 696.559C273.656 696.559 271.494 696.245 269.414 695.618C267.335 694.991 265.503 694.05 263.918 692.796C262.334 691.541 261.079 689.99 260.155 688.141C259.231 686.293 258.769 684.147 258.769 681.705C258.769 678.932 259.28 676.588 260.304 674.674C261.327 672.759 262.713 671.175 264.463 669.92C266.212 668.666 268.209 667.692 270.454 666.999C272.699 666.306 275.026 665.794 277.435 665.464C279.845 665.134 282.255 664.936 284.664 664.87C287.074 664.804 289.302 664.771 291.349 664.771C291.349 662.13 290.408 660.034 288.526 658.483C286.645 656.931 284.417 656.155 281.842 656.155C279.399 656.155 277.171 656.667 275.158 657.69C273.144 658.714 271.345 660.117 269.761 661.899L261.839 653.779C264.611 651.204 267.846 649.273 271.543 647.986C275.24 646.698 279.069 646.055 283.03 646.055C287.388 646.055 290.969 646.599 293.775 647.689C296.581 648.778 298.825 650.379 300.509 652.491C302.192 654.604 303.364 657.195 304.024 660.265C304.684 663.335 305.014 666.883 305.014 670.911L305.014 695.37L291.349 695.37L291.349 689.33ZM287.685 674.277C286.562 674.277 285.159 674.327 283.476 674.426C281.793 674.525 280.175 674.806 278.624 675.268C277.072 675.73 275.752 676.423 274.663 677.347C273.573 678.272 273.029 679.559 273.029 681.209C273.029 682.992 273.788 684.312 275.306 685.17C276.825 686.029 278.409 686.458 280.06 686.458C281.512 686.458 282.915 686.26 284.268 685.864C285.622 685.468 286.826 684.906 287.883 684.18C288.939 683.454 289.781 682.53 290.408 681.407C291.035 680.285 291.349 678.965 291.349 677.446L291.349 674.277L287.685 674.277Z"/>
<path d="M314.323 647.243L328.583 647.243L328.583 653.779L328.781 653.779C329.243 652.855 329.903 651.93 330.762 651.006C331.62 650.082 332.643 649.257 333.831 648.53C335.02 647.804 336.373 647.21 337.892 646.748C339.41 646.286 341.06 646.055 342.843 646.055C346.606 646.055 349.643 646.632 351.953 647.788C354.264 648.943 356.063 650.544 357.35 652.59C358.638 654.637 359.512 657.047 359.975 659.819C360.437 662.592 360.668 665.596 360.668 668.831L360.668 695.37L345.814 695.37L345.814 671.802C345.814 670.415 345.764 668.98 345.665 667.494C345.566 666.009 345.269 664.639 344.774 663.384C344.279 662.13 343.52 661.107 342.496 660.315C341.473 659.522 340.004 659.126 338.09 659.126C336.175 659.126 334.624 659.473 333.435 660.166C332.247 660.859 331.339 661.784 330.712 662.939C330.085 664.094 329.672 665.398 329.474 666.85C329.276 668.303 329.177 669.821 329.177 671.406L329.177 695.37L314.323 695.37L314.323 647.243Z"/>
<path d="M403.745 662.79C403.018 661.734 401.995 660.859 400.675 660.166C399.354 659.473 397.935 659.126 396.417 659.126C392.654 659.126 389.732 660.249 387.653 662.493C385.573 664.738 384.533 667.676 384.533 671.307C384.533 674.938 385.573 677.875 387.653 680.12C389.732 682.365 392.654 683.487 396.417 683.487C398.067 683.487 399.487 683.124 400.675 682.398C401.863 681.672 402.886 680.813 403.745 679.823L413.548 690.122C411.238 692.499 408.515 694.165 405.379 695.123C402.243 696.08 399.255 696.559 396.417 696.559C392.72 696.559 389.237 695.964 385.969 694.776C382.701 693.588 379.863 691.888 377.453 689.676C375.043 687.465 373.145 684.807 371.759 681.705C370.372 678.602 369.679 675.136 369.679 671.307C369.679 667.478 370.372 664.012 371.759 660.909C373.145 657.806 375.043 655.149 377.453 652.937C379.863 650.725 382.701 649.025 385.969 647.837C389.237 646.649 392.72 646.055 396.417 646.055C399.255 646.055 402.243 646.533 405.379 647.491C408.515 648.448 411.238 650.115 413.548 652.491L403.745 662.79Z"/>
<path d="M464.448 687.052C462.072 690.089 459.068 692.432 455.437 694.083C451.806 695.733 448.043 696.559 444.148 696.559C440.451 696.559 436.968 695.964 433.7 694.776C430.433 693.588 427.594 691.888 425.184 689.676C422.774 687.465 420.876 684.807 419.49 681.705C418.104 678.602 417.41 675.136 417.41 671.307C417.41 667.478 418.104 664.012 419.49 660.909C420.876 657.806 422.774 655.149 425.184 652.937C427.594 650.725 430.433 649.025 433.7 647.837C436.968 646.649 440.451 646.055 444.148 646.055C447.581 646.055 450.7 646.649 453.506 647.837C456.312 649.025 458.688 650.725 460.636 652.937C462.583 655.149 464.085 657.806 465.142 660.909C466.198 664.012 466.726 667.478 466.726 671.307L466.726 675.961L432.265 675.961C432.859 678.8 434.146 681.061 436.127 682.744C438.107 684.428 440.55 685.27 443.455 685.27C445.897 685.27 447.96 684.725 449.644 683.636C451.327 682.546 452.796 681.143 454.051 679.427L464.448 687.052ZM451.872 665.86C451.938 663.351 451.113 661.206 449.396 659.423C447.68 657.641 445.468 656.75 442.761 656.75C441.111 656.75 439.659 657.014 438.404 657.542C437.15 658.07 436.077 658.747 435.186 659.572C434.295 660.397 433.601 661.354 433.106 662.444C432.611 663.533 432.331 664.672 432.265 665.86L451.872 665.86Z"/>
<path d="M475.936 620.506L490.79 620.506L490.79 695.37L475.936 695.37L475.936 620.506Z"/>
</g>
</g>
<path d="M116.97 189.37L907.03 189.37C943.008 189.37 972.174 218.536 972.174 254.514L972.174 769.486C972.174 805.464 943.008 834.63 907.03 834.63L116.97 834.63C80.9917 834.63 51.8259 805.464 51.8259 769.486L51.8259 254.514C51.8259 218.536 80.9917 189.37 116.97 189.37Z" fill="#adadad" fill-rule="nonzero" opacity="1" stroke="none"/>
<g opacity="1">
<path d="M779.974 235.01L896.012 235.01C912.997 235.01 926.766 248.779 926.766 265.764L926.766 391.465C926.766 408.45 912.997 422.22 896.012 422.22L779.974 422.22C762.988 422.22 749.219 408.45 749.219 391.465L749.219 265.764C749.219 248.779 762.988 235.01 779.974 235.01Z" fill="#ffffff" fill-rule="nonzero" opacity="1" stroke="none"/>
<path d="M794.5 285.122L881.486 372.107" fill="#ffffff" fill-rule="nonzero" opacity="1" stroke="#000000" stroke-linecap="butt" stroke-linejoin="bevel" stroke-width="24.6313"/>
<path d="M881.486 285.122L794.5 372.107" fill="#ffffff" fill-rule="nonzero" opacity="1" stroke="#000000" stroke-linecap="butt" stroke-linejoin="bevel" stroke-width="24.6313"/>
</g>
<g fill="#000000" opacity="1" stroke="none">
<path d="M160.315 296.924L192.213 296.924C199.938 296.924 207.276 297.788 214.229 299.514C221.181 301.241 227.247 304.035 232.427 307.898C237.607 311.76 241.719 316.781 244.764 322.961C247.808 329.141 249.33 336.638 249.33 345.453C249.33 353.269 247.854 360.153 244.9 366.105C241.947 372.058 237.971 377.056 232.972 381.1C227.974 385.144 222.203 388.212 215.66 390.302C209.117 392.392 202.255 393.437 195.076 393.437L160.315 393.437L160.315 296.924ZM181.581 373.807L192.622 373.807C197.53 373.807 202.096 373.308 206.322 372.308C210.548 371.308 214.206 369.65 217.296 367.332C220.386 365.015 222.817 361.97 224.589 358.199C226.361 354.428 227.247 349.815 227.247 344.363C227.247 339.637 226.361 335.525 224.589 332.026C222.817 328.527 220.431 325.642 217.432 323.37C214.433 321.098 210.912 319.394 206.868 318.258C202.823 317.122 198.575 316.554 194.122 316.554L181.581 316.554L181.581 373.807Z"/>
<path d="M261.463 327.187L281.91 327.187L281.91 393.437L261.463 393.437L261.463 327.187ZM259.827 306.33C259.827 303.059 260.986 300.264 263.303 297.947C265.62 295.629 268.415 294.471 271.686 294.471C274.958 294.471 277.753 295.629 280.07 297.947C282.387 300.264 283.546 303.059 283.546 306.33C283.546 309.602 282.387 312.396 280.07 314.714C277.753 317.031 274.958 318.19 271.686 318.19C268.415 318.19 265.62 317.031 263.303 314.714C260.986 312.396 259.827 309.602 259.827 306.33Z"/>
<path d="M338.209 385.122L337.937 385.122C335.665 388.666 332.643 391.211 328.872 392.755C325.1 394.3 321.124 395.073 316.944 395.073C313.854 395.073 310.878 394.641 308.015 393.778C305.152 392.915 302.631 391.62 300.449 389.893C298.268 388.166 296.542 386.03 295.269 383.486C293.997 380.941 293.361 377.988 293.361 374.625C293.361 370.808 294.065 367.582 295.474 364.947C296.883 362.311 298.791 360.13 301.199 358.403C303.608 356.677 306.357 355.336 309.446 354.382C312.536 353.428 315.74 352.724 319.057 352.269C322.374 351.815 325.691 351.542 329.008 351.451C332.325 351.36 335.392 351.315 338.209 351.315C338.209 347.68 336.914 344.794 334.324 342.659C331.734 340.523 328.667 339.455 325.123 339.455C321.76 339.455 318.693 340.16 315.922 341.568C313.15 342.977 310.673 344.908 308.492 347.362L297.587 336.184C301.404 332.639 305.857 329.981 310.946 328.209C316.035 326.437 321.306 325.551 326.759 325.551C332.757 325.551 337.687 326.301 341.549 327.8C345.412 329.3 348.501 331.503 350.819 334.412C353.136 337.32 354.749 340.887 355.658 345.113C356.567 349.338 357.021 354.223 357.021 359.767L357.021 393.437L338.209 393.437L338.209 385.122ZM333.166 364.401C331.621 364.401 329.69 364.47 327.372 364.606C325.055 364.742 322.828 365.128 320.693 365.765C318.557 366.401 316.739 367.355 315.24 368.627C313.74 369.9 312.991 371.672 312.991 373.944C312.991 376.397 314.036 378.215 316.126 379.396C318.216 380.578 320.397 381.168 322.669 381.168C324.669 381.168 326.6 380.896 328.463 380.351C330.326 379.805 331.984 379.033 333.438 378.033C334.892 377.034 336.051 375.761 336.914 374.216C337.778 372.671 338.209 370.854 338.209 368.764L338.209 364.401L333.166 364.401Z"/>
<path d="M370.108 290.381L390.555 290.381L390.555 393.437L370.108 393.437L370.108 290.381Z"/>
<path d="M402.824 360.312C402.824 355.041 403.778 350.27 405.687 345.999C407.595 341.727 410.208 338.069 413.525 335.025C416.842 331.981 420.75 329.64 425.248 328.005C429.747 326.369 434.54 325.551 439.63 325.551C444.719 325.551 449.513 326.369 454.011 328.005C458.51 329.64 462.417 331.981 465.734 335.025C469.052 338.069 471.664 341.727 473.573 345.999C475.481 350.27 476.435 355.041 476.435 360.312C476.435 365.583 475.481 370.354 473.573 374.625C471.664 378.897 469.052 382.554 465.734 385.599C462.417 388.643 458.51 390.983 454.011 392.619C449.513 394.255 444.719 395.073 439.63 395.073C434.54 395.073 429.747 394.255 425.248 392.619C420.75 390.983 416.842 388.643 413.525 385.599C410.208 382.554 407.595 378.897 405.687 374.625C403.778 370.354 402.824 365.583 402.824 360.312ZM423.272 360.312C423.272 365.31 424.703 369.354 427.566 372.444C430.428 375.534 434.45 377.079 439.63 377.079C444.81 377.079 448.831 375.534 451.694 372.444C454.556 369.354 455.988 365.31 455.988 360.312C455.988 355.314 454.556 351.27 451.694 348.18C448.831 345.09 444.81 343.545 439.63 343.545C434.45 343.545 430.428 345.09 427.566 348.18C424.703 351.27 423.272 355.314 423.272 360.312Z"/>
<path d="M557.953 387.848C557.953 400.389 554.795 409.909 548.479 416.407C542.163 422.904 532.553 426.153 519.648 426.153C513.741 426.153 507.925 425.494 502.199 424.177C496.474 422.859 491.203 420.292 486.387 416.475L497.701 399.571C500.882 402.207 504.221 404.297 507.72 405.842C511.219 407.387 515.059 408.159 519.239 408.159C525.51 408.159 530.122 406.637 533.075 403.593C536.029 400.548 537.506 396.663 537.506 391.938L537.506 385.531L537.233 385.531C534.87 388.711 531.939 390.961 528.441 392.278C524.942 393.596 521.647 394.255 518.558 394.255C513.65 394.255 509.197 393.414 505.198 391.733C501.2 390.052 497.769 387.689 494.906 384.645C492.044 381.6 489.84 377.988 488.295 373.807C486.75 369.627 485.978 365.038 485.978 360.039C485.978 355.677 486.682 351.406 488.091 347.225C489.499 343.045 491.498 339.364 494.089 336.184C496.679 333.003 499.837 330.436 503.563 328.482C507.289 326.528 511.514 325.551 516.24 325.551C519.148 325.551 521.806 325.869 524.215 326.505C526.623 327.141 528.781 327.959 530.69 328.959C532.598 329.959 534.234 331.072 535.597 332.299C536.96 333.526 538.051 334.73 538.869 335.911L539.141 335.911L539.141 327.187L557.953 327.187L557.953 387.848ZM506.425 359.903C506.425 362.084 506.834 364.152 507.652 366.105C508.47 368.059 509.629 369.786 511.128 371.285C512.628 372.785 514.354 373.989 516.308 374.898C518.262 375.807 520.421 376.261 522.783 376.261C525.055 376.261 527.191 375.807 529.19 374.898C531.19 373.989 532.939 372.785 534.438 371.285C535.938 369.786 537.097 368.059 537.915 366.105C538.732 364.152 539.141 362.084 539.141 359.903C539.141 357.722 538.732 355.654 537.915 353.701C537.097 351.747 535.938 350.02 534.438 348.52C532.939 347.021 531.19 345.817 529.19 344.908C527.191 343.999 525.055 343.545 522.783 343.545C520.421 343.545 518.262 343.999 516.308 344.908C514.354 345.817 512.628 347.021 511.128 348.52C509.629 350.02 508.47 351.747 507.652 353.701C506.834 355.654 506.425 357.722 506.425 359.903Z"/>
</g>
<g opacity="1">
<path d="M682.542 614.705L896.012 614.705C912.997 614.705 926.766 628.474 926.766 645.459L926.766 758.34C926.766 775.325 912.997 789.095 896.012 789.095L682.542 789.095C665.557 789.095 651.788 775.325 651.788 758.34L651.788 645.459C651.788 628.474 665.557 614.705 682.542 614.705Z" fill="#ffffff" fill-rule="nonzero" opacity="1" stroke="none"/>
<g fill="#000000" opacity="1" stroke="none">
<path d="M727.44 704.057C727.44 698.305 728.404 693.093 730.333 688.423C732.262 683.754 734.952 679.777 738.404 676.495C741.855 673.212 745.95 670.691 750.688 668.932C755.425 667.172 760.603 666.292 766.22 666.292C771.838 666.292 777.015 667.172 781.753 668.932C786.49 670.691 790.585 673.212 794.036 676.495C797.488 679.777 800.178 683.754 802.107 688.423C804.036 693.093 805.001 698.305 805.001 704.057C805.001 709.81 804.036 715.022 802.107 719.691C800.178 724.361 797.488 728.338 794.036 731.62C790.585 734.902 786.49 737.424 781.753 739.183C777.015 740.943 771.838 741.823 766.22 741.823C760.603 741.823 755.425 740.943 750.688 739.183C745.95 737.424 741.855 734.902 738.404 731.62C734.952 728.338 732.262 724.361 730.333 719.691C728.404 715.022 727.44 709.81 727.44 704.057ZM743.886 704.057C743.886 707.441 744.41 710.538 745.459 713.346C746.508 716.155 748.014 718.592 749.977 720.656C751.94 722.72 754.292 724.328 757.033 725.478C759.774 726.629 762.836 727.204 766.22 727.204C769.604 727.204 772.667 726.629 775.408 725.478C778.149 724.328 780.501 722.72 782.463 720.656C784.426 718.592 785.932 716.155 786.981 713.346C788.03 710.538 788.554 707.441 788.554 704.057C788.554 700.741 788.03 697.662 786.981 694.819C785.932 691.977 784.426 689.523 782.463 687.459C780.501 685.395 778.149 683.787 775.408 682.637C772.667 681.486 769.604 680.911 766.22 680.911C762.836 680.911 759.774 681.486 757.033 682.637C754.292 683.787 751.94 685.395 749.977 687.459C748.014 689.523 746.508 691.977 745.459 694.819C744.41 697.662 743.886 700.741 743.886 704.057Z"/>
<path d="M813.833 663.247L829.061 663.247L829.061 710.149L845.913 690.657L864.592 690.657L844.999 712.89L865.1 739.995L845.913 739.995L829.264 715.022L829.061 715.022L829.061 739.995L813.833 739.995L813.833 663.247Z"/>
</g>
</g>
<g opacity="1">
<path d="M234.945 614.705L586.014 614.705C603 614.705 616.769 628.474 616.769 645.459L616.769 758.34C616.769 775.325 603 789.095 586.014 789.095L234.945 789.095C217.959 789.095 204.19 775.325 204.19 758.34L204.19 645.459C204.19 628.474 217.959 614.705 234.945 614.705Z" fill="#ffffff" fill-rule="nonzero" opacity="1" stroke="none"/>
<g fill="#000000" opacity="1" stroke="none">
<path d="M302.146 685.526C300.628 683.678 298.763 682.259 296.551 681.268C294.34 680.278 291.781 679.783 288.877 679.783C285.972 679.783 283.282 680.344 280.806 681.466C278.33 682.589 276.185 684.157 274.369 686.17C272.554 688.184 271.134 690.577 270.111 693.35C269.088 696.122 268.576 699.126 268.576 702.361C268.576 705.662 269.088 708.682 270.111 711.422C271.134 714.162 272.537 716.538 274.32 718.552C276.102 720.566 278.198 722.134 280.608 723.256C283.017 724.378 285.609 724.939 288.381 724.939C291.55 724.939 294.356 724.279 296.799 722.959C299.241 721.638 301.255 719.79 302.839 717.413L315.713 727.019C312.742 731.178 308.979 734.248 304.424 736.228C299.869 738.209 295.181 739.199 290.362 739.199C284.882 739.199 279.832 738.341 275.211 736.625C270.59 734.908 266.595 732.449 263.228 729.247C259.862 726.045 257.237 722.167 255.356 717.611C253.474 713.056 252.534 707.973 252.534 702.361C252.534 696.75 253.474 691.666 255.356 687.111C257.237 682.556 259.862 678.677 263.228 675.475C266.595 672.273 270.59 669.814 275.211 668.098C279.832 666.381 284.882 665.523 290.362 665.523C292.343 665.523 294.406 665.704 296.551 666.068C298.697 666.431 300.809 667.008 302.889 667.801C304.969 668.593 306.966 669.649 308.88 670.969C310.795 672.29 312.511 673.907 314.03 675.822L302.146 685.526Z"/>
<path d="M352.452 731.376L352.254 731.376C350.604 733.951 348.409 735.799 345.669 736.922C342.929 738.044 340.041 738.605 337.004 738.605C334.759 738.605 332.597 738.292 330.518 737.664C328.438 737.037 326.606 736.096 325.022 734.842C323.437 733.588 322.183 732.036 321.259 730.188C320.334 728.339 319.872 726.194 319.872 723.751C319.872 720.978 320.384 718.635 321.407 716.72C322.43 714.806 323.817 713.221 325.566 711.967C327.316 710.712 329.313 709.739 331.557 709.045C333.802 708.352 336.129 707.841 338.539 707.511C340.948 707.18 343.358 706.982 345.768 706.916C348.177 706.85 350.406 706.817 352.452 706.817C352.452 704.177 351.511 702.081 349.63 700.529C347.748 698.978 345.52 698.202 342.945 698.202C340.503 698.202 338.275 698.714 336.261 699.737C334.248 700.76 332.449 702.163 330.864 703.946L322.942 695.825C325.715 693.251 328.95 691.32 332.647 690.032C336.344 688.745 340.173 688.101 344.134 688.101C348.491 688.101 352.073 688.646 354.878 689.735C357.684 690.824 359.929 692.425 361.612 694.538C363.296 696.651 364.467 699.242 365.128 702.312C365.788 705.381 366.118 708.93 366.118 712.957L366.118 737.417L352.452 737.417L352.452 731.376ZM348.788 716.324C347.666 716.324 346.263 716.373 344.579 716.472C342.896 716.572 341.279 716.852 339.727 717.314C338.176 717.776 336.855 718.47 335.766 719.394C334.677 720.318 334.132 721.605 334.132 723.256C334.132 725.038 334.891 726.359 336.41 727.217C337.928 728.075 339.513 728.504 341.163 728.504C342.615 728.504 344.018 728.306 345.372 727.91C346.725 727.514 347.93 726.953 348.986 726.227C350.042 725.5 350.884 724.576 351.511 723.454C352.139 722.332 352.452 721.011 352.452 719.493L352.452 716.324L348.788 716.324Z"/>
<path d="M375.426 689.289L389.686 689.289L389.686 695.825L389.884 695.825C390.347 694.901 391.007 693.977 391.865 693.053C392.723 692.128 393.747 691.303 394.935 690.577C396.123 689.851 397.477 689.256 398.995 688.794C400.513 688.332 402.164 688.101 403.946 688.101C407.709 688.101 410.746 688.679 413.057 689.834C415.367 690.989 417.166 692.59 418.454 694.637C419.741 696.684 420.616 699.093 421.078 701.866C421.54 704.639 421.771 707.643 421.771 710.877L421.771 737.417L406.917 737.417L406.917 713.848C406.917 712.462 406.868 711.026 406.769 709.541C406.67 708.055 406.373 706.685 405.877 705.431C405.382 704.177 404.623 703.153 403.6 702.361C402.576 701.569 401.108 701.173 399.193 701.173C397.279 701.173 395.727 701.519 394.539 702.213C393.35 702.906 392.443 703.83 391.815 704.985C391.188 706.141 390.776 707.444 390.578 708.897C390.38 710.349 390.281 711.868 390.281 713.452L390.281 737.417L375.426 737.417L375.426 689.289Z"/>
<path d="M464.848 704.837C464.122 703.78 463.099 702.906 461.778 702.213C460.458 701.519 459.039 701.173 457.52 701.173C453.757 701.173 450.836 702.295 448.756 704.54C446.677 706.784 445.637 709.722 445.637 713.353C445.637 716.984 446.677 719.922 448.756 722.167C450.836 724.411 453.757 725.533 457.52 725.533C459.171 725.533 460.59 725.17 461.778 724.444C462.967 723.718 463.99 722.86 464.848 721.869L474.652 732.168C472.341 734.545 469.618 736.212 466.482 737.169C463.346 738.126 460.359 738.605 457.52 738.605C453.823 738.605 450.341 738.011 447.073 736.823C443.805 735.634 440.966 733.934 438.556 731.723C436.147 729.511 434.249 726.854 432.862 723.751C431.476 720.648 430.783 717.182 430.783 713.353C430.783 709.524 431.476 706.058 432.862 702.955C434.249 699.852 436.147 697.195 438.556 694.984C440.966 692.772 443.805 691.072 447.073 689.884C450.341 688.695 453.823 688.101 457.52 688.101C460.359 688.101 463.346 688.58 466.482 689.537C469.618 690.494 472.341 692.161 474.652 694.538L464.848 704.837Z"/>
<path d="M525.552 729.098C523.175 732.135 520.171 734.479 516.54 736.129C512.909 737.78 509.146 738.605 505.251 738.605C501.554 738.605 498.072 738.011 494.804 736.823C491.536 735.634 488.697 733.934 486.288 731.723C483.878 729.511 481.98 726.854 480.594 723.751C479.207 720.648 478.514 717.182 478.514 713.353C478.514 709.524 479.207 706.058 480.594 702.955C481.98 699.852 483.878 697.195 486.288 694.984C488.697 692.772 491.536 691.072 494.804 689.884C498.072 688.695 501.554 688.101 505.251 688.101C508.684 688.101 511.804 688.695 514.609 689.884C517.415 691.072 519.792 692.772 521.739 694.984C523.687 697.195 525.189 699.852 526.245 702.955C527.301 706.058 527.83 709.524 527.83 713.353L527.83 718.007L493.368 718.007C493.962 720.846 495.25 723.107 497.23 724.791C499.211 726.474 501.653 727.316 504.558 727.316C507.001 727.316 509.064 726.771 510.747 725.682C512.431 724.593 513.9 723.19 515.154 721.473L525.552 729.098ZM512.975 707.907C513.041 705.398 512.216 703.252 510.5 701.47C508.783 699.687 506.572 698.796 503.865 698.796C502.214 698.796 500.762 699.06 499.508 699.588C498.253 700.116 497.181 700.793 496.289 701.618C495.398 702.444 494.705 703.401 494.21 704.49C493.715 705.579 493.434 706.718 493.368 707.907L512.975 707.907Z"/>
<path d="M537.039 662.552L551.893 662.552L551.893 737.417L537.039 737.417L537.039 662.552Z"/>
</g>
</g>
</g>
</svg>
