<?xml version="1.0" encoding="UTF-8" standalone="no"?>
<!DOCTYPE svg PUBLIC "-//W3C//DTD SVG 1.1//EN" "http://www.w3.org/Graphics/SVG/1.1/DTD/svg11.dtd">
<!-- Created with Vectornator (http://vectornator.io/) -->
<svg height="100%" stroke-miterlimit="10" style="fill-rule:nonzero;clip-rule:evenodd;stroke-linecap:round;stroke-linejoin:round;" version="1.1" viewBox="0 0 169.899 54.2301" width="100%" xml:space="preserve" xmlns="http://www.w3.org/2000/svg" xmlns:vectornator="http://vectornator.io" xmlns:xlink="http://www.w3.org/1999/xlink">
<defs/>
<clipPath id="ArtboardFrame">
<rect height="54.2301" width="169.899" x="0" y="0"/>
</clipPath>
<g clip-path="url(#ArtboardFrame)" id="Logo" vectornator:layerName="Logo">
<g opacity="1">
<g opacity="1">
<path d="M66.35 16.2C62.04 16.2 58.66 19.53 58.66 23.78C58.66 28.22 61.97 31.58 66.35 31.58C70.73 31.58 74.04 28.23 74.04 23.78C74.04 19.53 70.66 16.2 66.35 16.2ZM66.35 29.28C63.5 29.28 61.27 26.86 61.27 23.78C61.27 20.81 63.5 18.49 66.35 18.49C69.2 18.49 71.43 20.81 71.43 23.78C71.42 26.87 69.19 29.28 66.35 29.28Z" fill="#191919" fill-rule="nonzero" opacity="1" stroke="none"/>
<path d="M82.45 22.81C80.93 22.18 79.61 21.63 79.61 20.42C79.61 19.33 80.63 18.51 81.99 18.51C83.63 18.51 84.93 19.47 85.29 19.77L86.38 17.73C86.08 17.46 84.59 16.2 82.01 16.2C79.19 16.2 77.06 18.04 77.06 20.47C77.06 23.03 79.29 23.99 81.27 24.84C82.83 25.51 84.18 26.09 84.18 27.33C84.18 28.67 83.03 29.26 81.89 29.26C80 29.26 78.52 28.05 78.15 27.72L76.78 29.61C77.12 29.95 78.91 31.57 81.85 31.57C84.71 31.57 86.72 29.8 86.72 27.26C86.7 24.57 84.44 23.64 82.45 22.81Z" fill="#191919" fill-rule="nonzero" opacity="1" stroke="none"/>
<path d="M99.22 16.45L89.57 16.45L89.57 18.53L93.21 18.53L93.21 31.32L95.57 31.32L95.57 18.53L99.22 18.53L99.22 16.45Z" fill="#191919" fill-rule="nonzero" opacity="1" stroke="none"/>
</g>
<g opacity="1">
<path d="M41.19 7.13C36.82 2.73 30.77 0 24.09 0C10.8 0 3.19744e-14 10.81 3.19744e-14 24.09C3.19744e-14 37.38 10.81 48.18 24.09 48.18C30.73 48.18 36.76 45.48 41.12 41.12C45.48 36.76 53.09 30.73 53.09 24.09C53.1 17.49 45.52 11.49 41.19 7.13ZM39.98 37.77C36.49 41.26 31.67 43.42 26.36 43.42C25.76 43.42 25.17 43.39 24.59 43.34C24.29 43.31 24 43.28 23.7 43.24C23.12 43.32 22.53 43.38 21.93 43.4C21.64 43.41 21.34 43.42 21.04 43.42C10.41 43.42 1.76 34.77 1.76 24.14C1.76 13.51 10.41 4.86 21.04 4.86C21.34 4.86 21.63 4.87 21.92 4.88C22.52 4.91 23.11 4.96 23.69 5.04C23.98 5 24.28 4.96 24.57 4.94C25.15 4.89 25.74 4.86 26.34 4.86C31.68 4.86 36.52 7.04 40.02 10.57C43.48 14.06 49.55 18.85 49.55 24.14C49.56 29.46 43.47 34.28 39.98 37.77Z" fill="#191919" fill-rule="nonzero" opacity="1" stroke="none"/>
<path d="M7.08 24.14C7.08 14.41 14.09 6.55 23.7 5.05L23.7 5.05C11.85 5.33 3.54 13.81 3.54 24.14C3.54 34.47 13.5 43.51 23.7 43.23C23.7 43.23 23.12 43.31 23.7 43.23C14.33 41.93 7.08 33.87 7.08 24.14Z" fill="#d72864" fill-rule="nonzero" opacity="1" stroke="none"/>
<path d="M36.44 37.77C32.89 41.33 28.31 42.81 23.7 43.23C23.99 43.27 24.29 43.31 24.59 43.33C25.17 43.38 25.76 43.41 26.36 43.41C31.67 43.41 36.49 41.25 39.98 37.76C43.47 34.27 49.56 29.45 49.56 24.14C49.56 18.85 43.49 14.06 40.03 10.57C36.54 7.05 31.69 4.86 26.35 4.86C25.75 4.86 25.16 4.89 24.58 4.94C24.28 4.97 23.99 5 23.7 5.04C28.34 5.46 33.39 7.43 36.49 10.56C39.95 14.05 46.02 18.84 46.02 24.13C46.02 29.46 39.93 34.28 36.44 37.77Z" fill="#8c195f" fill-rule="nonzero" opacity="1" stroke="none"/>
<path d="M3.54 24.14C3.54 13.81 11.85 5.34 23.7 5.05C23.12 4.97 22.53 4.91 21.93 4.89C21.64 4.88 21.34 4.87 21.05 4.87C10.42 4.87 1.77 13.52 1.77 24.15C1.77 34.78 10.42 43.43 21.05 43.43C21.35 43.43 21.64 43.42 21.94 43.41C22.54 43.38 23.13 43.33 23.71 43.25C13.52 43.51 3.54 34.48 3.54 24.14Z" fill="#8c195f" fill-rule="nonzero" opacity="1" stroke="none"/>
<path d="M34.67 37.77C31.77 40.67 27.96 42.64 23.7 43.23C28.31 42.81 32.88 41.32 36.44 37.77C39.93 34.28 46.02 29.46 46.02 24.15C46.02 18.86 39.95 14.07 36.49 10.58C33.39 7.45 28.33 5.49 23.7 5.06C27.98 5.65 31.82 7.65 34.72 10.58C38.18 14.07 44.25 18.86 44.25 24.15C44.25 29.46 38.16 34.28 34.67 37.77Z" fill="#d72864" fill-rule="nonzero" opacity="1" stroke="none"/>
</g>
<g opacity="1">
<path d="M60.54 42.95L63.35 42.95L63.35 43.41L60 43.41L60 37.62L63.27 37.62L63.27 38.08L60.54 38.08L60.54 40.23L63.1 40.23L63.1 40.7L60.54 40.7L60.54 42.95Z" fill="#191919" fill-rule="nonzero" opacity="1" stroke="none"/>
<path d="M67.28 42.75C67.28 42.97 67.32 43.07 67.53 43.07C67.6 43.07 67.67 43.05 67.78 43.02L67.81 43.36C67.65 43.44 67.51 43.47 67.32 43.47C66.94 43.47 66.81 43.24 66.79 42.96C66.49 43.28 66.01 43.5 65.43 43.5C64.39 43.5 64.22 42.79 64.22 42.4C64.22 41.24 65.28 41.02 66.2 41.02C66.43 41.02 66.58 41.03 66.74 41.04L66.74 40.63C66.74 40.01 66.56 39.67 65.85 39.67C65.2 39.67 64.98 39.93 64.89 40.41L64.39 40.32C64.52 39.56 65.01 39.24 65.89 39.24C66.87 39.24 67.28 39.62 67.28 40.64C67.28 40.64 67.28 42.75 67.28 42.75ZM66.75 41.48C66.62 41.46 66.48 41.46 66.25 41.46C65.69 41.46 64.79 41.5 64.79 42.33C64.79 42.73 64.93 43.08 65.57 43.08C66.04 43.08 66.51 42.82 66.76 42.52L66.76 41.48L66.75 41.48Z" fill="#191919" fill-rule="nonzero" opacity="1" stroke="none"/>
<path d="M71.41 40.48L70.88 40.54C70.78 40 70.63 39.7 69.96 39.7C69.25 39.7 69.08 40.01 69.08 40.36C69.08 40.84 69.44 40.95 70.06 41.1C70.81 41.28 71.48 41.44 71.48 42.33C71.48 43.03 70.95 43.5 69.97 43.5C69.07 43.5 68.51 43.16 68.39 42.26L68.9 42.17C69.01 42.66 69.2 43.03 69.99 43.03C70.53 43.03 70.93 42.87 70.93 42.35C70.93 41.87 70.6 41.77 70 41.62C69.32 41.44 68.52 41.34 68.52 40.41C68.52 39.62 69.2 39.23 69.97 39.23C70.96 39.24 71.31 39.73 71.41 40.48Z" fill="#191919" fill-rule="nonzero" opacity="1" stroke="none"/>
<path d="M74.62 43.25C74.42 43.39 74.02 43.51 73.69 43.51C72.96 43.51 72.6 43.18 72.6 42.42L72.6 39.78L71.96 39.78L71.96 39.32L72.6 39.32L72.6 38.15L73.14 38.07L73.14 39.32L74.28 39.32L74.28 39.77L73.14 39.77L73.14 42.34C73.14 42.8 73.24 43.07 73.77 43.07C74.02 43.07 74.32 42.97 74.5 42.86L74.62 43.25Z" fill="#191919" fill-rule="nonzero" opacity="1" stroke="none"/>
<path d="M75.08 41.37C75.08 39.87 75.94 39.24 76.98 39.24C78.1 39.24 78.56 40 78.56 40.98C78.55 41.14 78.54 41.31 78.52 41.48L75.66 41.48C75.69 42.7 76.26 43.03 76.97 43.03C77.61 43.03 77.87 42.77 78 42.25L78.5 42.35C78.32 43.16 77.68 43.51 76.92 43.51C75.49 43.51 75.08 42.5 75.08 41.37ZM77.99 41.04C78.01 40.2 77.69 39.71 76.93 39.71C76.31 39.71 75.7 40.09 75.66 41.04L77.99 41.04Z" fill="#191919" fill-rule="nonzero" opacity="1" stroke="none"/>
<path d="M81.73 39.8C81.23 39.71 80.59 39.94 80.26 40.27L80.26 43.4L79.72 43.4L79.72 39.32L80.16 39.32L80.21 39.89C80.6 39.36 81.04 39.23 81.6 39.24C81.64 39.24 81.68 39.24 81.73 39.24C81.73 39.24 81.73 39.8 81.73 39.8Z" fill="#191919" fill-rule="nonzero" opacity="1" stroke="none"/>
<path d="M85.82 43.41L85.28 43.41L85.28 40.71C85.28 40.09 85.06 39.72 84.43 39.72C83.89 39.72 83.32 40.08 83.07 40.3L83.07 43.41L82.53 43.41L82.53 39.32L83 39.32L83.03 39.83C83.47 39.5 84 39.24 84.57 39.24C85.44 39.24 85.81 39.73 85.81 40.65L85.81 43.41L85.82 43.41Z" fill="#191919" fill-rule="nonzero" opacity="1" stroke="none"/>
<path d="M89.43 39.03C89.43 40.7 92.63 39.8 92.63 41.87C92.63 43.05 91.69 43.51 90.66 43.51C89.38 43.51 88.77 42.95 88.61 41.9L89.15 41.82C89.3 42.47 89.62 43.04 90.67 43.04C91.33 43.04 92.08 42.81 92.08 41.94C92.08 40.18 88.88 41.24 88.88 39.05C88.88 38.11 89.67 37.51 90.77 37.51C91.78 37.51 92.48 37.94 92.62 39.12L92.11 39.18C92 38.62 91.77 37.99 90.8 37.99C89.77 38 89.43 38.45 89.43 39.03Z" fill="#191919" fill-rule="nonzero" opacity="1" stroke="none"/>
<path d="M94.44 43.41L93.13 39.32L93.68 39.32L94.77 42.86L95.74 39.32L96.32 39.32L97.27 42.85L98.35 39.32L98.86 39.32L97.57 43.41L96.92 43.41L96 39.92L95.07 43.41C95.07 43.41 94.44 43.41 94.44 43.41Z" fill="#191919" fill-rule="nonzero" opacity="1" stroke="none"/>
<path d="M99.94 38.33C99.67 38.33 99.51 38.18 99.51 37.91C99.51 37.64 99.67 37.49 99.94 37.49C100.21 37.49 100.37 37.64 100.37 37.91C100.37 38.18 100.21 38.33 99.94 38.33ZM100.2 43.41L99.66 43.41L99.66 39.32L100.2 39.32L100.2 43.41Z" fill="#191919" fill-rule="nonzero" opacity="1" stroke="none"/>
<path d="M103.71 43.25C103.51 43.39 103.11 43.51 102.78 43.51C102.05 43.51 101.69 43.18 101.69 42.42L101.69 39.78L101.05 39.78L101.05 39.32L101.69 39.32L101.69 38.15L102.23 38.07L102.23 39.32L103.37 39.32L103.37 39.77L102.23 39.77L102.23 42.34C102.23 42.8 102.33 43.07 102.86 43.07C103.11 43.07 103.41 42.97 103.59 42.86L103.71 43.25Z" fill="#191919" fill-rule="nonzero" opacity="1" stroke="none"/>
<path d="M104.68 42.96L107.23 42.96L107.23 43.41L104.06 43.41L104.06 43.03L106.52 39.77L104.1 39.77L104.1 39.32L107.15 39.32L107.15 39.7L104.68 42.96Z" fill="#191919" fill-rule="nonzero" opacity="1" stroke="none"/>
<path d="M107.77 41.37C107.77 39.87 108.63 39.24 109.67 39.24C110.79 39.24 111.25 40 111.25 40.98C111.24 41.14 111.23 41.31 111.21 41.48L108.35 41.48C108.38 42.7 108.95 43.03 109.66 43.03C110.3 43.03 110.56 42.77 110.69 42.25L111.19 42.35C111.01 43.16 110.37 43.51 109.61 43.51C108.19 43.51 107.77 42.5 107.77 41.37ZM110.68 41.04C110.7 40.2 110.38 39.71 109.62 39.71C109 39.71 108.39 40.09 108.35 41.04L110.68 41.04Z" fill="#191919" fill-rule="nonzero" opacity="1" stroke="none"/>
<path d="M114.43 39.8C113.93 39.71 113.29 39.94 112.96 40.27L112.96 43.4L112.42 43.4L112.42 39.32L112.86 39.32L112.91 39.89C113.3 39.36 113.74 39.23 114.3 39.24C114.34 39.24 114.38 39.24 114.43 39.24L114.43 39.8Z" fill="#191919" fill-rule="nonzero" opacity="1" stroke="none"/>
<path d="M115.77 43.41L115.23 43.41L115.23 37.37L115.77 37.37L115.77 43.41Z" fill="#191919" fill-rule="nonzero" opacity="1" stroke="none"/>
<path d="M119.99 42.75C119.99 42.97 120.03 43.07 120.24 43.07C120.31 43.07 120.38 43.05 120.49 43.02L120.52 43.36C120.36 43.44 120.22 43.47 120.03 43.47C119.65 43.47 119.52 43.24 119.5 42.96C119.2 43.28 118.72 43.5 118.14 43.5C117.1 43.5 116.93 42.79 116.93 42.4C116.93 41.24 117.99 41.02 118.91 41.02C119.14 41.02 119.29 41.03 119.45 41.04L119.45 40.63C119.45 40.01 119.27 39.67 118.56 39.67C117.91 39.67 117.69 39.93 117.6 40.41L117.1 40.32C117.23 39.56 117.72 39.24 118.6 39.24C119.58 39.24 119.99 39.62 119.99 40.64C119.99 40.64 119.99 42.75 119.99 42.75ZM119.46 41.48C119.33 41.46 119.19 41.46 118.96 41.46C118.4 41.46 117.5 41.5 117.5 42.33C117.5 42.73 117.64 43.08 118.28 43.08C118.75 43.08 119.22 42.82 119.47 42.52L119.47 41.48L119.46 41.48Z" fill="#191919" fill-rule="nonzero" opacity="1" stroke="none"/>
<path d="M124.73 43.41L124.19 43.41L124.19 40.71C124.19 40.09 123.97 39.72 123.34 39.72C122.8 39.72 122.23 40.08 121.98 40.3L121.98 43.41L121.44 43.41L121.44 39.32L121.91 39.32L121.94 39.83C122.38 39.5 122.91 39.24 123.48 39.24C124.35 39.24 124.72 39.73 124.72 40.65L124.72 43.41L124.73 43.41Z" fill="#191919" fill-rule="nonzero" opacity="1" stroke="none"/>
<path d="M129.28 43.41L128.82 43.41L128.77 42.95C128.39 43.26 127.97 43.5 127.36 43.5C126.44 43.5 125.82 42.91 125.82 41.41C125.82 39.82 126.62 39.24 127.55 39.24C128.03 39.24 128.44 39.4 128.74 39.62L128.74 37.37L129.28 37.37C129.28 37.37 129.28 43.41 129.28 43.41ZM128.75 40.12C128.55 39.97 128.1 39.7 127.56 39.7C126.69 39.7 126.38 40.38 126.38 41.44C126.38 42.56 126.72 43.06 127.51 43.06C128.01 43.06 128.48 42.76 128.76 42.45L128.76 40.12L128.75 40.12Z" fill="#191919" fill-rule="nonzero" opacity="1" stroke="none"/>
<path d="M63.55 50.71L63.55 46.82L64.09 46.82L64.09 50.73C64.09 52.06 63.34 52.7 61.99 52.7C60.55 52.7 59.97 52 59.97 50.72L59.97 46.82L60.51 46.82L60.51 50.69C60.51 51.83 61.09 52.23 62.05 52.23C63.01 52.23 63.55 51.86 63.55 50.71Z" fill="#191919" fill-rule="nonzero" opacity="1" stroke="none"/>
<path d="M68.89 52.61L68.35 52.61L68.35 49.91C68.35 49.29 68.13 48.92 67.5 48.92C66.96 48.92 66.39 49.28 66.14 49.5L66.14 52.61L65.6 52.61L65.6 48.52L66.07 48.52L66.1 49.03C66.54 48.7 67.07 48.44 67.64 48.44C68.51 48.44 68.88 48.93 68.88 49.85L68.88 52.61L68.89 52.61Z" fill="#191919" fill-rule="nonzero" opacity="1" stroke="none"/>
<path d="M70.55 47.53C70.28 47.53 70.12 47.38 70.12 47.11C70.12 46.84 70.28 46.69 70.55 46.69C70.82 46.69 70.98 46.84 70.98 47.11C70.98 47.38 70.82 47.53 70.55 47.53ZM70.8 52.61L70.26 52.61L70.26 48.52L70.8 48.52L70.8 52.61Z" fill="#191919" fill-rule="nonzero" opacity="1" stroke="none"/>
<path d="M73.17 52.61L71.56 48.52L72.14 48.52L73.47 52.08L74.79 48.52L75.33 48.52L73.76 52.61L73.17 52.61Z" fill="#191919" fill-rule="nonzero" opacity="1" stroke="none"/>
<path d="M75.78 50.57C75.78 49.07 76.64 48.44 77.68 48.44C78.8 48.44 79.26 49.2 79.26 50.18C79.25 50.34 79.24 50.51 79.22 50.68L76.36 50.68C76.39 51.9 76.96 52.23 77.67 52.23C78.31 52.23 78.57 51.97 78.7 51.45L79.2 51.55C79.02 52.36 78.38 52.71 77.62 52.71C76.2 52.71 75.78 51.7 75.78 50.57ZM78.69 50.24C78.71 49.4 78.39 48.9 77.63 48.9C77.01 48.9 76.4 49.28 76.36 50.24L78.69 50.24Z" fill="#191919" fill-rule="nonzero" opacity="1" stroke="none"/>
<path d="M82.44 49C81.94 48.91 81.3 49.14 80.97 49.47L80.97 52.6L80.43 52.6L80.43 48.52L80.87 48.52L80.92 49.09C81.31 48.56 81.75 48.43 82.31 48.44C82.35 48.44 82.39 48.44 82.44 48.44C82.44 48.44 82.44 49 82.44 49Z" fill="#191919" fill-rule="nonzero" opacity="1" stroke="none"/>
<path d="M85.83 49.68L85.3 49.74C85.2 49.2 85.05 48.9 84.38 48.9C83.67 48.9 83.5 49.21 83.5 49.56C83.5 50.04 83.86 50.15 84.48 50.3C85.23 50.48 85.9 50.64 85.9 51.53C85.9 52.23 85.37 52.7 84.39 52.7C83.49 52.7 82.93 52.36 82.81 51.46L83.32 51.37C83.43 51.86 83.62 52.23 84.41 52.23C84.95 52.23 85.35 52.07 85.35 51.55C85.35 51.07 85.02 50.97 84.42 50.82C83.74 50.64 82.94 50.54 82.94 49.61C82.94 48.82 83.62 48.43 84.39 48.43C85.39 48.44 85.74 48.93 85.83 49.68Z" fill="#191919" fill-rule="nonzero" opacity="1" stroke="none"/>
<path d="M87.29 47.53C87.02 47.53 86.86 47.38 86.86 47.11C86.86 46.84 87.02 46.69 87.29 46.69C87.56 46.69 87.72 46.84 87.72 47.11C87.72 47.38 87.56 47.53 87.29 47.53ZM87.55 52.61L87.01 52.61L87.01 48.52L87.55 48.52L87.55 52.61Z" fill="#191919" fill-rule="nonzero" opacity="1" stroke="none"/>
<path d="M91.06 52.45C90.86 52.59 90.46 52.71 90.13 52.71C89.4 52.71 89.04 52.38 89.04 51.62L89.04 48.98L88.4 48.98L88.4 48.52L89.04 48.52L89.04 47.35L89.58 47.27L89.58 48.52L90.72 48.52L90.72 48.97L89.58 48.97L89.58 51.54C89.58 52 89.68 52.27 90.21 52.27C90.46 52.27 90.76 52.17 90.94 52.06L91.06 52.45Z" fill="#191919" fill-rule="nonzero" opacity="1" stroke="none"/>
<path d="M91.18 48.52L91.76 48.52L92.96 51.97L94.21 48.52L94.75 48.52C94.25 49.86 93.63 51.48 93.1 52.85C92.67 54.02 92.37 54.39 91.66 54.39C91.36 54.39 91.08 54.31 90.92 54.25L91 53.83C91.13 53.87 91.44 53.95 91.67 53.95C92.05 53.95 92.38 53.67 92.68 52.64L91.18 48.52Z" fill="#191919" fill-rule="nonzero" opacity="1" stroke="none"/>
<path d="M97.11 50.59C97.11 49.26 97.8 48.45 99.05 48.45C100.3 48.45 100.82 49.27 100.82 50.49C100.82 51.83 100.28 52.71 98.95 52.71C97.56 52.71 97.11 51.79 97.11 50.59ZM100.26 50.53C100.26 49.32 99.8 48.91 99.02 48.91C98.21 48.91 97.66 49.41 97.66 50.56C97.66 51.7 98.1 52.26 98.99 52.26C99.77 52.25 100.26 51.77 100.26 50.53Z" fill="#191919" fill-rule="nonzero" opacity="1" stroke="none"/>
<path d="M103.72 47.06C103.56 47 103.33 46.96 103.14 46.96C102.76 46.96 102.5 47.13 102.5 47.7L102.5 48.52L103.66 48.52L103.66 48.97L102.5 48.97L102.5 52.61L101.96 52.61L101.96 48.97L101.34 48.97L101.34 48.52L101.96 48.52L101.96 47.78C101.96 46.93 102.34 46.5 103.06 46.5C103.36 46.5 103.6 46.56 103.74 46.63L103.72 47.06Z" fill="#191919" fill-rule="nonzero" opacity="1" stroke="none"/>
<path d="M108.57 46.82L110.57 52.61L109.98 52.61L109.36 50.75L107.03 50.75L106.41 52.61L105.88 52.61L107.85 46.82C107.85 46.82 108.57 46.82 108.57 46.82ZM108.19 47.26L107.17 50.27L109.19 50.27L108.19 47.26Z" fill="#191919" fill-rule="nonzero" opacity="1" stroke="none"/>
<path d="M111.65 48.52L112.12 48.52L112.15 49.02C112.53 48.71 112.99 48.44 113.62 48.44C114.48 48.44 115.1 48.97 115.1 50.46C115.1 52.05 114.3 52.7 113.37 52.7C112.89 52.7 112.47 52.48 112.16 52.25L112.16 54.3L111.64 54.3L111.64 48.52L111.65 48.52ZM112.19 51.76C112.39 51.91 112.84 52.25 113.38 52.25C114.25 52.25 114.56 51.51 114.56 50.44C114.56 49.32 114.22 48.88 113.49 48.88C112.97 48.88 112.45 49.22 112.19 49.49C112.19 49.49 112.19 51.76 112.19 51.76Z" fill="#191919" fill-rule="nonzero" opacity="1" stroke="none"/>
<path d="M116.27 48.52L116.74 48.52L116.77 49.02C117.15 48.71 117.61 48.44 118.24 48.44C119.1 48.44 119.72 48.97 119.72 50.46C119.72 52.05 118.92 52.7 117.99 52.7C117.51 52.7 117.09 52.48 116.78 52.25L116.78 54.3L116.26 54.3L116.26 48.52L116.27 48.52ZM116.8 51.76C117 51.91 117.45 52.25 117.99 52.25C118.86 52.25 119.17 51.51 119.17 50.44C119.17 49.32 118.83 48.88 118.1 48.88C117.58 48.88 117.06 49.22 116.8 49.49L116.8 51.76Z" fill="#191919" fill-rule="nonzero" opacity="1" stroke="none"/>
<path d="M121.42 52.61L120.88 52.61L120.88 46.57L121.42 46.57L121.42 52.61Z" fill="#191919" fill-rule="nonzero" opacity="1" stroke="none"/>
<path d="M123.1 47.53C122.83 47.53 122.67 47.38 122.67 47.11C122.67 46.84 122.83 46.69 123.1 46.69C123.37 46.69 123.53 46.84 123.53 47.11C123.53 47.38 123.37 47.53 123.1 47.53ZM123.35 52.61L122.81 52.61L122.81 48.52L123.35 48.52L123.35 52.61Z" fill="#191919" fill-rule="nonzero" opacity="1" stroke="none"/>
<path d="M124.48 50.57C124.48 49.07 125.34 48.44 126.38 48.44C127.5 48.44 127.96 49.2 127.96 50.18C127.95 50.34 127.94 50.51 127.92 50.68L125.06 50.68C125.09 51.9 125.66 52.23 126.37 52.23C127.01 52.23 127.27 51.97 127.4 51.45L127.9 51.55C127.72 52.36 127.08 52.71 126.32 52.71C124.89 52.71 124.48 51.7 124.48 50.57ZM127.39 50.24C127.41 49.4 127.09 48.9 126.33 48.9C125.71 48.9 125.1 49.28 125.06 50.24L127.39 50.24Z" fill="#191919" fill-rule="nonzero" opacity="1" stroke="none"/>
<path d="M132.3 52.61L131.84 52.61L131.79 52.15C131.41 52.46 130.99 52.7 130.38 52.7C129.46 52.7 128.84 52.11 128.84 50.61C128.84 49.02 129.64 48.44 130.57 48.44C131.05 48.44 131.46 48.6 131.76 48.82L131.76 46.57L132.3 46.57C132.3 46.57 132.3 52.61 132.3 52.61ZM131.76 49.32C131.56 49.17 131.11 48.9 130.57 48.9C129.7 48.9 129.39 49.58 129.39 50.64C129.39 51.76 129.73 52.26 130.52 52.26C131.02 52.26 131.49 51.96 131.77 51.65L131.77 49.32L131.76 49.32Z" fill="#191919" fill-rule="nonzero" opacity="1" stroke="none"/>
<path d="M135.93 48.23C135.93 49.9 139.13 49 139.13 51.07C139.13 52.25 138.19 52.71 137.16 52.71C135.88 52.71 135.27 52.15 135.11 51.1L135.65 51.02C135.8 51.67 136.12 52.24 137.17 52.24C137.83 52.24 138.58 52.01 138.58 51.14C138.58 49.38 135.38 50.44 135.38 48.25C135.38 47.31 136.17 46.71 137.27 46.71C138.28 46.71 138.98 47.14 139.12 48.32L138.61 48.38C138.5 47.82 138.27 47.19 137.3 47.19C136.27 47.2 135.93 47.65 135.93 48.23Z" fill="#191919" fill-rule="nonzero" opacity="1" stroke="none"/>
<path d="M139.99 50.6C139.99 49.17 140.71 48.45 141.93 48.45C142.74 48.45 143.37 48.91 143.42 49.82L142.88 49.89C142.81 49.23 142.5 48.91 141.88 48.91C141.24 48.91 140.55 49.26 140.55 50.53C140.55 51.87 141.21 52.23 141.86 52.23C142.45 52.23 142.83 51.97 142.94 51.33L143.44 51.43C143.3 52.34 142.58 52.71 141.82 52.71C140.48 52.71 139.99 51.83 139.99 50.6Z" fill="#191919" fill-rule="nonzero" opacity="1" stroke="none"/>
<path d="M144.83 47.53C144.56 47.53 144.4 47.38 144.4 47.11C144.4 46.84 144.56 46.69 144.83 46.69C145.1 46.69 145.26 46.84 145.26 47.11C145.26 47.38 145.11 47.53 144.83 47.53ZM145.09 52.61L144.55 52.61L144.55 48.52L145.09 48.52L145.09 52.61Z" fill="#191919" fill-rule="nonzero" opacity="1" stroke="none"/>
<path d="M146.21 50.57C146.21 49.07 147.07 48.44 148.11 48.44C149.23 48.44 149.69 49.2 149.69 50.18C149.68 50.34 149.67 50.51 149.65 50.68L146.79 50.68C146.82 51.9 147.39 52.23 148.1 52.23C148.74 52.23 149 51.97 149.13 51.45L149.63 51.55C149.45 52.36 148.81 52.71 148.05 52.71C146.63 52.71 146.21 51.7 146.21 50.57ZM149.12 50.24C149.14 49.4 148.82 48.9 148.06 48.9C147.44 48.9 146.83 49.28 146.79 50.24L149.12 50.24Z" fill="#191919" fill-rule="nonzero" opacity="1" stroke="none"/>
<path d="M154.14 52.61L153.6 52.61L153.6 49.91C153.6 49.29 153.38 48.92 152.75 48.92C152.21 48.92 151.64 49.28 151.39 49.5L151.39 52.61L150.85 52.61L150.85 48.52L151.32 48.52L151.35 49.03C151.79 48.7 152.32 48.44 152.89 48.44C153.76 48.44 154.13 48.93 154.13 49.85L154.13 52.61L154.14 52.61Z" fill="#191919" fill-rule="nonzero" opacity="1" stroke="none"/>
<path d="M155.23 50.6C155.23 49.17 155.95 48.45 157.17 48.45C157.98 48.45 158.61 48.91 158.66 49.82L158.12 49.89C158.05 49.23 157.74 48.91 157.12 48.91C156.48 48.91 155.79 49.26 155.79 50.53C155.79 51.87 156.45 52.23 157.1 52.23C157.69 52.23 158.07 51.97 158.18 51.33L158.68 51.43C158.54 52.34 157.82 52.71 157.06 52.71C155.73 52.71 155.23 51.83 155.23 50.6Z" fill="#191919" fill-rule="nonzero" opacity="1" stroke="none"/>
<path d="M159.52 50.57C159.52 49.07 160.38 48.44 161.42 48.44C162.54 48.44 163 49.2 163 50.18C162.99 50.34 162.98 50.51 162.96 50.68L160.1 50.68C160.13 51.9 160.7 52.23 161.41 52.23C162.05 52.23 162.31 51.97 162.44 51.45L162.94 51.55C162.76 52.36 162.12 52.71 161.36 52.71C159.94 52.71 159.52 51.7 159.52 50.57ZM162.43 50.24C162.45 49.4 162.13 48.9 161.37 48.9C160.75 48.9 160.14 49.28 160.1 50.24L162.43 50.24Z" fill="#191919" fill-rule="nonzero" opacity="1" stroke="none"/>
<path d="M166.83 49.68L166.3 49.74C166.2 49.2 166.05 48.9 165.38 48.9C164.67 48.9 164.5 49.21 164.5 49.56C164.5 50.04 164.86 50.15 165.48 50.3C166.23 50.48 166.9 50.64 166.9 51.53C166.9 52.23 166.37 52.7 165.39 52.7C164.49 52.7 163.93 52.36 163.81 51.46L164.32 51.37C164.43 51.86 164.62 52.23 165.41 52.23C165.95 52.23 166.35 52.07 166.35 51.55C166.35 51.07 166.02 50.97 165.42 50.82C164.74 50.64 163.94 50.54 163.94 49.61C163.94 48.82 164.62 48.43 165.39 48.43C166.39 48.44 166.74 48.93 166.83 49.68Z" fill="#191919" fill-rule="nonzero" opacity="1" stroke="none"/>
</g>
</g>
</g>
</svg>
