<?xml version="1.0" encoding="utf-8"?>
<!-- Generator: Adobe Illustrator 23.0.6, SVG Export Plug-In . SVG Version: 6.00 Build 0)  -->
<svg version="1.1" xmlns="http://www.w3.org/2000/svg" xmlns:xlink="http://www.w3.org/1999/xlink" x="0px" y="0px"
	 viewBox="0 0 197.67 83.41" style="enable-background:new 0 0 197.67 83.41;" xml:space="preserve">
<style type="text/css">
	.st0{fill:#FFFFFF;}
	.st1{fill:#191919;}
	.st2{fill:#D72864;}
	.st3{fill:#8C195F;}
</style>
<g id="Schutzzone">
	<rect class="st0" width="197.67" height="83.41"/>
</g>
<g id="Logo">
	<g>
		<g>
			<path class="st1" d="M81.73,31.58c-4.31,0-7.69,3.33-7.69,7.58c0,4.44,3.31,7.8,7.69,7.8c4.38,0,7.69-3.35,7.69-7.8
				C89.42,34.91,86.04,31.58,81.73,31.58z M81.73,44.66c-2.85,0-5.08-2.42-5.08-5.5c0-2.97,2.23-5.29,5.08-5.29s5.08,2.32,5.08,5.29
				C86.8,42.25,84.57,44.66,81.73,44.66z"/>
			<path class="st1" d="M97.83,38.19c-1.52-0.63-2.84-1.18-2.84-2.39c0-1.09,1.02-1.91,2.38-1.91c1.64,0,2.94,0.96,3.3,1.26
				l1.09-2.04c-0.3-0.27-1.79-1.53-4.37-1.53c-2.82,0-4.95,1.84-4.95,4.27c0,2.56,2.23,3.52,4.21,4.37
				c1.56,0.67,2.91,1.25,2.91,2.49c0,1.34-1.15,1.93-2.29,1.93c-1.89,0-3.37-1.21-3.74-1.54l-1.37,1.89
				c0.34,0.34,2.13,1.96,5.07,1.96c2.86,0,4.87-1.77,4.87-4.31C102.08,39.95,99.82,39.02,97.83,38.19z"/>
			<polygon class="st1" points="114.6,31.83 104.95,31.83 104.95,33.91 108.59,33.91 108.59,46.7 110.95,46.7 110.95,33.91 
				114.6,33.91 			"/>
		</g>
		<g>
			<path class="st1" d="M56.57,22.51c-4.37-4.4-10.42-7.13-17.1-7.13c-13.29,0-24.09,10.81-24.09,24.09
				c0,13.29,10.81,24.09,24.09,24.09c6.64,0,12.67-2.7,17.03-7.06c4.36-4.36,11.97-10.39,11.97-17.03
				C68.48,32.87,60.9,26.87,56.57,22.51z M55.36,53.15c-3.49,3.49-8.31,5.65-13.62,5.65c-0.6,0-1.19-0.03-1.77-0.08
				c-0.3-0.03-0.59-0.06-0.89-0.1c-0.58,0.08-1.17,0.14-1.77,0.16c-0.29,0.01-0.59,0.02-0.89,0.02c-10.63,0-19.28-8.65-19.28-19.28
				c0-10.63,8.65-19.28,19.28-19.28c0.3,0,0.59,0.01,0.88,0.02c0.6,0.03,1.19,0.08,1.77,0.16c0.29-0.04,0.59-0.08,0.88-0.1
				c0.58-0.05,1.17-0.08,1.77-0.08c5.34,0,10.18,2.18,13.68,5.71c3.46,3.49,9.53,8.28,9.53,13.57
				C64.94,44.84,58.85,49.66,55.36,53.15z"/>
			<path class="st2" d="M22.46,39.52c0-9.73,7.01-17.59,16.62-19.09l0,0c-11.85,0.28-20.16,8.76-20.16,19.09
				c0,10.33,9.96,19.37,20.16,19.09c0,0-0.58,0.08,0,0C29.71,57.31,22.46,49.25,22.46,39.52z"/>
			<path class="st3" d="M51.82,53.15c-3.55,3.56-8.13,5.04-12.74,5.46c0.29,0.04,0.59,0.08,0.89,0.1c0.58,0.05,1.17,0.08,1.77,0.08
				c5.31,0,10.13-2.16,13.62-5.65c3.49-3.49,9.58-8.31,9.58-13.62c0-5.29-6.07-10.08-9.53-13.57c-3.49-3.52-8.34-5.71-13.68-5.71
				c-0.6,0-1.19,0.03-1.77,0.08c-0.3,0.03-0.59,0.06-0.88,0.1c4.64,0.42,9.69,2.39,12.79,5.52c3.46,3.49,9.53,8.28,9.53,13.57
				C61.4,44.84,55.31,49.66,51.82,53.15z"/>
			<path class="st3" d="M18.92,39.52c0-10.33,8.31-18.8,20.16-19.09c-0.58-0.08-1.17-0.14-1.77-0.16c-0.29-0.01-0.59-0.02-0.88-0.02
				c-10.63,0-19.28,8.65-19.28,19.28c0,10.63,8.65,19.28,19.28,19.28c0.3,0,0.59-0.01,0.89-0.02c0.6-0.03,1.19-0.08,1.77-0.16
				C28.9,58.89,18.92,49.86,18.92,39.52z"/>
			<path class="st2" d="M50.05,53.15c-2.9,2.9-6.71,4.87-10.97,5.46c4.61-0.42,9.18-1.91,12.74-5.46c3.49-3.49,9.58-8.31,9.58-13.62
				c0-5.29-6.07-10.08-9.53-13.57c-3.1-3.13-8.16-5.09-12.79-5.52c4.28,0.59,8.12,2.59,11.02,5.52c3.46,3.49,9.53,8.28,9.53,13.57
				C59.63,44.84,53.54,49.66,50.05,53.15z"/>
		</g>
		<g>
			<path class="st1" d="M75.92,58.33h2.81v0.46h-3.35V53h3.27v0.46h-2.73v2.15h2.56v0.47h-2.56V58.33z"/>
			<path class="st1" d="M82.66,58.13c0,0.22,0.04,0.32,0.25,0.32c0.07,0,0.14-0.02,0.25-0.05l0.03,0.34
				c-0.16,0.08-0.3,0.11-0.49,0.11c-0.38,0-0.51-0.23-0.53-0.51c-0.3,0.32-0.78,0.54-1.36,0.54c-1.04,0-1.21-0.71-1.21-1.1
				c0-1.16,1.06-1.38,1.98-1.38c0.23,0,0.38,0.01,0.54,0.02v-0.41c0-0.62-0.18-0.96-0.89-0.96c-0.65,0-0.87,0.26-0.96,0.74
				l-0.5-0.09c0.13-0.76,0.62-1.08,1.5-1.08c0.98,0,1.39,0.38,1.39,1.4V58.13z M82.13,56.86c-0.13-0.02-0.27-0.02-0.5-0.02
				c-0.56,0-1.46,0.04-1.46,0.87c0,0.4,0.14,0.75,0.78,0.75c0.47,0,0.94-0.26,1.19-0.56V56.86z"/>
			<path class="st1" d="M86.79,55.86l-0.53,0.06c-0.1-0.54-0.25-0.84-0.92-0.84c-0.71,0-0.88,0.31-0.88,0.66
				c0,0.48,0.36,0.59,0.98,0.74c0.75,0.18,1.42,0.34,1.42,1.23c0,0.7-0.53,1.17-1.51,1.17c-0.9,0-1.46-0.34-1.58-1.24l0.51-0.09
				c0.11,0.49,0.3,0.86,1.09,0.86c0.54,0,0.94-0.16,0.94-0.68c0-0.48-0.33-0.58-0.93-0.73c-0.68-0.18-1.48-0.28-1.48-1.21
				c0-0.79,0.68-1.18,1.45-1.18C86.34,54.62,86.69,55.11,86.79,55.86z"/>
			<path class="st1" d="M90,58.63c-0.2,0.14-0.6,0.26-0.93,0.26c-0.73,0-1.09-0.33-1.09-1.09v-2.64h-0.64V54.7h0.64v-1.17l0.54-0.08
				v1.25h1.14v0.45h-1.14v2.57c0,0.46,0.1,0.73,0.63,0.73c0.25,0,0.55-0.1,0.73-0.21L90,58.63z"/>
			<path class="st1" d="M90.46,56.75c0-1.5,0.86-2.13,1.9-2.13c1.12,0,1.58,0.76,1.58,1.74c-0.01,0.16-0.02,0.33-0.04,0.5h-2.86
				c0.03,1.22,0.6,1.55,1.31,1.55c0.64,0,0.9-0.26,1.03-0.78l0.5,0.1c-0.18,0.81-0.82,1.16-1.58,1.16
				C90.87,58.89,90.46,57.88,90.46,56.75z M93.37,56.42c0.02-0.84-0.3-1.33-1.06-1.33c-0.62,0-1.23,0.38-1.27,1.33H93.37z"/>
			<path class="st1" d="M97.11,55.18c-0.5-0.09-1.14,0.14-1.47,0.47v3.13H95.1V54.7h0.44l0.05,0.57c0.39-0.53,0.83-0.66,1.39-0.65
				c0.04,0,0.08,0,0.13,0V55.18z"/>
			<path class="st1" d="M101.2,58.79h-0.54v-2.7c0-0.62-0.22-0.99-0.85-0.99c-0.54,0-1.11,0.36-1.36,0.58v3.11h-0.54V54.7h0.47
				l0.03,0.51c0.44-0.33,0.97-0.59,1.54-0.59c0.87,0,1.24,0.49,1.24,1.41V58.79z"/>
			<path class="st1" d="M104.81,54.41c0,1.67,3.2,0.77,3.2,2.84c0,1.18-0.94,1.64-1.97,1.64c-1.28,0-1.89-0.56-2.05-1.61l0.54-0.08
				c0.15,0.65,0.47,1.22,1.52,1.22c0.66,0,1.41-0.23,1.41-1.1c0-1.76-3.2-0.7-3.2-2.89c0-0.94,0.79-1.54,1.89-1.54
				c1.01,0,1.71,0.43,1.85,1.61l-0.51,0.06c-0.11-0.56-0.34-1.19-1.31-1.19C105.15,53.38,104.81,53.83,104.81,54.41z"/>
			<path class="st1" d="M109.82,58.79l-1.31-4.09h0.55l1.09,3.54l0.97-3.54h0.58l0.95,3.53l1.08-3.53h0.51l-1.29,4.09h-0.65
				l-0.92-3.49l-0.93,3.49H109.82z"/>
			<path class="st1" d="M115.32,53.71c-0.27,0-0.43-0.15-0.43-0.42s0.16-0.42,0.43-0.42c0.27,0,0.43,0.15,0.43,0.42
				S115.59,53.71,115.32,53.71z M115.58,58.79h-0.54V54.7h0.54V58.79z"/>
			<path class="st1" d="M119.09,58.63c-0.2,0.14-0.6,0.26-0.93,0.26c-0.73,0-1.09-0.33-1.09-1.09v-2.64h-0.64V54.7h0.64v-1.17
				l0.54-0.08v1.25h1.14v0.45h-1.14v2.57c0,0.46,0.1,0.73,0.63,0.73c0.25,0,0.55-0.1,0.73-0.21L119.09,58.63z"/>
			<path class="st1" d="M120.06,58.34h2.55v0.45h-3.17v-0.38l2.46-3.26h-2.42V54.7h3.05v0.38L120.06,58.34z"/>
			<path class="st1" d="M123.15,56.75c0-1.5,0.86-2.13,1.9-2.13c1.12,0,1.58,0.76,1.58,1.74c-0.01,0.16-0.02,0.33-0.04,0.5h-2.86
				c0.03,1.22,0.6,1.55,1.31,1.55c0.64,0,0.9-0.26,1.03-0.78l0.5,0.1c-0.18,0.81-0.82,1.16-1.58,1.16
				C123.57,58.89,123.15,57.88,123.15,56.75z M126.06,56.42c0.02-0.84-0.3-1.33-1.06-1.33c-0.62,0-1.23,0.38-1.27,1.33H126.06z"/>
			<path class="st1" d="M129.81,55.18c-0.5-0.09-1.14,0.14-1.47,0.47v3.13h-0.54V54.7h0.44l0.05,0.57c0.39-0.53,0.83-0.66,1.39-0.65
				c0.04,0,0.08,0,0.13,0V55.18z"/>
			<path class="st1" d="M131.15,58.79h-0.54v-6.04h0.54V58.79z"/>
			<path class="st1" d="M135.37,58.13c0,0.22,0.04,0.32,0.25,0.32c0.07,0,0.14-0.02,0.25-0.05l0.03,0.34
				c-0.16,0.08-0.3,0.11-0.49,0.11c-0.38,0-0.51-0.23-0.53-0.51c-0.3,0.32-0.78,0.54-1.36,0.54c-1.04,0-1.21-0.71-1.21-1.1
				c0-1.16,1.06-1.38,1.98-1.38c0.23,0,0.38,0.01,0.54,0.02v-0.41c0-0.62-0.18-0.96-0.89-0.96c-0.65,0-0.87,0.26-0.96,0.74
				l-0.5-0.09c0.13-0.76,0.62-1.08,1.5-1.08c0.98,0,1.39,0.38,1.39,1.4V58.13z M134.84,56.86c-0.13-0.02-0.27-0.02-0.5-0.02
				c-0.56,0-1.46,0.04-1.46,0.87c0,0.4,0.14,0.75,0.78,0.75c0.47,0,0.94-0.26,1.19-0.56V56.86z"/>
			<path class="st1" d="M140.11,58.79h-0.54v-2.7c0-0.62-0.22-0.99-0.85-0.99c-0.54,0-1.11,0.36-1.36,0.58v3.11h-0.54V54.7h0.47
				l0.03,0.51c0.44-0.33,0.97-0.59,1.54-0.59c0.87,0,1.24,0.49,1.24,1.41V58.79z"/>
			<path class="st1" d="M144.66,58.79h-0.46l-0.05-0.46c-0.38,0.31-0.8,0.55-1.41,0.55c-0.92,0-1.54-0.59-1.54-2.09
				c0-1.59,0.8-2.17,1.73-2.17c0.48,0,0.89,0.16,1.19,0.38v-2.25h0.54V58.79z M144.13,55.5c-0.2-0.15-0.65-0.42-1.19-0.42
				c-0.87,0-1.18,0.68-1.18,1.74c0,1.12,0.34,1.62,1.13,1.62c0.5,0,0.97-0.3,1.25-0.61V55.5z"/>
			<path class="st1" d="M78.93,66.09V62.2h0.54v3.91c0,1.33-0.75,1.97-2.1,1.97c-1.44,0-2.02-0.7-2.02-1.98v-3.9h0.54v3.87
				c0,1.14,0.58,1.54,1.54,1.54C78.39,67.61,78.93,67.24,78.93,66.09z"/>
			<path class="st1" d="M84.27,67.99h-0.54v-2.7c0-0.62-0.22-0.99-0.85-0.99c-0.54,0-1.11,0.36-1.36,0.58v3.11h-0.54V63.9h0.47
				l0.03,0.51c0.44-0.33,0.97-0.59,1.54-0.59c0.87,0,1.24,0.49,1.24,1.41V67.99z"/>
			<path class="st1" d="M85.93,62.91c-0.27,0-0.43-0.15-0.43-0.42s0.16-0.42,0.43-0.42c0.27,0,0.43,0.15,0.43,0.42
				S86.2,62.91,85.93,62.91z M86.18,67.99h-0.54V63.9h0.54V67.99z"/>
			<path class="st1" d="M88.55,67.99l-1.61-4.09h0.58l1.33,3.56l1.32-3.56h0.54l-1.57,4.09H88.55z"/>
			<path class="st1" d="M91.16,65.95c0-1.5,0.86-2.13,1.9-2.13c1.12,0,1.58,0.76,1.58,1.74c-0.01,0.16-0.02,0.33-0.04,0.5h-2.86
				c0.03,1.22,0.6,1.55,1.31,1.55c0.64,0,0.9-0.26,1.03-0.78l0.5,0.1c-0.18,0.81-0.82,1.16-1.58,1.16
				C91.58,68.09,91.16,67.08,91.16,65.95z M94.07,65.62c0.02-0.84-0.3-1.34-1.06-1.34c-0.62,0-1.23,0.38-1.27,1.34H94.07z"/>
			<path class="st1" d="M97.82,64.38c-0.5-0.09-1.14,0.14-1.47,0.47v3.13h-0.54V63.9h0.44l0.05,0.57c0.39-0.53,0.83-0.66,1.39-0.65
				c0.04,0,0.08,0,0.13,0V64.38z"/>
			<path class="st1" d="M101.21,65.06l-0.53,0.06c-0.1-0.54-0.25-0.84-0.92-0.84c-0.71,0-0.88,0.31-0.88,0.66
				c0,0.48,0.36,0.59,0.98,0.74c0.75,0.18,1.42,0.34,1.42,1.23c0,0.7-0.53,1.17-1.51,1.17c-0.9,0-1.46-0.34-1.58-1.24l0.51-0.09
				c0.11,0.49,0.3,0.86,1.09,0.86c0.54,0,0.94-0.16,0.94-0.68c0-0.48-0.33-0.58-0.93-0.73c-0.68-0.18-1.48-0.28-1.48-1.21
				c0-0.79,0.68-1.18,1.45-1.18C100.77,63.82,101.12,64.31,101.21,65.06z"/>
			<path class="st1" d="M102.67,62.91c-0.27,0-0.43-0.15-0.43-0.42s0.16-0.42,0.43-0.42c0.27,0,0.43,0.15,0.43,0.42
				S102.94,62.91,102.67,62.91z M102.93,67.99h-0.54V63.9h0.54V67.99z"/>
			<path class="st1" d="M106.44,67.83c-0.2,0.14-0.6,0.26-0.93,0.26c-0.73,0-1.09-0.33-1.09-1.09v-2.64h-0.64V63.9h0.64v-1.17
				l0.54-0.08v1.25h1.14v0.45h-1.14v2.57c0,0.46,0.1,0.73,0.63,0.73c0.25,0,0.55-0.1,0.73-0.21L106.44,67.83z"/>
			<path class="st1" d="M106.56,63.9h0.58l1.2,3.45l1.25-3.45h0.54c-0.5,1.34-1.12,2.96-1.65,4.33c-0.43,1.17-0.73,1.54-1.44,1.54
				c-0.3,0-0.58-0.08-0.74-0.14l0.08-0.42c0.13,0.04,0.44,0.12,0.67,0.12c0.38,0,0.71-0.28,1.01-1.31L106.56,63.9z"/>
			<path class="st1" d="M112.49,65.97c0-1.33,0.69-2.14,1.94-2.14c1.25,0,1.77,0.82,1.77,2.04c0,1.34-0.54,2.22-1.87,2.22
				C112.94,68.09,112.49,67.17,112.49,65.97z M115.64,65.91c0-1.21-0.46-1.62-1.24-1.62c-0.81,0-1.36,0.5-1.36,1.65
				c0,1.14,0.44,1.7,1.33,1.7C115.15,67.63,115.64,67.15,115.64,65.91z"/>
			<path class="st1" d="M119.1,62.44c-0.16-0.06-0.39-0.1-0.58-0.1c-0.38,0-0.64,0.17-0.64,0.74v0.82h1.16v0.45h-1.16v3.64h-0.54
				v-3.64h-0.62V63.9h0.62v-0.74c0-0.85,0.38-1.28,1.1-1.28c0.3,0,0.54,0.06,0.68,0.13L119.1,62.44z"/>
			<path class="st1" d="M123.95,62.2l2,5.79h-0.59l-0.62-1.86h-2.33l-0.62,1.86h-0.53l1.97-5.79H123.95z M123.57,62.64l-1.02,3.01
				h2.02L123.57,62.64z"/>
			<path class="st1" d="M127.03,63.9h0.47l0.03,0.5c0.38-0.31,0.84-0.58,1.47-0.58c0.86,0,1.48,0.53,1.48,2.02
				c0,1.59-0.8,2.24-1.73,2.24c-0.48,0-0.9-0.22-1.21-0.45v2.05h-0.52V63.9z M127.57,67.14c0.2,0.15,0.65,0.49,1.19,0.49
				c0.87,0,1.18-0.74,1.18-1.81c0-1.12-0.34-1.56-1.07-1.56c-0.52,0-1.04,0.34-1.3,0.61V67.14z"/>
			<path class="st1" d="M131.65,63.9h0.47l0.03,0.5c0.38-0.31,0.84-0.58,1.47-0.58c0.86,0,1.48,0.53,1.48,2.02
				c0,1.59-0.8,2.24-1.73,2.24c-0.48,0-0.9-0.22-1.21-0.45v2.05h-0.52V63.9z M132.18,67.14c0.2,0.15,0.65,0.49,1.19,0.49
				c0.87,0,1.18-0.74,1.18-1.81c0-1.12-0.34-1.56-1.07-1.56c-0.52,0-1.04,0.34-1.3,0.61V67.14z"/>
			<path class="st1" d="M136.8,67.99h-0.54v-6.04h0.54V67.99z"/>
			<path class="st1" d="M138.48,62.91c-0.27,0-0.43-0.15-0.43-0.42s0.16-0.42,0.43-0.42c0.27,0,0.43,0.15,0.43,0.42
				S138.75,62.91,138.48,62.91z M138.73,67.99h-0.54V63.9h0.54V67.99z"/>
			<path class="st1" d="M139.86,65.95c0-1.5,0.86-2.13,1.9-2.13c1.12,0,1.58,0.76,1.58,1.74c-0.01,0.16-0.02,0.33-0.04,0.5h-2.86
				c0.03,1.22,0.6,1.55,1.31,1.55c0.64,0,0.9-0.26,1.03-0.78l0.5,0.1c-0.18,0.81-0.82,1.16-1.58,1.16
				C140.27,68.09,139.86,67.08,139.86,65.95z M142.77,65.62c0.02-0.84-0.3-1.34-1.06-1.34c-0.62,0-1.23,0.38-1.27,1.34H142.77z"/>
			<path class="st1" d="M147.68,67.99h-0.46l-0.05-0.46c-0.38,0.31-0.8,0.55-1.41,0.55c-0.92,0-1.54-0.59-1.54-2.09
				c0-1.59,0.8-2.17,1.73-2.17c0.48,0,0.89,0.16,1.19,0.38v-2.25h0.54V67.99z M147.14,64.7c-0.2-0.15-0.65-0.42-1.19-0.42
				c-0.87,0-1.18,0.68-1.18,1.74c0,1.12,0.34,1.62,1.13,1.62c0.5,0,0.97-0.3,1.25-0.61V64.7z"/>
			<path class="st1" d="M151.31,63.61c0,1.67,3.2,0.77,3.2,2.84c0,1.18-0.94,1.64-1.97,1.64c-1.28,0-1.89-0.56-2.05-1.61l0.54-0.08
				c0.15,0.65,0.47,1.22,1.52,1.22c0.66,0,1.41-0.23,1.41-1.1c0-1.76-3.2-0.7-3.2-2.89c0-0.94,0.79-1.54,1.89-1.54
				c1.01,0,1.71,0.43,1.85,1.61l-0.51,0.06c-0.11-0.56-0.34-1.19-1.31-1.19C151.65,62.58,151.31,63.03,151.31,63.61z"/>
			<path class="st1" d="M155.37,65.98c0-1.43,0.72-2.15,1.94-2.15c0.81,0,1.44,0.46,1.49,1.37l-0.54,0.07
				c-0.07-0.66-0.38-0.98-1-0.98c-0.64,0-1.33,0.35-1.33,1.62c0,1.34,0.66,1.7,1.31,1.7c0.59,0,0.97-0.26,1.08-0.9l0.5,0.1
				c-0.14,0.91-0.86,1.28-1.62,1.28C155.86,68.09,155.37,67.21,155.37,65.98z"/>
			<path class="st1" d="M160.21,62.91c-0.27,0-0.43-0.15-0.43-0.42s0.16-0.42,0.43-0.42c0.27,0,0.43,0.15,0.43,0.42
				S160.49,62.91,160.21,62.91z M160.47,67.99h-0.54V63.9h0.54V67.99z"/>
			<path class="st1" d="M161.59,65.95c0-1.5,0.86-2.13,1.9-2.13c1.12,0,1.58,0.76,1.58,1.74c-0.01,0.16-0.02,0.33-0.04,0.5h-2.86
				c0.03,1.22,0.6,1.55,1.31,1.55c0.64,0,0.9-0.26,1.03-0.78l0.5,0.1c-0.18,0.81-0.82,1.16-1.58,1.16
				C162.01,68.09,161.59,67.08,161.59,65.95z M164.5,65.62c0.02-0.84-0.3-1.34-1.06-1.34c-0.62,0-1.23,0.38-1.27,1.34H164.5z"/>
			<path class="st1" d="M169.52,67.99h-0.54v-2.7c0-0.62-0.22-0.99-0.85-0.99c-0.54,0-1.11,0.36-1.36,0.58v3.11h-0.54V63.9h0.47
				l0.03,0.51c0.44-0.33,0.97-0.59,1.54-0.59c0.87,0,1.24,0.49,1.24,1.41V67.99z"/>
			<path class="st1" d="M170.61,65.98c0-1.43,0.72-2.15,1.94-2.15c0.81,0,1.44,0.46,1.49,1.37l-0.54,0.07
				c-0.07-0.66-0.38-0.98-1-0.98c-0.64,0-1.33,0.35-1.33,1.62c0,1.34,0.66,1.7,1.31,1.7c0.59,0,0.97-0.26,1.08-0.9l0.5,0.1
				c-0.14,0.91-0.86,1.28-1.62,1.28C171.11,68.09,170.61,67.21,170.61,65.98z"/>
			<path class="st1" d="M174.9,65.95c0-1.5,0.86-2.13,1.9-2.13c1.12,0,1.58,0.76,1.58,1.74c-0.01,0.16-0.02,0.33-0.04,0.5h-2.86
				c0.03,1.22,0.6,1.55,1.31,1.55c0.64,0,0.9-0.26,1.03-0.78l0.5,0.1c-0.18,0.81-0.82,1.16-1.58,1.16
				C175.32,68.09,174.9,67.08,174.9,65.95z M177.81,65.62c0.02-0.84-0.3-1.34-1.06-1.34c-0.62,0-1.23,0.38-1.27,1.34H177.81z"/>
			<path class="st1" d="M182.21,65.06l-0.53,0.06c-0.1-0.54-0.25-0.84-0.92-0.84c-0.71,0-0.88,0.31-0.88,0.66
				c0,0.48,0.36,0.59,0.98,0.74c0.75,0.18,1.42,0.34,1.42,1.23c0,0.7-0.53,1.17-1.51,1.17c-0.9,0-1.46-0.34-1.58-1.24l0.51-0.09
				c0.11,0.49,0.3,0.86,1.09,0.86c0.54,0,0.94-0.16,0.94-0.68c0-0.48-0.33-0.58-0.93-0.73c-0.68-0.18-1.48-0.28-1.48-1.21
				c0-0.79,0.68-1.18,1.45-1.18C181.77,63.82,182.12,64.31,182.21,65.06z"/>
		</g>
	</g>
</g>
</svg>
